STARTFONT 2.1
COMMENT
COMMENT Converted from OpenType font "Xuong.otf" by "otf2bdf 3.0".
COMMENT
FONT -FreeType-Xuong-Bold-R-Normal--77-560-100-100-P-374-ISO10646-1
SIZE 56 100 100
FONTBOUNDINGBOX 83 96 -7 -13
STARTPROPERTIES 19
FOUNDRY "FreeType"
FAMILY_NAME "Xuong"
WEIGHT_NAME "Bold"
SLANT "R"
SETWIDTH_NAME "Normal"
ADD_STYLE_NAME ""
PIXEL_SIZE 77
POINT_SIZE 560
RESOLUTION_X 100
RESOLUTION_Y 100
SPACING "P"
AVERAGE_WIDTH 374
CHARSET_REGISTRY "ISO10646"
CHARSET_ENCODING "1"
FONT_ASCENT 70
FONT_DESCENT 14
COPYRIGHT "-FreeType-Xuong-Bold-R-Normal--77-560-100-100-P-374-ISO10646-1"
_OTF_FONTFILE "Xuong.otf"
_OTF_PSNAME "Xuong"
ENDPROPERTIES
CHARS 445
STARTCHAR 0000
ENCODING 0
SWIDTH 0 0
DWIDTH 0 0
BBX 0 0 0 0
BITMAP
ENDCHAR
STARTCHAR 000D
ENCODING 13
SWIDTH 244 0
DWIDTH 19 0
BBX 0 0 0 0
BITMAP
ENDCHAR
STARTCHAR 0020
ENCODING 32
SWIDTH 231 0
DWIDTH 18 0
BBX 0 0 0 0
BITMAP
ENDCHAR
STARTCHAR 0021
ENCODING 33
SWIDTH 167 0
DWIDTH 13 0
BBX 10 54 2 0
BITMAP
7F80
FFC0
FFC0
FFC0
FFC0
FFC0
FFC0
FFC0
FFC0
FFC0
FFC0
FF80
FF80
FF80
FF80
FF80
7F80
7F80
7F80
7F80
7F80
7F80
7F80
7F80
7F80
7F00
7F00
7F00
7F00
7F00
3F00
3F00
3F00
3F00
3F00
3F00
3F00
3F00
3F00
3E00
0000
0000
0000
0000
0000
FFC0
FFC0
FFC0
FFC0
FFC0
FFC0
FFC0
FFC0
FFC0
ENDCHAR
STARTCHAR 0022
ENCODING 34
SWIDTH 257 0
DWIDTH 20 0
BBX 20 20 0 34
BITMAP
FF9FF0
7F9FF0
7F9FF0
7F9FE0
7F8FE0
7F8FE0
7F8FE0
7F0FE0
7F0FE0
7F0FE0
7F0FE0
3F0FE0
3F0FE0
3F0FC0
3F0FC0
3F07C0
3F07C0
3E07C0
3E07C0
3E07C0
ENDCHAR
STARTCHAR 0023
ENCODING 35
SWIDTH 720 0
DWIDTH 56 0
BBX 56 54 0 0
BITMAP
000001FE00FF00
000001FE00FE00
000001FC01FE00
000003FC01FE00
000003FC01FE00
000003FC03FC00
000007F803FC00
000007F803FC00
000007F803FC00
000007F807F800
00000FF007F800
00000FF007F800
00000FF007F800
00000FF00FF000
00001FE00FF000
03FFFFFFFFFFFF
07FFFFFFFFFFFF
07FFFFFFFFFFFF
07FFFFFFFFFFFF
07FFFFFFFFFFFF
07FFFFFFFFFFFF
07FFFFFFFFFFFF
07FFFFFFFFFFFF
00007F803FC000
00007F807F8000
0000FF007F8000
0000FF007F8000
0000FF007F8000
0000FF00FF0000
0001FE00FF0000
0001FE00FF0000
7FFFFFFFFFFFE0
FFFFFFFFFFFFE0
FFFFFFFFFFFFE0
FFFFFFFFFFFFE0
FFFFFFFFFFFFE0
FFFFFFFFFFFFE0
FFFFFFFFFFFFE0
0007F803FC0000
0007F807F80000
000FF007F80000
000FF007F80000
000FF007F80000
000FF00FF00000
001FE00FF00000
001FE00FF00000
001FE01FF00000
003FE01FE00000
003FC01FE00000
003FC01FE00000
003FC03FE00000
007FC03FC00000
007F803FC00000
007F803FC00000
ENDCHAR
STARTCHAR 0024
ENCODING 36
SWIDTH 540 0
DWIDTH 42 0
BBX 36 70 3 -8
BITMAP
0003FC0000
0003FC0000
0003FC0000
0003FC0000
0003FC0000
0003FC0000
0003FC0000
0003FC0000
7FFFFFFE00
7FFFFFFE00
FFFFFFFF00
FFFFFFFF80
FFFFFFFF80
FFFFFFFFC0
FFFFFFFFE0
FFFFFFFFF0
FFFFFFFFF0
FFFFFFFFF0
FFFFFFFFF0
FFFFFFFFF0
FFF0007FF0
FFF8003FF0
FFFC000000
FFFE000000
FFFF000000
7FFF800000
3FFFC00000
1FFFE00000
0FFFF00000
07FFF80000
03FFFC0000
01FFFE0000
00FFFF0000
007FFF8000
003FFFC000
001FFFE000
000FFFF000
0007FFF800
0003FFFC00
0001FFFE00
0000FFFF00
00007FFF80
00003FFFC0
00001FFFE0
00000FFFF0
00000FFFF0
000007FFF0
FFC003FFF0
FFE001FFF0
FFF000FFF0
FFFFFFFFF0
FFFFFFFFF0
FFFFFFFFF0
FFFFFFFFF0
7FFFFFFFF0
3FFFFFFFF0
3FFFFFFFF0
1FFFFFFFF0
0FFFFFFFF0
07FFFFFFF0
07FFFFFFE0
03FFFFFFC0
0003FC0000
0003FC0000
0003FC0000
0003FC0000
0003FC0000
0003FC0000
0003FC0000
0003FC0000
ENDCHAR
STARTCHAR 0025
ENCODING 37
SWIDTH 604 0
DWIDTH 47 0
BBX 42 54 3 0
BITMAP
7FFF8007FC00
7FFFC007F800
FFFFE00FF800
FFFFE00FF000
FFFFE01FF000
FFFFE01FE000
FE0FE03FE000
FE0FE03FC000
FE0FE07FC000
FE0FE07F8000
FE0FE0FF8000
FFFFE0FF0000
FFFFE1FF0000
FFFFE1FE0000
FFFFE1FE0000
FFFFC3FE0000
7FFFC3FC0000
3FFF87FC0000
000007F80000
00000FF80000
00000FF00000
00001FF00000
00001FE00000
00003FE00000
00003FC00000
00007FC00000
00007F800000
0000FF800000
0000FF000000
0001FF000000
0001FF000000
0003FE000000
0003FE000000
0003FC000000
0007FC000000
0007F8000000
000FF8FFFF00
000FF0FFFF80
001FF1FFFFC0
001FE1FFFFC0
003FE1FFFFC0
003FC1FFFFC0
007FC1FC1FC0
007F81FC1FC0
00FF81FC1FC0
00FF81FC1FC0
01FF01FC1FC0
01FF01FFFFC0
03FE01FFFFC0
03FE01FFFFC0
03FC01FFFFC0
07FC01FFFF80
07F800FFFF80
0FF8007FFF00
ENDCHAR
STARTCHAR 0026
ENCODING 38
SWIDTH 694 0
DWIDTH 54 0
BBX 50 54 3 0
BITMAP
003FFFFF800000
007FFFFFC00000
00FFFFFFC00000
00FFFFFFE00000
01FFFFFFF00000
03FFFFFFF80000
03FFFFFFF80000
07FFFFFFFC0000
0FFFFFFFFE0000
0FFFFFFFFE0000
0FFFFFFFFE0000
0FFFFFFFFE0000
0FFF800FFE0000
0FFF000FFE0000
0FFE000FFE0000
0FFE001FFE0000
0FFE003FFE0000
0FFE007FFE0000
0FFE00FFFE0000
0FFFFFFFFC0000
1FFFFFFFF80000
3FFFFFFFF80000
7FFFFFFFF00000
FFFFFFFFE00000
FFFFFFFFC00000
FFFFFFFFC00000
FFFFFFFFC00C00
FFF801FFC03E00
FFF001FFE07F00
FFE001FFE0FF80
FFE000FFF1FF80
FFE0007FFFFFC0
FFE0007FFFFFC0
FFE0003FFFFFC0
FFE0003FFFFFC0
FFE0001FFFFFC0
FFE0000FFFFFC0
FFE0000FFFFF00
FFE0001FFFFE00
FFF0007FFFFC00
FFF000FFFFF000
FFF801FFFFF000
FFFFFFFFFFF000
FFFFFFFFFFF800
FFFFFFFFFFFC00
FFFFFFFFFFFC00
7FFFFFFFFFFE00
3FFFFFFFFFFF00
3FFFFFFFCFFF80
1FFFFFFF8FFF80
0FFFFFFF07FFC0
07FFFFFC03FFC0
07FFFFF803FFC0
03FFFFF001FF80
ENDCHAR
STARTCHAR 0027
ENCODING 39
SWIDTH 115 0
DWIDTH 9 0
BBX 9 20 0 34
BITMAP
FF80
7F80
7F80
7F80
7F80
7F80
7F80
7F00
7F00
7F00
7F00
3F00
3F00
3F00
3F00
3F00
3F00
3E00
3E00
3E00
ENDCHAR
STARTCHAR 0028
ENCODING 40
SWIDTH 218 0
DWIDTH 17 0
BBX 15 60 2 -3
BITMAP
00FE
01FE
03FC
03FC
07F8
07F8
0FF0
0FF0
1FE0
3FE0
3FC0
7F80
7F80
FF00
FF00
FF00
FF00
FF00
FF00
FF00
FF00
FF00
FF00
FF00
FF00
FF00
FF00
FF00
FF00
FF00
FF00
FF00
FF00
FF00
FF00
FF00
FF00
FF00
FF00
FF00
FF00
FF00
FF00
FF00
FF00
FF00
FF80
7F80
7FC0
3FC0
3FE0
1FF0
0FF0
0FF8
07F8
07FC
03FC
01FE
01FE
00FE
ENDCHAR
STARTCHAR 0029
ENCODING 41
SWIDTH 218 0
DWIDTH 17 0
BBX 15 60 0 -3
BITMAP
FF00
FF00
7F80
7F80
3FC0
3FC0
1FE0
1FE0
0FF0
07F8
07F8
03FC
03FC
01FE
01FE
01FE
01FE
01FE
01FE
01FE
01FE
01FE
01FE
01FE
01FE
01FE
01FE
01FE
01FE
01FE
01FE
01FE
01FE
01FE
01FE
01FE
01FE
01FE
01FE
01FE
01FE
01FE
01FE
01FE
01FE
01FE
03FE
03FE
07FC
07F8
0FF8
0FF0
1FF0
3FE0
3FC0
7FC0
7F80
FF00
FF00
FE00
ENDCHAR
STARTCHAR 002A
ENCODING 42
SWIDTH 385 0
DWIDTH 30 0
BBX 27 27 2 27
BITMAP
003F8000
003F8000
003F8000
103F8100
1C3F8700
3F3F9F80
7FFFFFC0
7FFFFFC0
FFFFFFE0
FFFFFFE0
7FFFFFC0
1FFFFF00
0FFFFE00
07FFFC00
0FFFFE00
3FFFFF80
FFFFFFE0
FFFFFFE0
7FFFFFC0
7FFFFFC0
3FBFBF80
3E3F8F80
183F8300
103F8000
003F8000
003F8000
003F8000
ENDCHAR
STARTCHAR 002B
ENCODING 43
SWIDTH 424 0
DWIDTH 33 0
BBX 30 30 2 12
BITMAP
001FE000
001FE000
001FE000
001FE000
001FE000
001FE000
001FE000
001FE000
001FE000
001FE000
001FE000
FFFFFFFC
FFFFFFFC
FFFFFFFC
FFFFFFFC
FFFFFFFC
FFFFFFFC
FFFFFFFC
FFFFFFFC
001FE000
001FE000
001FE000
001FE000
001FE000
001FE000
001FE000
001FE000
001FE000
001FE000
001FE000
ENDCHAR
STARTCHAR 002C
ENCODING 44
SWIDTH 192 0
DWIDTH 15 0
BBX 14 18 -2 -7
BITMAP
03F0
03F8
03FC
03FC
03FC
03FC
03FC
03FC
03FC
03FC
07F8
0FF8
0FF0
1FE0
3FE0
3FC0
7F80
FF80
ENDCHAR
STARTCHAR 002D
ENCODING 45
SWIDTH 424 0
DWIDTH 33 0
BBX 30 8 2 27
BITMAP
FFFFFFFC
FFFFFFFC
FFFFFFFC
FFFFFFFC
FFFFFFFC
FFFFFFFC
FFFFFFFC
FFFFFFFC
ENDCHAR
STARTCHAR 002E
ENCODING 46
SWIDTH 154 0
DWIDTH 12 0
BBX 9 9 2 0
BITMAP
FF80
FF80
FF80
FF80
FF80
FF80
FF80
FF80
FF80
ENDCHAR
STARTCHAR 002F
ENCODING 47
SWIDTH 257 0
DWIDTH 20 0
BBX 24 62 -2 -4
BITMAP
0000FF
0000FF
0000FF
0001FE
0001FE
0001FE
0001FE
0003FC
0003FC
0003FC
0003FC
0007F8
0007F8
0007F8
0007F0
000FF0
000FF0
000FF0
001FE0
001FE0
001FE0
001FE0
003FC0
003FC0
003FC0
003FC0
007F80
007F80
007F80
00FF80
00FF00
00FF00
00FF00
01FF00
01FE00
01FE00
01FE00
03FC00
03FC00
03FC00
03FC00
07F800
07F800
07F800
07F800
0FF000
0FF000
0FF000
1FF000
1FE000
1FE000
1FE000
3FE000
3FC000
3FC000
3FC000
7F8000
7F8000
7F8000
FF8000
FF0000
FF0000
ENDCHAR
STARTCHAR 0030
ENCODING 48
SWIDTH 578 0
DWIDTH 45 0
BBX 39 54 3 0
BITMAP
03FFFFFF80
07FFFFFFC0
0FFFFFFFE0
1FFFFFFFF0
1FFFFFFFF0
3FFFFFFFF8
7FFFFFFFFC
7FFFFFFFFC
FFFFFFFFFE
FFFFFFFFFE
FFFFFFFFFE
FFFFFFFFFE
FFF8003FFE
FFF8003FFE
FFF0001FFE
FFF0001FFE
FFF0001FFE
FFF0001FFE
FFF0001FFE
FFF0001FFE
FFF0001FFE
FFF0001FFE
FFF0001FFE
FFF0001FFE
FFF0001FFE
FFF0001FFE
FFF0001FFE
FFF0001FFE
FFF0001FFE
FFF0001FFE
FFF0001FFE
FFF0001FFE
FFF0001FFE
FFF0001FFE
FFF0001FFE
FFF0001FFE
FFF0001FFE
FFF0001FFE
FFF0001FFE
FFF0001FFE
FFF8003FFE
FFFC007FFE
FFFFFFFFFE
FFFFFFFFFE
FFFFFFFFFE
FFFFFFFFFE
7FFFFFFFFC
3FFFFFFFF8
3FFFFFFFF8
1FFFFFFFF0
0FFFFFFFE0
07FFFFFFE0
07FFFFFFC0
03FFFFFF80
ENDCHAR
STARTCHAR 0031
ENCODING 49
SWIDTH 398 0
DWIDTH 31 0
BBX 25 54 3 0
BITMAP
000FFF00
001FFF80
003FFF80
00FFFF80
01FFFF80
03FFFF80
07FFFF80
1FFFFF80
3FFFFF80
7FFFFF80
FFFFFF80
FFFFFF80
FFFFFF80
FFFFFF80
FFFFFF80
FFFFFF80
FFF7FF80
FFE7FF80
FFC7FF80
FF07FF80
FE07FF80
FC07FF80
0007FF80
0007FF80
0007FF80
0007FF80
0007FF80
0007FF80
0007FF80
0007FF80
0007FF80
0007FF80
0007FF80
0007FF80
0007FF80
0007FF80
0007FF80
0007FF80
0007FF80
0007FF80
0007FF80
0007FF80
0007FF80
0007FF80
0007FF80
0007FF80
0007FF80
0007FF80
0007FF80
0007FF80
0007FF80
0007FF80
0007FF80
0007FF80
ENDCHAR
STARTCHAR 0032
ENCODING 50
SWIDTH 540 0
DWIDTH 42 0
BBX 37 54 3 0
BITMAP
03FFFFFFE0
07FFFFFFF0
0FFFFFFFF8
1FFFFFFFF8
1FFFFFFFF8
3FFFFFFFF8
7FFFFFFFF8
7FFFFFFFF8
FFFFFFFFF8
FFFFFFFFF8
FFFFFFFFF8
FFFFFFFFF8
FFFC007FF8
FFFC007FF8
FFF8007FF8
FFF0007FF8
000000FFF8
000001FFF8
000003FFF8
000007FFF8
00000FFFF8
00001FFFF0
00003FFFE0
00007FFFC0
0000FFFF80
0000FFFF00
0001FFFE00
0003FFFC00
0007FFF800
000FFFF000
001FFFE000
003FFFE000
007FFFC000
00FFFF8000
01FFFF0000
03FFFE0000
07FFFC0000
0FFFF80000
1FFFF00000
3FFFE00000
7FFFC00000
7FFF800000
FFFFFFFFE0
FFFFFFFFF0
FFFFFFFFF0
FFFFFFFFF8
FFFFFFFFF8
FFFFFFFFF8
FFFFFFFFF8
FFFFFFFFF8
FFFFFFFFF8
FFFFFFFFF8
FFFFFFFFF8
FFFFFFFFF8
ENDCHAR
STARTCHAR 0033
ENCODING 51
SWIDTH 514 0
DWIDTH 40 0
BBX 35 54 3 0
BITMAP
FFFFFFFF80
FFFFFFFFC0
FFFFFFFFE0
7FFFFFFFE0
7FFFFFFFE0
3FFFFFFFE0
1FFFFFFFE0
1FFFFFFFE0
0FFFFFFFE0
07FFFFFFE0
03FFFFFFE0
03FFFFFFE0
000003FFE0
000003FFE0
000003FFE0
000003FFE0
000003FFE0
000003FFE0
000003FFE0
000003FFE0
000003FFE0
01FFFFFFE0
01FFFFFFE0
01FFFFFFE0
01FFFFFFE0
01FFFFFFE0
01FFFFFFE0
01FFFFFFE0
01FFFFFFE0
01FFFFFFE0
01FFFFFFE0
01FFFFFFE0
01FFFFFFE0
000001FFE0
000001FFE0
000001FFE0
000001FFE0
000001FFE0
000001FFE0
000001FFE0
000001FFE0
000001FFE0
03FFFFFFE0
03FFFFFFE0
07FFFFFFE0
0FFFFFFFE0
0FFFFFFFE0
1FFFFFFFE0
3FFFFFFFE0
7FFFFFFFE0
7FFFFFFFE0
7FFFFFFFE0
7FFFFFFFC0
7FFFFFFF80
ENDCHAR
STARTCHAR 0034
ENCODING 52
SWIDTH 565 0
DWIDTH 44 0
BBX 39 54 3 0
BITMAP
00007FFF00
0000FFFF00
0001FFFF80
0001FFFF80
0003FFFF80
0003FFFF80
0007FFFF80
000FFFFF80
000FFFFF80
001FFFFF80
001FFFFF80
003FFFFF80
007FFFFF80
007FFFFF80
00FFFFFF80
00FFFFFF80
01FFFFFF80
03FFF7FF80
03FFF7FF80
07FFE7FF80
0FFFE7FF80
0FFFC7FF80
1FFF87FF80
1FFF87FF80
3FFF07FF80
7FFE07FF80
7FFE07FF80
FFFC07FF80
FFFC07FF80
FFF807FF80
FFF807FF80
FFF807FF80
FFFFFFFFF8
FFFFFFFFFC
FFFFFFFFFE
FFFFFFFFFE
FFFFFFFFFE
FFFFFFFFFE
FFFFFFFFFE
FFFFFFFFFE
FFFFFFFFFE
FFFFFFFFFE
7FFFFFFFFE
3FFFFFFFFE
000007FF80
000007FF80
000007FF80
000007FF80
000007FF80
000007FF80
000007FF80
000007FF80
000007FF80
000007FF80
ENDCHAR
STARTCHAR 0035
ENCODING 53
SWIDTH 514 0
DWIDTH 40 0
BBX 34 54 3 0
BITMAP
7FFFFFFFC0
7FFFFFFFC0
FFFFFFFFC0
FFFFFFFFC0
FFFFFFFF80
FFFFFFFF00
FFFFFFFF00
FFFFFFFE00
FFFFFFFC00
FFFFFFFC00
FFFFFFF800
FFFFFFF000
FFF0000000
FFF0000000
FFF0000000
FFF0000000
FFF0000000
FFF0000000
FFF0000000
FFF0000000
FFFFFFFF80
FFFFFFFF80
FFFFFFFFC0
FFFFFFFFC0
FFFFFFFFC0
FFFFFFFFC0
FFFFFFFFC0
FFFFFFFFC0
FFFFFFFFC0
FFFFFFFFC0
7FFFFFFFC0
3FFFFFFFC0
000003FFC0
000003FFC0
000003FFC0
000003FFC0
000003FFC0
000003FFC0
000003FFC0
000003FFC0
000003FFC0
000003FFC0
03FFFFFFC0
07FFFFFFC0
0FFFFFFFC0
0FFFFFFFC0
1FFFFFFFC0
3FFFFFFFC0
3FFFFFFFC0
7FFFFFFFC0
FFFFFFFFC0
FFFFFFFFC0
FFFFFFFF80
FFFFFFFF80
ENDCHAR
STARTCHAR 0036
ENCODING 54
SWIDTH 540 0
DWIDTH 42 0
BBX 36 54 3 0
BITMAP
7FFFFFFE00
7FFFFFFE00
FFFFFFFF00
FFFFFFFF80
FFFFFFFF80
FFFFFFFFC0
FFFFFFFFE0
FFFFFFFFF0
FFFFFFFFF0
FFFFFFFFF0
FFFFFFFFF0
FFFFFFFFF0
FFF000FFF0
FFF0007FF0
FFF0007FF0
FFF0003FF0
FFF0000000
FFF0000000
FFF0000000
FFF0000000
FFF0000000
FFF0000000
FFF0000000
FFF0000000
FFFFFFFFE0
FFFFFFFFE0
FFFFFFFFF0
FFFFFFFFF0
FFFFFFFFF0
FFFFFFFFF0
FFFFFFFFF0
FFFFFFFFF0
FFFFFFFFF0
FFFFFFFFF0
FFFC03FFF0
FFF801FFF0
FFF000FFF0
FFF000FFF0
FFF000FFF0
FFF000FFF0
FFF801FFF0
FFFC03FFF0
FFFFFFFFF0
FFFFFFFFF0
FFFFFFFFF0
FFFFFFFFF0
FFFFFFFFF0
FFFFFFFFF0
FFFFFFFFF0
FFFFFFFFF0
FFFFFFFFF0
FFFFFFFFF0
7FFFFFFFE0
3FFFFFFFE0
ENDCHAR
STARTCHAR 0037
ENCODING 55
SWIDTH 475 0
DWIDTH 37 0
BBX 33 54 1 0
BITMAP
FFFFFFFF00
FFFFFFFF80
FFFFFFFF80
7FFFFFFF80
7FFFFFFF80
3FFFFFFF80
1FFFFFFF80
1FFFFFFF80
0FFFFFFF80
07FFFFFF80
03FFFFFF80
03FFFFFF80
00001FFF80
00001FFF80
00003FFF00
00003FFF00
00003FFF00
00003FFE00
00007FFE00
00007FFE00
00007FFC00
0000FFFC00
0000FFFC00
0000FFFC00
0001FFF800
0001FFF800
0001FFF800
0003FFF000
0003FFF000
0003FFF000
0007FFE000
0007FFE000
0007FFE000
000FFFC000
000FFFC000
000FFFC000
001FFF8000
001FFF8000
001FFF8000
001FFF8000
003FFF0000
003FFF0000
003FFF0000
007FFE0000
007FFE0000
007FFE0000
00FFFC0000
00FFFC0000
00FFFC0000
00FFF80000
00FFF80000
00FFF80000
00FFF00000
00FFF00000
ENDCHAR
STARTCHAR 0038
ENCODING 56
SWIDTH 578 0
DWIDTH 45 0
BBX 39 54 3 0
BITMAP
03FFFFFFC0
07FFFFFFC0
0FFFFFFFE0
1FFFFFFFF0
1FFFFFFFF8
3FFFFFFFF8
7FFFFFFFFC
7FFFFFFFFE
FFFFFFFFFE
FFFFFFFFFE
FFFFFFFFFE
FFFFFFFFFE
FFFE007FFE
FFFC003FFE
FFF8001FFE
FFF0001FFE
FFF0001FFE
FFF0001FFE
FFF0001FFE
FFF0001FFE
FFF8001FFE
FFFC003FFE
FFFE007FFE
FFFF00FFFE
3FFFFFFFFC
1FFFFFFFF8
0FFFFFFFE0
0FFFFFFFF0
3FFFFFFFF8
7FFFFFFFFC
FFFE00FFFE
FFFC007FFE
FFF8003FFE
FFF0001FFE
FFF0001FFE
FFF0001FFE
FFF0001FFE
FFF0001FFE
FFF0001FFE
FFF8003FFE
FFFC007FFE
FFFE00FFFE
FFFFFFFFFE
FFFFFFFFFE
FFFFFFFFFE
FFFFFFFFFE
7FFFFFFFFC
3FFFFFFFFC
3FFFFFFFF8
1FFFFFFFF0
0FFFFFFFF0
07FFFFFFE0
07FFFFFFC0
03FFFFFF80
ENDCHAR
STARTCHAR 0039
ENCODING 57
SWIDTH 540 0
DWIDTH 42 0
BBX 36 54 3 0
BITMAP
7FFFFFFFE0
7FFFFFFFF0
FFFFFFFFF0
FFFFFFFFF0
FFFFFFFFF0
FFFFFFFFF0
FFFFFFFFF0
FFFFFFFFF0
FFFFFFFFF0
FFFFFFFFF0
FFFFFFFFF0
FFFFFFFFF0
FFF801FFF0
FFF801FFF0
FFF000FFF0
FFF000FFF0
FFF000FFF0
FFF801FFF0
FFF801FFF0
FFFFFFFFF0
FFFFFFFFF0
FFFFFFFFF0
FFFFFFFFF0
FFFFFFFFF0
FFFFFFFFF0
FFFFFFFFF0
FFFFFFFFF0
FFFFFFFFF0
7FFFFFFFF0
3FFFFFFFF0
000000FFF0
000000FFF0
000000FFF0
000000FFF0
000000FFF0
000000FFF0
000000FFF0
FFC000FFF0
FFC000FFF0
FFE000FFF0
FFF000FFF0
FFF800FFF0
FFFFFFFFF0
FFFFFFFFF0
FFFFFFFFF0
FFFFFFFFF0
7FFFFFFFF0
3FFFFFFFF0
3FFFFFFFF0
1FFFFFFFF0
0FFFFFFFF0
07FFFFFFF0
07FFFFFFE0
03FFFFFFE0
ENDCHAR
STARTCHAR 003A
ENCODING 58
SWIDTH 154 0
DWIDTH 12 0
BBX 9 39 2 0
BITMAP
FF80
FF80
FF80
FF80
FF80
FF80
FF80
FF80
FF80
0000
0000
0000
0000
0000
0000
0000
0000
0000
0000
0000
0000
0000
0000
0000
0000
0000
0000
0000
0000
0000
FF80
FF80
FF80
FF80
FF80
FF80
FF80
FF80
FF80
ENDCHAR
STARTCHAR 003B
ENCODING 59
SWIDTH 154 0
DWIDTH 12 0
BBX 13 46 -2 -7
BITMAP
0FF8
0FF8
0FF8
0FF8
0FF8
0FF8
0FF8
0FF8
0FF8
0000
0000
0000
0000
0000
0000
0000
0000
0000
0000
0000
0000
0000
0000
0000
0000
0000
0000
0000
07F0
07F0
07F8
07F8
07F8
07F8
07F8
07F8
07F8
07F8
0FF8
0FF0
1FE0
3FE0
3FC0
7F80
FF80
FF00
ENDCHAR
STARTCHAR 003C
ENCODING 60
SWIDTH 385 0
DWIDTH 30 0
BBX 27 41 2 10
BITMAP
00000060
000001E0
000007E0
00001FE0
00007FE0
0001FFE0
0007FFE0
000FFFE0
003FFFE0
00FFFFE0
03FFFF80
0FFFFE00
3FFFF800
FFFFE000
FFFF8000
FFFE0000
FFF80000
FFE00000
FF800000
FE000000
FE000000
FE000000
FF800000
FFE00000
FFF80000
FFFE0000
FFFF8000
FFFFE000
3FFFF800
0FFFFE00
03FFFF80
00FFFFE0
003FFFE0
000FFFE0
0007FFE0
0001FFE0
00007FE0
00001FE0
000007E0
000001E0
00000060
ENDCHAR
STARTCHAR 003D
ENCODING 61
SWIDTH 424 0
DWIDTH 33 0
BBX 30 20 2 16
BITMAP
FFFFFFFC
FFFFFFFC
FFFFFFFC
FFFFFFFC
FFFFFFFC
FFFFFFFC
FFFFFFFC
FFFFFFFC
00000000
00000000
00000000
00000000
FFFFFFFC
FFFFFFFC
FFFFFFFC
FFFFFFFC
FFFFFFFC
FFFFFFFC
FFFFFFFC
FFFFFFFC
ENDCHAR
STARTCHAR 003E
ENCODING 62
SWIDTH 385 0
DWIDTH 30 0
BBX 27 41 2 10
BITMAP
C0000000
F0000000
FC000000
FF000000
FF800000
FFE00000
FFF80000
FFFE0000
FFFF8000
FFFFE000
7FFFF800
1FFFFE00
07FFFF00
01FFFFC0
007FFFE0
001FFFE0
0003FFE0
0000FFE0
00003FE0
00001FE0
00001FE0
00001FE0
00003FE0
0000FFE0
0003FFE0
000FFFE0
003FFFE0
00FFFFC0
03FFFF00
1FFFFE00
7FFFF800
FFFFE000
FFFF8000
FFFE0000
FFF80000
FFE00000
FFC00000
FF000000
FC000000
F0000000
C0000000
ENDCHAR
STARTCHAR 003F
ENCODING 63
SWIDTH 527 0
DWIDTH 41 0
BBX 36 54 3 0
BITMAP
03FFFFFFE0
07FFFFFFE0
0FFFFFFFF0
1FFFFFFFF0
1FFFFFFFF0
3FFFFFFFF0
7FFFFFFFF0
7FFFFFFFF0
FFFFFFFFF0
FFFFFFFFF0
FFFFFFFFF0
FFFFFFFFF0
FFF001FFF0
FFE001FFF0
FFE001FFF0
FFE001FFF0
000003FFE0
000003FFC0
000007FFC0
00000FFF80
00000FFF00
00001FFF00
00003FFE00
00003FFC00
00007FF800
00007FF800
0000FFF000
0001FFE000
0001FFE000
0003FFC000
0003FFC000
0003FFC000
0003FFC000
0003FFC000
0003FFC000
0003FFC000
0003FFC000
0003FFC000
0003FFC000
0000000000
0000000000
0000000000
0000000000
0000000000
0000000000
0003FFC000
0003FFC000
0003FFC000
0003FFC000
0003FFC000
0003FFC000
0003FFC000
0003FFC000
0003FFC000
ENDCHAR
STARTCHAR 0040
ENCODING 64
SWIDTH 784 0
DWIDTH 61 0
BBX 56 62 3 -8
BITMAP
7FFFFFFFFFFFFE
7FFFFFFFFFFFFE
FFFFFFFFFFFFFF
FFFFFFFFFFFFFF
FFFFFFFFFFFFFF
FFFFFFFFFFFFFF
FFFFFFFFFFFFFF
FFFFFFFFFFFFFF
FF8000000001FF
FF8000000001FF
FF8000000001FF
FF8000000001FF
FF8007FFE001FF
FF800FFFF001FF
FF800FFFF001FF
FF800FFFF801FF
FF801FFFF801FF
FF801FFFF801FF
FF801FFFF801FF
FF801FFFF801FF
FF801FC3FC01FF
FF803FC1FC01FF
FF803F81FC01FF
FF803F81FC01FF
FF803F81FC01FF
FF803F81FE01FF
FF807F81FE01FF
FF807F80FE01FF
FF807F00FE01FF
FF807F00FE01FF
FF807F00FF01FF
FF80FF00FF01FF
FF80FF00FF01FF
FF80FF00FF01FF
FF80FF007F01FF
FF80FF00FF81FF
FF81FFFFFF81FF
FF81FFFFFF81FF
FF81FFFFFF81FF
FF81FFFFFF81FF
FF81FFFFFFC1FF
FF83FEFFBFC1FF
FF83FC003FFFFF
FF83FC003FFFFF
FF83FC003FFFFF
FF83FC003FFFFF
FF87FC003FFFFF
FF87FC001FFFFF
FF87F8001FFFFE
FF87F8001FFFFC
FF800000000000
FF800000000000
FF800000000000
FF800000000000
FFFFFFFFC00000
FFFFFFFFE00000
FFFFFFFFE00000
FFFFFFFFF00000
FFFFFFFFF00000
FFFFFFFFF00000
7FFFFFFFF00000
7FFFFFFFF00000
ENDCHAR
STARTCHAR 0041
ENCODING 65
SWIDTH 578 0
DWIDTH 45 0
BBX 44 54 1 0
BITMAP
001FFFFF0000
001FFFFF8000
003FFFFFC000
003FFFFFC000
003FFFFFC000
007FFFFFC000
007FFFFFC000
007FFFFFE000
007FFFFFE000
007FFFFFE000
00FFFFFFE000
00FFFFFFE000
00FFC07FF000
00FFC07FF000
00FFC03FF000
01FFC03FF000
01FFC03FF000
01FF803FF800
01FF803FF800
01FF803FF800
03FF801FF800
03FF801FF800
03FF801FFC00
03FF801FFC00
03FF001FFC00
07FF001FFC00
07FF001FFC00
07FF000FFE00
07FF000FFE00
07FF000FFE00
0FFE000FFE00
0FFE000FFE00
0FFF000FFF00
0FFF801FFF00
0FFFFFFFFF00
1FFFFFFFFF00
1FFFFFFFFF00
1FFFFFFFFF80
1FFFFFFFFF80
1FFFFFFFFF80
3FFFFFFFFF80
3FFDFFFBFF80
3FFCFFF3FFC0
3FFC0003FFC0
3FF80003FFC0
7FF80003FFC0
7FF80003FFC0
7FF80001FFE0
7FF80001FFE0
7FF80001FFE0
FFF00001FFE0
FFF00001FFE0
FFF00001FFF0
FFF00000FFF0
ENDCHAR
STARTCHAR 0042
ENCODING 66
SWIDTH 578 0
DWIDTH 45 0
BBX 39 54 3 0
BITMAP
FFFFFFFF80
FFFFFFFFC0
FFFFFFFFE0
FFFFFFFFF0
FFFFFFFFF0
FFFFFFFFF8
FFFFFFFFFC
FFFFFFFFFC
FFFFFFFFFE
FFFFFFFFFE
FFF0007FFE
FFF0003FFE
FFF0001FFE
FFF0001FFE
FFF0001FFE
FFF0001FFE
FFF0001FFE
FFF0001FFE
FFF0001FFE
FFF0003FFE
FFF0003FFE
FFF0007FFE
FFFFFFFFFE
FFFFFFFFFC
FFFFFFFFF8
FFFFFFFFE0
FFFFFFFFE0
FFFFFFFFF0
FFFFFFFFF8
FFFFFFFFFE
FFFFFFFFFE
FFFFFFFFFE
FFF0007FFE
FFF0003FFE
FFF0001FFE
FFF0001FFE
FFF0001FFE
FFF0001FFE
FFF0001FFE
FFF0001FFE
FFF0001FFE
FFF0003FFE
FFF0003FFE
FFFFFFFFFE
FFFFFFFFFE
FFFFFFFFFE
FFFFFFFFFC
FFFFFFFFF8
FFFFFFFFF8
FFFFFFFFF0
FFFFFFFFE0
FFFFFFFFE0
FFFFFFFFC0
FFFFFFFF80
ENDCHAR
STARTCHAR 0043
ENCODING 67
SWIDTH 540 0
DWIDTH 42 0
BBX 36 54 3 0
BITMAP
FFFFFFFE00
FFFFFFFF00
FFFFFFFF00
FFFFFFFF80
FFFFFFFFC0
FFFFFFFFC0
FFFFFFFFE0
FFFFFFFFF0
FFFFFFFFF0
FFFFFFFFF0
FFFFFFFFF0
FFFFFFFFF0
FFF000FFF0
FFF000FFF0
FFF0000000
FFF0000000
FFF0000000
FFF0000000
FFF0000000
FFF0000000
FFF0000000
FFF0000000
FFF0000000
FFF0000000
FFF0000000
FFF0000000
FFF0000000
FFF0000000
FFF0000000
FFF0000000
FFF0000000
FFF0000000
FFF0000000
FFF0000000
FFF0000000
FFF0000000
FFF0000000
FFF0000000
FFF0000000
FFF0007FF0
FFF000FFF0
FFF001FFF0
FFFFFFFFF0
FFFFFFFFF0
FFFFFFFFF0
FFFFFFFFF0
FFFFFFFFF0
FFFFFFFFE0
FFFFFFFFC0
FFFFFFFF80
FFFFFFFF80
FFFFFFFF00
FFFFFFFE00
FFFFFFFE00
ENDCHAR
STARTCHAR 0044
ENCODING 68
SWIDTH 578 0
DWIDTH 45 0
BBX 39 54 3 0
BITMAP
FFFFFFFF80
FFFFFFFFC0
FFFFFFFFE0
FFFFFFFFF0
FFFFFFFFF0
FFFFFFFFF8
FFFFFFFFFC
FFFFFFFFFC
FFFFFFFFFE
FFFFFFFFFE
FFFFFFFFFE
FFFFFFFFFE
FFF0003FFE
FFF0003FFE
FFF0001FFE
FFF0001FFE
FFF0001FFE
FFF0001FFE
FFF0001FFE
FFF0001FFE
FFF0001FFE
FFF0001FFE
FFF0001FFE
FFF0001FFE
FFF0001FFE
FFF0001FFE
FFF0001FFE
FFF0001FFE
FFF0001FFE
FFF0001FFE
FFF0001FFE
FFF0001FFE
FFF0001FFE
FFF0001FFE
FFF0001FFE
FFF0001FFE
FFF0001FFE
FFF0001FFE
FFF0001FFE
FFF0001FFE
FFF0003FFE
FFF0007FFE
FFFFFFFFFE
FFFFFFFFFE
FFFFFFFFFE
FFFFFFFFFE
FFFFFFFFFC
FFFFFFFFF8
FFFFFFFFF8
FFFFFFFFF0
FFFFFFFFE0
FFFFFFFFE0
FFFFFFFFC0
FFFFFFFF80
ENDCHAR
STARTCHAR 0045
ENCODING 69
SWIDTH 540 0
DWIDTH 42 0
BBX 36 54 3 0
BITMAP
FFFFFFFE00
FFFFFFFE00
FFFFFFFF00
FFFFFFFF80
FFFFFFFFC0
FFFFFFFFC0
FFFFFFFFE0
FFFFFFFFF0
FFFFFFFFF0
FFFFFFFFF0
FFFFFFFFF0
FFFFFFFFF0
FFF0007FF0
FFF0003FF0
FFF0000000
FFF0000000
FFF0000000
FFF0000000
FFF0000000
FFF0000000
FFF0000000
FFF0000000
FFFFFFE000
FFFFFFE000
FFFFFFE000
FFFFFFE000
FFFFFFE000
FFFFFFE000
FFFFFFE000
FFFFFFE000
FFFFFFE000
FFF0000000
FFF0000000
FFF0000000
FFF0000000
FFF0000000
FFF0000000
FFF0000000
FFF0000000
FFF0001FF0
FFF0003FF0
FFF0007FF0
FFFFFFFFF0
FFFFFFFFF0
FFFFFFFFF0
FFFFFFFFF0
FFFFFFFFE0
FFFFFFFFE0
FFFFFFFFC0
FFFFFFFF80
FFFFFFFF00
FFFFFFFF00
FFFFFFFE00
FFFFFFFC00
ENDCHAR
STARTCHAR 0046
ENCODING 70
SWIDTH 501 0
DWIDTH 39 0
BBX 34 54 3 0
BITMAP
FFFFFFFC00
FFFFFFFC00
FFFFFFFE00
FFFFFFFE00
FFFFFFFF00
FFFFFFFF00
FFFFFFFF80
FFFFFFFF80
FFFFFFFFC0
FFFFFFFFC0
FFFFFFFFC0
FFFFFFFFC0
FFF000FFC0
FFF000FFC0
FFF0000000
FFF0000000
FFF0000000
FFF0000000
FFF0000000
FFF0000000
FFF0000000
FFF0000000
FFF0000000
FFF0000000
FFFFFFFC00
FFFFFFFC00
FFFFFFFC00
FFFFFFFC00
FFFFFFFC00
FFFFFFFC00
FFFFFFFC00
FFFFFFFC00
FFFFFFFC00
FFFFFFFC00
FFFFFFFC00
FFF0000000
FFF0000000
FFF0000000
FFF0000000
FFF0000000
FFF0000000
FFF0000000
FFF0000000
FFF0000000
FFF0000000
FFF0000000
FFF0000000
FFF0000000
FFF0000000
FFF0000000
FFF0000000
FFF0000000
FFF0000000
FFF0000000
ENDCHAR
STARTCHAR 0047
ENCODING 71
SWIDTH 552 0
DWIDTH 43 0
BBX 37 54 3 0
BITMAP
FFFFFFFF00
FFFFFFFF00
FFFFFFFF80
FFFFFFFFC0
FFFFFFFFC0
FFFFFFFFE0
FFFFFFFFF0
FFFFFFFFF8
FFFFFFFFF8
FFFFFFFFF8
FFFFFFFFF8
FFFFFFFFF8
FFF0003FF8
FFF0003FF8
FFF0000000
FFF0000000
FFF0000000
FFF0000000
FFF0000000
FFF0000000
FFF0000000
FFF0000000
FFF0000000
FFF03FFFF8
FFF03FFFF8
FFF03FFFF8
FFF03FFFF8
FFF03FFFF8
FFF03FFFF8
FFF03FFFF8
FFF03FFFF8
FFF03FFFF8
FFF03FFFF8
FFF03FFFF8
FFF03FFFF8
FFF0007FF8
FFF0007FF8
FFF0007FF8
FFF0007FF8
FFF0007FF8
FFF0007FF8
FFF0007FF8
FFFFFFFFF8
FFFFFFFFF8
FFFFFFFFF8
FFFFFFFFF8
FFFFFFFFF8
FFFFFFFFF8
FFFFFFFFF8
FFFFFFFFF8
FFFFFFFFF8
FFFFFFFFF8
FFFFFFF3F8
FFFFFFF1F8
ENDCHAR
STARTCHAR 0048
ENCODING 72
SWIDTH 578 0
DWIDTH 45 0
BBX 39 54 3 0
BITMAP
FFF0001FFE
FFF0001FFE
FFF0001FFE
FFF0001FFE
FFF0001FFE
FFF0001FFE
FFF0001FFE
FFF0001FFE
FFF0001FFE
FFF0001FFE
FFF0001FFE
FFF0001FFE
FFF0001FFE
FFF0001FFE
FFF0001FFE
FFF0001FFE
FFF0001FFE
FFF8001FFE
FFF8003FFE
FFFC007FFE
FFFFFFFFFE
FFFFFFFFFE
FFFFFFFFFE
FFFFFFFFFE
FFFFFFFFFE
FFFFFFFFFE
FFFFFFFFFE
FFFFFFFFFE
FFFFFFFFFE
FFFFFFFFFE
FFFFFFFFFE
FFFFFFFFFE
FFFC007FFE
FFF8003FFE
FFF0001FFE
FFF0001FFE
FFF0001FFE
FFF0001FFE
FFF0001FFE
FFF0001FFE
FFF0001FFE
FFF0001FFE
FFF0001FFE
FFF0001FFE
FFF0001FFE
FFF0001FFE
FFF0001FFE
FFF0001FFE
FFF0001FFE
FFF0001FFE
FFF0001FFE
FFF0001FFE
FFF0001FFE
FFF0001FFE
ENDCHAR
STARTCHAR 0049
ENCODING 73
SWIDTH 231 0
DWIDTH 18 0
BBX 12 54 3 0
BITMAP
FFF0
FFF0
FFF0
FFF0
FFF0
FFF0
FFF0
FFF0
FFF0
FFF0
FFF0
FFF0
FFF0
FFF0
FFF0
FFF0
FFF0
FFF0
FFF0
FFF0
FFF0
FFF0
FFF0
FFF0
FFF0
FFF0
FFF0
FFF0
FFF0
FFF0
FFF0
FFF0
FFF0
FFF0
FFF0
FFF0
FFF0
FFF0
FFF0
FFF0
FFF0
FFF0
FFF0
FFF0
FFF0
FFF0
FFF0
FFF0
FFF0
FFF0
FFF0
FFF0
FFF0
FFF0
ENDCHAR
STARTCHAR 004A
ENCODING 74
SWIDTH 501 0
DWIDTH 39 0
BBX 34 54 3 0
BITMAP
03FFFFFFC0
03FFFFFFC0
03FFFFFFC0
03FFFFFFC0
03FFFFFFC0
03FFFFFFC0
03FFFFFFC0
03FFFFFFC0
03FFFFFFC0
03FFFFFFC0
03FFFFFFC0
03FFFFFFC0
000007FFC0
000007FFC0
000007FFC0
000007FFC0
000007FFC0
000007FFC0
000007FFC0
000007FFC0
000007FFC0
000007FFC0
000007FFC0
000007FFC0
000007FFC0
000007FFC0
000007FFC0
000007FFC0
000007FFC0
000007FFC0
000007FFC0
000007FFC0
000007FFC0
000007FFC0
000007FFC0
000007FFC0
000007FFC0
000007FFC0
000007FFC0
FFF007FFC0
FFF807FFC0
FFFC07FFC0
FFFFFFFFC0
FFFFFFFFC0
FFFFFFFFC0
FFFFFFFFC0
7FFFFFFFC0
3FFFFFFFC0
3FFFFFFFC0
1FFFFFFFC0
0FFFFFFFC0
07FFFFFFC0
07FFFFFFC0
03FFFFFFC0
ENDCHAR
STARTCHAR 004B
ENCODING 75
SWIDTH 565 0
DWIDTH 44 0
BBX 39 54 3 0
BITMAP
FFF0003FFE
FFF0007FFE
FFF0007FFE
FFF000FFFE
FFF001FFFE
FFF001FFFE
FFF003FFFC
FFF007FFF8
FFF007FFF8
FFF00FFFF0
FFF01FFFE0
FFF01FFFC0
FFF03FFFC0
FFF07FFF80
FFF0FFFF00
FFF0FFFE00
FFF1FFFE00
FFF3FFFC00
FFF3FFF800
FFF7FFF800
FFFFFFF000
FFFFFFE000
FFFFFFC000
FFFFFFC000
FFFFFF8000
FFFFFF0000
FFFFFE0000
FFFFFE0000
FFFFFF0000
FFFFFF8000
FFFFFFC000
FFFFFFC000
FFFFFFE000
FFF7FFF000
FFF7FFF800
FFF3FFF800
FFF1FFFC00
FFF0FFFE00
FFF0FFFF00
FFF07FFF00
FFF03FFF80
FFF03FFFC0
FFF01FFFE0
FFF00FFFE0
FFF00FFFF0
FFF007FFF8
FFF003FFFC
FFF001FFFC
FFF001FFFE
FFF000FFFE
FFF0007FFE
FFF0007FFE
FFF0003FFE
FFF0001FFE
ENDCHAR
STARTCHAR 004C
ENCODING 76
SWIDTH 411 0
DWIDTH 32 0
BBX 29 54 3 0
BITMAP
FFF00000
FFF00000
FFF00000
FFF00000
FFF00000
FFF00000
FFF00000
FFF00000
FFF00000
FFF00000
FFF00000
FFF00000
FFF00000
FFF00000
FFF00000
FFF00000
FFF00000
FFF00000
FFF00000
FFF00000
FFF00000
FFF00000
FFF00000
FFF00000
FFF00000
FFF00000
FFF00000
FFF00000
FFF00000
FFF00000
FFF00000
FFF00000
FFF00000
FFF00000
FFF00000
FFF00000
FFF00000
FFF00000
FFF00000
FFF00000
FFF80000
FFFC0000
FFFFFFF8
FFFFFFF8
FFFFFFF8
FFFFFFF8
FFFFFFF0
FFFFFFF0
FFFFFFE0
FFFFFFC0
FFFFFFC0
FFFFFF80
FFFFFF00
FFFFFE00
ENDCHAR
STARTCHAR 004D
ENCODING 77
SWIDTH 694 0
DWIDTH 54 0
BBX 48 54 3 0
BITMAP
03FFE007FFC0
07FFF00FFFE0
0FFFF00FFFF0
1FFFF00FFFF8
1FFFF00FFFF8
3FFFF00FFFFC
7FFFF00FFFFE
7FFFF80FFFFE
FFFFF81FFFFF
FFFFF81FFFFF
FFFFF81FFFFF
FFFFF81FFFFF
FFFFF81FFFFF
FFFFF81FFFFF
FFFFFC3FFFFF
FFFFFC3FFFFF
FFFFFC3FFFFF
FFF3FC3FCFFF
FFF3FC3FCFFF
FFF3FC3FCFFF
FFF1FE3F8FFF
FFF1FE7F8FFF
FFF1FE7F8FFF
FFF1FE7F8FFF
FFF1FE7F8FFF
FFF1FE7F8FFF
FFF0FE7F8FFF
FFF0FFFF0FFF
FFF0FFFF0FFF
FFF0FFFF0FFF
FFF0FFFF0FFF
FFF0FFFF0FFF
FFF0FFFF0FFF
FFF07FFE0FFF
FFF07FFE0FFF
FFF07FFE0FFF
FFF07FFE0FFF
FFF07FFE0FFF
FFF07FFE0FFF
FFF03FFC0FFF
FFF01FF80FFF
FFF000000FFF
FFF000000FFF
FFF000000FFF
FFF000000FFF
FFF000000FFF
FFF000000FFF
FFF000000FFF
FFF000000FFF
FFF000000FFF
FFF000000FFF
FFF000000FFF
FFF000000FFF
FFF000000FFF
ENDCHAR
STARTCHAR 004E
ENCODING 78
SWIDTH 565 0
DWIDTH 44 0
BBX 38 54 3 0
BITMAP
03F8003FFC
07F8003FFC
0FFC003FFC
1FFC003FFC
1FFC003FFC
3FFE003FFC
7FFE003FFC
7FFF003FFC
FFFF003FFC
FFFF803FFC
FFFF803FFC
FFFFC03FFC
FFFFC03FFC
FFFFC03FFC
FFFFE03FFC
FFFFE03FFC
FFFFF03FFC
FFFFF03FFC
FFFFF83FFC
FFFFF83FFC
FFFFFC3FFC
FFFFFC3FFC
FFFFFC3FFC
FFFFFE3FFC
FFFFFE3FFC
FFFFFF3FFC
FFFFFF3FFC
FFF3FFFFFC
FFF1FFFFFC
FFF1FFFFFC
FFF0FFFFFC
FFF0FFFFFC
FFF07FFFFC
FFF07FFFFC
FFF03FFFFC
FFF03FFFFC
FFF03FFFFC
FFF01FFFFC
FFF01FFFFC
FFF00FFFFC
FFF00FFFFC
FFF007FFFC
FFF007FFFC
FFF003FFFC
FFF003FFFC
FFF001FFFC
FFF001FFFC
FFF001FFF8
FFF000FFF0
FFF000FFE0
FFF0007FE0
FFF0007FC0
FFF0003F80
FFF0003F80
ENDCHAR
STARTCHAR 004F
ENCODING 79
SWIDTH 617 0
DWIDTH 48 0
BBX 42 54 3 0
BITMAP
03FFFFFFF800
07FFFFFFF800
0FFFFFFFFC00
1FFFFFFFFE00
1FFFFFFFFE00
3FFFFFFFFF00
7FFFFFFFFF80
7FFFFFFFFFC0
FFFFFFFFFFC0
FFFFFFFFFFC0
FFFFFFFFFFC0
FFFFFFFFFFC0
FFF80007FFC0
FFF80007FFC0
FFF00003FFC0
FFF00003FFC0
FFF00003FFC0
FFF00003FFC0
FFF00003FFC0
FFF00003FFC0
FFF00003FFC0
FFF00003FFC0
FFF00003FFC0
FFF00003FFC0
FFF00003FFC0
FFF00003FFC0
FFF00003FFC0
FFF00003FFC0
FFF00003FFC0
FFF00003FFC0
FFF00003FFC0
FFF00003FFC0
FFF00003FFC0
FFF00003FFC0
FFF00003FFC0
FFF00003FFC0
FFF00003FFC0
FFF00003FFC0
FFF00003FFC0
FFF00003FFC0
FFF80007FFC0
FFFC000FFFC0
FFFFFFFFFFC0
FFFFFFFFFFC0
FFFFFFFFFFC0
FFFFFFFFFFC0
7FFFFFFFFF80
3FFFFFFFFF80
3FFFFFFFFF00
1FFFFFFFFE00
0FFFFFFFFC00
07FFFFFFFC00
07FFFFFFF800
03FFFFFFF000
ENDCHAR
STARTCHAR 0050
ENCODING 80
SWIDTH 540 0
DWIDTH 42 0
BBX 36 54 3 0
BITMAP
FFFFFFFE00
FFFFFFFE00
FFFFFFFF00
FFFFFFFF80
FFFFFFFF80
FFFFFFFFC0
FFFFFFFFE0
FFFFFFFFF0
FFFFFFFFF0
FFFFFFFFF0
FFFFFFFFF0
FFFFFFFFF0
FFF001FFF0
FFF001FFF0
FFF000FFF0
FFF000FFF0
FFF000FFF0
FFF000FFF0
FFF000FFF0
FFF000FFF0
FFF000FFF0
FFF000FFF0
FFF001FFF0
FFF003FFF0
FFFFFFFFF0
FFFFFFFFF0
FFFFFFFFF0
FFFFFFFFF0
FFFFFFFFE0
FFFFFFFFE0
FFFFFFFFC0
FFFFFFFF80
FFFFFFFF00
FFFFFFFF00
FFFFFFFE00
FFFFFFFC00
FFF0000000
FFF0000000
FFF0000000
FFF0000000
FFF0000000
FFF0000000
FFF0000000
FFF0000000
FFF0000000
FFF0000000
FFF0000000
FFF0000000
FFF0000000
FFF0000000
FFF0000000
FFF0000000
FFF0000000
FFF0000000
ENDCHAR
STARTCHAR 0051
ENCODING 81
SWIDTH 642 0
DWIDTH 50 0
BBX 47 55 3 -1
BITMAP
03FFFFFFF800
07FFFFFFF800
0FFFFFFFFC00
1FFFFFFFFE00
1FFFFFFFFE00
3FFFFFFFFF00
7FFFFFFFFF80
7FFFFFFFFFC0
FFFFFFFFFFC0
FFFFFFFFFFC0
FFFFFFFFFFC0
FFFFFFFFFFC0
FFF80007FFC0
FFF80007FFC0
FFF00003FFC0
FFF00003FFC0
FFF00003FFC0
FFF00003FFC0
FFF00003FFC0
FFF00003FFC0
FFF00003FFC0
FFF00003FFC0
FFF00003FFC0
FFF00003FFC0
FFF00003FFC0
FFF00003FFC0
FFF00003FFC0
FFF00003FFC0
FFF00003FFC0
FFF00003FFC0
FFF00003FFC0
FFF00003FFC0
FFF00003FFC0
FFF00003FFC0
FFF00003FFC0
FFF00003FFC0
FFF00003FFC0
FFF00003FFC0
FFF00003FFC0
FFF00003FFC0
FFF80007FFE0
FFFC000FFFF8
FFFFFFFFFFFE
FFFFFFFFFFFE
FFFFFFFFFFFE
FFFFFFFFFFFE
7FFFFFFFFFFE
3FFFFFFFFFFE
3FFFFFFFFFFE
1FFFFFFFFFFE
0FFFFFFFFFFC
07FFFFFFFFF8
07FFFFFFFBF0
03FFFFFFF0E0
000000000060
ENDCHAR
STARTCHAR 0052
ENCODING 82
SWIDTH 540 0
DWIDTH 42 0
BBX 38 54 3 0
BITMAP
FFFFFFFC00
FFFFFFFE00
FFFFFFFF00
FFFFFFFF80
FFFFFFFF80
FFFFFFFFC0
FFFFFFFFE0
FFFFFFFFE0
FFFFFFFFF0
FFFFFFFFF0
FFFFFFFFF0
FFFFFFFFF0
FFF001FFF0
FFF001FFF0
FFF000FFF0
FFF000FFF0
FFF000FFF0
FFF000FFF0
FFF000FFF0
FFF001FFF0
FFF001FFF0
FFFFFFFFF0
FFFFFFFFE0
FFFFFFFFE0
FFFFFFFFC0
FFFFFFFF80
FFFFFFFF00
FFFFFFFF00
FFFFFFFE00
FFFFFFFC00
FFFFFFFC00
FFFFFFFC00
FFFFFFFE00
FFF03FFE00
FFF01FFF00
FFF01FFF00
FFF01FFF80
FFF00FFF80
FFF00FFF80
FFF00FFFC0
FFF007FFC0
FFF007FFE0
FFF007FFE0
FFF003FFF0
FFF003FFF0
FFF003FFF0
FFF001FFF8
FFF001FFF8
FFF000FFFC
FFF000FFFC
FFF000FFFC
FFF0007FFC
FFF0007FFC
FFF0007FFC
ENDCHAR
STARTCHAR 0053
ENCODING 83
SWIDTH 540 0
DWIDTH 42 0
BBX 36 54 3 0
BITMAP
7FFFFFFE00
7FFFFFFE00
FFFFFFFF00
FFFFFFFF80
FFFFFFFF80
FFFFFFFFC0
FFFFFFFFE0
FFFFFFFFF0
FFFFFFFFF0
FFFFFFFFF0
FFFFFFFFF0
FFFFFFFFF0
FFF0007FF0
FFF8003FF0
FFFC000000
FFFE000000
FFFF000000
7FFF800000
3FFFC00000
1FFFE00000
0FFFF00000
07FFF80000
03FFFC0000
01FFFE0000
00FFFF0000
007FFF8000
003FFFC000
001FFFE000
000FFFF000
0007FFF800
0003FFFC00
0001FFFE00
0000FFFF00
00007FFF80
00003FFFC0
00001FFFE0
00000FFFF0
00000FFFF0
000007FFF0
FFC003FFF0
FFE001FFF0
FFF000FFF0
FFFFFFFFF0
FFFFFFFFF0
FFFFFFFFF0
FFFFFFFFF0
7FFFFFFFF0
3FFFFFFFF0
3FFFFFFFF0
1FFFFFFFF0
0FFFFFFFF0
07FFFFFFF0
07FFFFFFE0
03FFFFFFC0
ENDCHAR
STARTCHAR 0054
ENCODING 84
SWIDTH 527 0
DWIDTH 41 0
BBX 41 54 0 0
BITMAP
03FFFFFFF000
07FFFFFFF000
0FFFFFFFF800
1FFFFFFFFC00
1FFFFFFFFE00
3FFFFFFFFE00
7FFFFFFFFF00
7FFFFFFFFF80
FFFFFFFFFF80
FFFDFFFFFF80
FFF9FFEFFF80
FFF1FFE3FF80
FFC1FFE1FF80
FF81FFE0FF80
FF01FFE03F80
0001FFE00000
0001FFE00000
0001FFE00000
0001FFE00000
0001FFE00000
0001FFE00000
0001FFE00000
0001FFE00000
0001FFE00000
0001FFE00000
0001FFE00000
0001FFE00000
0001FFE00000
0001FFE00000
0001FFE00000
0001FFE00000
0001FFE00000
0001FFE00000
0001FFE00000
0001FFE00000
0001FFE00000
0001FFE00000
0001FFE00000
0001FFE00000
0001FFE00000
0001FFE00000
0001FFE00000
0001FFE00000
0001FFE00000
0001FFE00000
0001FFE00000
0001FFE00000
0001FFE00000
0001FFE00000
0001FFE00000
0001FFE00000
0001FFE00000
0001FFE00000
0001FFE00000
ENDCHAR
STARTCHAR 0055
ENCODING 85
SWIDTH 604 0
DWIDTH 47 0
BBX 42 54 3 0
BITMAP
FFF00003FFC0
FFF00003FFC0
FFF00003FFC0
FFF00003FFC0
FFF00003FFC0
FFF00003FFC0
FFF00003FFC0
FFF00003FFC0
FFF00003FFC0
FFF00003FFC0
FFF00003FFC0
FFF00003FFC0
FFF00003FFC0
FFF00003FFC0
FFF00003FFC0
FFF00003FFC0
FFF00003FFC0
FFF00003FFC0
FFF00003FFC0
FFF00003FFC0
FFF00003FFC0
FFF00003FFC0
FFF00003FFC0
FFF00003FFC0
FFF00003FFC0
FFF00003FFC0
FFF00003FFC0
FFF00003FFC0
FFF00003FFC0
FFF00003FFC0
FFF00003FFC0
FFF00003FFC0
FFF00003FFC0
FFF00003FFC0
FFF00003FFC0
FFF00003FFC0
FFF00003FFC0
FFF00003FFC0
FFF00003FFC0
FFF00007FFC0
FFF80007FFC0
FFFC000FFFC0
FFFFFFFFFFC0
FFFFFFFFFFC0
FFFFFFFFFFC0
FFFFFFFFFF80
7FFFFFFFFF80
3FFFFFFFFF00
3FFFFFFFFE00
1FFFFFFFFE00
0FFFFFFFFC00
07FFFFFFF800
07FFFFFFF000
03FFFFFFF000
ENDCHAR
STARTCHAR 0056
ENCODING 86
SWIDTH 565 0
DWIDTH 44 0
BBX 43 54 1 0
BITMAP
FFF00001FFE0
FFF00001FFE0
FFF00001FFE0
FFF00001FFE0
FFF00001FFC0
7FF00003FFC0
7FF80003FFC0
7FF80003FFC0
7FF80003FFC0
7FF80003FF80
3FF80003FF80
3FF80007FF80
3FF80007FF80
3FFC0007FF80
3FFC0007FF00
1FFC0007FF00
1FFC0007FF00
1FFC0007FF00
1FFC000FFF00
1FFE000FFE00
0FFE000FFE00
0FFE000FFE00
0FFE000FFE00
0FFE000FFE00
0FFE001FFC00
07FE001FFC00
07FF001FFC00
07FF001FFC00
07FF001FFC00
07FF001FF800
03FF001FF800
03FF003FF800
03FF803FF800
03FF803FF800
03FF803FF000
01FF803FF000
01FF803FF000
01FF807FF000
01FF807FF000
01FFC07FE000
00FFC07FE000
00FFC07FE000
00FFFFFFE000
00FFFFFFE000
00FFFFFFC000
007FFFFFC000
007FFFFFC000
007FFFFFC000
007FFFFFC000
007FFFFF8000
003FFFFF8000
003FFFFF8000
001FFFFF0000
001FFFFE0000
ENDCHAR
STARTCHAR 0057
ENCODING 87
SWIDTH 874 0
DWIDTH 68 0
BBX 62 54 3 0
BITMAP
FFF0000000003FFC
FFF8000000003FFC
FFF8000000003FFC
FFF8000000003FFC
FFF8000000003FFC
FFF8000000007FFC
FFF8000000007FFC
FFFC000000007FFC
7FFC000000007FFC
7FFC000000007FFC
7FFC000000007FF8
7FFC00000000FFF8
3FFE00000000FFF8
3FFE00000000FFF8
3FFE00000000FFF8
3FFE001FF800FFF0
3FFE003FF801FFF0
1FFE007FFC01FFF0
1FFF007FFC01FFF0
1FFF00FFFE01FFF0
1FFF00FFFE01FFE0
1FFF00FFFE01FFE0
0FFF00FFFE03FFE0
0FFF81FFFF03FFE0
0FFF81FFFF03FFE0
0FFF81FFFF03FFC0
07FF81FFFF03FFC0
07FF83FEFF83FFC0
07FFC3FEFF87FFC0
07FFC3FEFF87FFC0
07FFC3FE7F87FF80
03FFC7FC7FC7FF80
03FFC7FC7FC7FF80
03FFC7FC7FC7FF80
03FFE7FC3FCFFF80
03FFFFF83FFFFF00
01FFFFF83FFFFF00
01FFFFF83FFFFF00
01FFFFF83FFFFF00
01FFFFF81FFFFF00
00FFFFF01FFFFE00
00FFFFF01FFFFE00
00FFFFF01FFFFE00
00FFFFF01FFFFE00
00FFFFF00FFFFE00
007FFFE00FFFFC00
007FFFE00FFFFC00
007FFFE00FFFFC00
007FFFE00FFFFC00
007FFFE007FFFC00
003FFFC007FFF800
003FFFC007FFF800
003FFFC007FFF800
003FFFC007FFF800
ENDCHAR
STARTCHAR 0058
ENCODING 88
SWIDTH 604 0
DWIDTH 47 0
BBX 42 54 3 0
BITMAP
FFF00003FFC0
FFF80007FFC0
FFF80007FFC0
FFF8000FFFC0
FFFC000FFFC0
FFFC000FFFC0
7FFE001FFF80
7FFE001FFF80
3FFE003FFF00
3FFF003FFF00
1FFF007FFE00
1FFF807FFE00
0FFF80FFFC00
0FFFC0FFFC00
07FFC0FFF800
07FFC1FFF800
03FFE1FFF000
03FFE3FFF000
01FFF3FFE000
01FFF7FFE000
00FFF7FFC000
00FFFFFFC000
007FFFFF8000
007FFFFF8000
003FFFFF0000
003FFFFF0000
007FFFFF8000
007FFFFF8000
00FFFFFF8000
00FFFFFFC000
00FFFFFFC000
01FFFFFFE000
01FFFFFFE000
03FFF7FFF000
03FFF3FFF000
07FFE3FFF000
07FFE1FFF800
07FFE1FFF800
0FFFC1FFFC00
0FFFC0FFFC00
1FFF80FFFE00
1FFF807FFE00
3FFF007FFE00
3FFF003FFF00
3FFF003FFF00
7FFE003FFF80
7FFE001FFF80
FFFC001FFFC0
FFFC000FFFC0
FFFC000FFFC0
FFF80007FFC0
FFF80007FFC0
FFF00007FFC0
FFF00003FFC0
ENDCHAR
STARTCHAR 0059
ENCODING 89
SWIDTH 462 0
DWIDTH 36 0
BBX 36 54 0 0
BITMAP
FFF0007FF0
FFF0007FF0
FFF000FFF0
FFF800FFF0
FFF800FFF0
FFF801FFF0
7FFC01FFF0
7FFC01FFE0
3FFC03FFE0
3FFE03FFE0
1FFE03FFC0
1FFE07FFC0
1FFF07FF80
0FFF07FF80
0FFF0FFF00
07FF8FFF00
07FF8FFE00
03FFDFFE00
03FFDFFE00
01FFDFFC00
01FFFFFC00
01FFFFF800
00FFFFF800
00FFFFF000
007FFFF000
007FFFF000
003FFFE000
003FFFE000
001FFFC000
001FFFC000
001FFF8000
000FFF8000
000FFF0000
000FFF0000
000FFF0000
000FFF0000
000FFF0000
000FFF0000
000FFF0000
000FFF0000
000FFF0000
000FFF0000
000FFF0000
000FFF0000
000FFF0000
000FFF0000
000FFF0000
000FFF0000
000FFF0000
000FFF0000
000FFF0000
000FFF0000
000FFF0000
000FFF0000
ENDCHAR
STARTCHAR 005A
ENCODING 90
SWIDTH 565 0
DWIDTH 44 0
BBX 38 54 3 0
BITMAP
FFFFFFFF80
FFFFFFFF80
FFFFFFFFC0
FFFFFFFFE0
FFFFFFFFE0
FFFFFFFFF0
FFFFFFFFF8
FFFFFFFFFC
FFFFFFFFFC
7FFFFFFFF8
7FFFFFFFF8
3FFFFFFFF0
00000FFFE0
00000FFFE0
00001FFFC0
00003FFFC0
00003FFF80
00007FFF00
0000FFFF00
0000FFFE00
0001FFFE00
0001FFFC00
0003FFF800
0007FFF800
0007FFF000
000FFFF000
000FFFE000
001FFFC000
003FFFC000
003FFF8000
007FFF0000
007FFF0000
00FFFE0000
01FFFE0000
01FFFC0000
03FFF80000
07FFF80000
07FFF00000
0FFFF00000
0FFFE00000
1FFFC00000
3FFFC00000
3FFFFFFFF8
7FFFFFFFF8
7FFFFFFFFC
FFFFFFFFFC
7FFFFFFFFC
3FFFFFFFFC
3FFFFFFFFC
1FFFFFFFFC
0FFFFFFFFC
07FFFFFFFC
07FFFFFFFC
03FFFFFFFC
ENDCHAR
STARTCHAR 005B
ENCODING 91
SWIDTH 244 0
DWIDTH 19 0
BBX 16 61 2 -4
BITMAP
FFFF
FFFF
FFFF
FFFF
FFFF
FFFE
FFFC
FE00
FE00
FE00
FE00
FE00
FE00
FE00
FE00
FE00
FE00
FE00
FE00
FE00
FE00
FE00
FE00
FE00
FE00
FE00
FE00
FE00
FE00
FE00
FE00
FE00
FE00
FE00
FE00
FE00
FE00
FE00
FE00
FE00
FE00
FE00
FE00
FE00
FE00
FE00
FE00
FE00
FE00
FE00
FE00
FE00
FE00
FFFC
FFFE
FFFE
FFFF
FFFF
FFFF
FFFF
FFFF
ENDCHAR
STARTCHAR 005C
ENCODING 92
SWIDTH 257 0
DWIDTH 20 0
BBX 24 62 -2 -4
BITMAP
FF0000
FF0000
7F8000
7F8000
7F8000
7F8000
3FC000
3FC000
3FC000
3FC000
1FE000
1FE000
1FE000
1FE000
0FF000
0FF000
0FF000
07F800
07F800
07F800
07F800
03FC00
03FC00
03FC00
03FC00
01FE00
01FE00
01FE00
01FE00
00FF00
00FF00
00FF00
00FF80
007F80
007F80
007F80
007FC0
003FC0
003FC0
003FC0
001FE0
001FE0
001FE0
001FE0
000FF0
000FF0
000FF0
000FF8
0007F8
0007F8
0007F8
0007FC
0003FC
0003FC
0003FC
0003FE
0001FE
0001FE
0001FE
0000FF
0000FF
0000FF
ENDCHAR
STARTCHAR 005D
ENCODING 93
SWIDTH 244 0
DWIDTH 19 0
BBX 16 61 2 -4
BITMAP
FFFF
FFFF
FFFF
FFFF
FFFF
FFFF
7FFF
00FF
00FF
00FF
00FF
00FF
00FF
00FF
00FF
00FF
00FF
00FF
00FF
00FF
00FF
00FF
00FF
00FF
00FF
00FF
00FF
00FF
00FF
00FF
00FF
00FF
00FF
00FF
00FF
00FF
00FF
00FF
00FF
00FF
00FF
00FF
00FF
00FF
00FF
00FF
00FF
00FF
00FF
00FF
00FF
00FF
00FF
7FFF
FFFF
FFFF
FFFF
FFFF
FFFF
FFFF
FFFF
ENDCHAR
STARTCHAR 005E
ENCODING 94
SWIDTH 578 0
DWIDTH 45 0
BBX 42 27 2 27
BITMAP
0003FFF00000
0007FFF00000
0007FFF80000
000FFFFC0000
000FFFFC0000
001FFFFE0000
001FFFFE0000
003FF3FF0000
003FE1FF0000
007FE1FF8000
00FFC0FF8000
00FFC0FFC000
01FF807FC000
01FF807FE000
03FF007FE000
03FF003FF000
07FE003FF000
07FE001FF800
0FFC001FFC00
0FFC000FFC00
1FF8000FFE00
1FF80007FE00
3FF00007FF00
3FF00003FF00
7FE00003FF80
FFE00001FF80
FFC00001FFC0
ENDCHAR
STARTCHAR 005F
ENCODING 95
SWIDTH 424 0
DWIDTH 33 0
BBX 30 8 2 0
BITMAP
FFFFFFFC
FFFFFFFC
FFFFFFFC
FFFFFFFC
FFFFFFFC
FFFFFFFC
FFFFFFFC
FFFFFFFC
ENDCHAR
STARTCHAR 0060
ENCODING 96
SWIDTH 398 0
DWIDTH 31 0
BBX 27 9 2 57
BITMAP
F8000000
FFC00000
FFFE0000
FFFFF000
FFFFFF80
FFFFFFE0
1FFFFFE0
0007FFE0
00000020
ENDCHAR
STARTCHAR 0061
ENCODING 97
SWIDTH 578 0
DWIDTH 45 0
BBX 44 54 1 0
BITMAP
001FFFFF0000
001FFFFF8000
003FFFFFC000
003FFFFFC000
003FFFFFC000
007FFFFFC000
007FFFFFC000
007FFFFFE000
007FFFFFE000
007FFFFFE000
00FFFFFFE000
00FFFFFFE000
00FFC07FF000
00FFC07FF000
00FFC03FF000
01FFC03FF000
01FFC03FF000
01FF803FF800
01FF803FF800
01FF803FF800
03FF801FF800
03FF801FF800
03FF801FFC00
03FF801FFC00
03FF001FFC00
07FF001FFC00
07FF001FFC00
07FF000FFE00
07FF000FFE00
07FF000FFE00
0FFE000FFE00
0FFE000FFE00
0FFF000FFF00
0FFF801FFF00
0FFFFFFFFF00
1FFFFFFFFF00
1FFFFFFFFF00
1FFFFFFFFF80
1FFFFFFFFF80
1FFFFFFFFF80
3FFFFFFFFF80
3FFDFFFBFF80
3FFCFFF3FFC0
3FFC0003FFC0
3FF80003FFC0
7FF80003FFC0
7FF80003FFC0
7FF80001FFE0
7FF80001FFE0
7FF80001FFE0
FFF00001FFE0
FFF00001FFE0
FFF00001FFF0
FFF00000FFF0
ENDCHAR
STARTCHAR 0062
ENCODING 98
SWIDTH 578 0
DWIDTH 45 0
BBX 39 54 3 0
BITMAP
FFFFFFFF80
FFFFFFFFC0
FFFFFFFFE0
FFFFFFFFF0
FFFFFFFFF0
FFFFFFFFF8
FFFFFFFFFC
FFFFFFFFFC
FFFFFFFFFE
FFFFFFFFFE
FFF0007FFE
FFF0003FFE
FFF0001FFE
FFF0001FFE
FFF0001FFE
FFF0001FFE
FFF0001FFE
FFF0001FFE
FFF0001FFE
FFF0003FFE
FFF0003FFE
FFF0007FFE
FFFFFFFFFE
FFFFFFFFFC
FFFFFFFFF8
FFFFFFFFE0
FFFFFFFFE0
FFFFFFFFF0
FFFFFFFFF8
FFFFFFFFFE
FFFFFFFFFE
FFFFFFFFFE
FFF0007FFE
FFF0003FFE
FFF0001FFE
FFF0001FFE
FFF0001FFE
FFF0001FFE
FFF0001FFE
FFF0001FFE
FFF0001FFE
FFF0003FFE
FFF0003FFE
FFFFFFFFFE
FFFFFFFFFE
FFFFFFFFFE
FFFFFFFFFC
FFFFFFFFF8
FFFFFFFFF8
FFFFFFFFF0
FFFFFFFFE0
FFFFFFFFE0
FFFFFFFFC0
FFFFFFFF80
ENDCHAR
STARTCHAR 0063
ENCODING 99
SWIDTH 540 0
DWIDTH 42 0
BBX 36 54 3 0
BITMAP
FFFFFFFE00
FFFFFFFF00
FFFFFFFF00
FFFFFFFF80
FFFFFFFFC0
FFFFFFFFC0
FFFFFFFFE0
FFFFFFFFF0
FFFFFFFFF0
FFFFFFFFF0
FFFFFFFFF0
FFFFFFFFF0
FFF000FFF0
FFF000FFF0
FFF0000000
FFF0000000
FFF0000000
FFF0000000
FFF0000000
FFF0000000
FFF0000000
FFF0000000
FFF0000000
FFF0000000
FFF0000000
FFF0000000
FFF0000000
FFF0000000
FFF0000000
FFF0000000
FFF0000000
FFF0000000
FFF0000000
FFF0000000
FFF0000000
FFF0000000
FFF0000000
FFF0000000
FFF0000000
FFF0007FF0
FFF000FFF0
FFF001FFF0
FFFFFFFFF0
FFFFFFFFF0
FFFFFFFFF0
FFFFFFFFF0
FFFFFFFFF0
FFFFFFFFE0
FFFFFFFFC0
FFFFFFFF80
FFFFFFFF80
FFFFFFFF00
FFFFFFFE00
FFFFFFFE00
ENDCHAR
STARTCHAR 0064
ENCODING 100
SWIDTH 578 0
DWIDTH 45 0
BBX 39 54 3 0
BITMAP
FFFFFFFF80
FFFFFFFFC0
FFFFFFFFE0
FFFFFFFFF0
FFFFFFFFF0
FFFFFFFFF8
FFFFFFFFFC
FFFFFFFFFC
FFFFFFFFFE
FFFFFFFFFE
FFFFFFFFFE
FFFFFFFFFE
FFF0003FFE
FFF0003FFE
FFF0001FFE
FFF0001FFE
FFF0001FFE
FFF0001FFE
FFF0001FFE
FFF0001FFE
FFF0001FFE
FFF0001FFE
FFF0001FFE
FFF0001FFE
FFF0001FFE
FFF0001FFE
FFF0001FFE
FFF0001FFE
FFF0001FFE
FFF0001FFE
FFF0001FFE
FFF0001FFE
FFF0001FFE
FFF0001FFE
FFF0001FFE
FFF0001FFE
FFF0001FFE
FFF0001FFE
FFF0001FFE
FFF0001FFE
FFF0003FFE
FFF0007FFE
FFFFFFFFFE
FFFFFFFFFE
FFFFFFFFFE
FFFFFFFFFE
FFFFFFFFFC
FFFFFFFFF8
FFFFFFFFF8
FFFFFFFFF0
FFFFFFFFE0
FFFFFFFFE0
FFFFFFFFC0
FFFFFFFF80
ENDCHAR
STARTCHAR 0065
ENCODING 101
SWIDTH 540 0
DWIDTH 42 0
BBX 36 54 3 0
BITMAP
FFFFFFFE00
FFFFFFFE00
FFFFFFFF00
FFFFFFFF80
FFFFFFFFC0
FFFFFFFFC0
FFFFFFFFE0
FFFFFFFFF0
FFFFFFFFF0
FFFFFFFFF0
FFFFFFFFF0
FFFFFFFFF0
FFF0007FF0
FFF0003FF0
FFF0000000
FFF0000000
FFF0000000
FFF0000000
FFF0000000
FFF0000000
FFF0000000
FFF0000000
FFFFFFE000
FFFFFFE000
FFFFFFE000
FFFFFFE000
FFFFFFE000
FFFFFFE000
FFFFFFE000
FFFFFFE000
FFFFFFE000
FFF0000000
FFF0000000
FFF0000000
FFF0000000
FFF0000000
FFF0000000
FFF0000000
FFF0000000
FFF0001FF0
FFF0003FF0
FFF0007FF0
FFFFFFFFF0
FFFFFFFFF0
FFFFFFFFF0
FFFFFFFFF0
FFFFFFFFE0
FFFFFFFFE0
FFFFFFFFC0
FFFFFFFF80
FFFFFFFF00
FFFFFFFF00
FFFFFFFE00
FFFFFFFC00
ENDCHAR
STARTCHAR 0066
ENCODING 102
SWIDTH 501 0
DWIDTH 39 0
BBX 34 54 3 0
BITMAP
FFFFFFFC00
FFFFFFFC00
FFFFFFFE00
FFFFFFFE00
FFFFFFFF00
FFFFFFFF00
FFFFFFFF80
FFFFFFFF80
FFFFFFFFC0
FFFFFFFFC0
FFFFFFFFC0
FFFFFFFFC0
FFF000FFC0
FFF000FFC0
FFF0000000
FFF0000000
FFF0000000
FFF0000000
FFF0000000
FFF0000000
FFF0000000
FFF0000000
FFF0000000
FFF0000000
FFFFFFFC00
FFFFFFFC00
FFFFFFFC00
FFFFFFFC00
FFFFFFFC00
FFFFFFFC00
FFFFFFFC00
FFFFFFFC00
FFFFFFFC00
FFFFFFFC00
FFFFFFFC00
FFF0000000
FFF0000000
FFF0000000
FFF0000000
FFF0000000
FFF0000000
FFF0000000
FFF0000000
FFF0000000
FFF0000000
FFF0000000
FFF0000000
FFF0000000
FFF0000000
FFF0000000
FFF0000000
FFF0000000
FFF0000000
FFF0000000
ENDCHAR
STARTCHAR 0067
ENCODING 103
SWIDTH 552 0
DWIDTH 43 0
BBX 37 54 3 0
BITMAP
FFFFFFFF00
FFFFFFFF00
FFFFFFFF80
FFFFFFFFC0
FFFFFFFFC0
FFFFFFFFE0
FFFFFFFFF0
FFFFFFFFF8
FFFFFFFFF8
FFFFFFFFF8
FFFFFFFFF8
FFFFFFFFF8
FFF0003FF8
FFF0003FF8
FFF0000000
FFF0000000
FFF0000000
FFF0000000
FFF0000000
FFF0000000
FFF0000000
FFF0000000
FFF0000000
FFF03FFFF8
FFF03FFFF8
FFF03FFFF8
FFF03FFFF8
FFF03FFFF8
FFF03FFFF8
FFF03FFFF8
FFF03FFFF8
FFF03FFFF8
FFF03FFFF8
FFF03FFFF8
FFF03FFFF8
FFF0007FF8
FFF0007FF8
FFF0007FF8
FFF0007FF8
FFF0007FF8
FFF0007FF8
FFF0007FF8
FFFFFFFFF8
FFFFFFFFF8
FFFFFFFFF8
FFFFFFFFF8
FFFFFFFFF8
FFFFFFFFF8
FFFFFFFFF8
FFFFFFFFF8
FFFFFFFFF8
FFFFFFFFF8
FFFFFFF3F8
FFFFFFF1F8
ENDCHAR
STARTCHAR 0068
ENCODING 104
SWIDTH 578 0
DWIDTH 45 0
BBX 39 54 3 0
BITMAP
FFF0001FFE
FFF0001FFE
FFF0001FFE
FFF0001FFE
FFF0001FFE
FFF0001FFE
FFF0001FFE
FFF0001FFE
FFF0001FFE
FFF0001FFE
FFF0001FFE
FFF0001FFE
FFF0001FFE
FFF0001FFE
FFF0001FFE
FFF0001FFE
FFF0001FFE
FFF8001FFE
FFF8003FFE
FFFC007FFE
FFFFFFFFFE
FFFFFFFFFE
FFFFFFFFFE
FFFFFFFFFE
FFFFFFFFFE
FFFFFFFFFE
FFFFFFFFFE
FFFFFFFFFE
FFFFFFFFFE
FFFFFFFFFE
FFFFFFFFFE
FFFFFFFFFE
FFFC007FFE
FFF8003FFE
FFF0001FFE
FFF0001FFE
FFF0001FFE
FFF0001FFE
FFF0001FFE
FFF0001FFE
FFF0001FFE
FFF0001FFE
FFF0001FFE
FFF0001FFE
FFF0001FFE
FFF0001FFE
FFF0001FFE
FFF0001FFE
FFF0001FFE
FFF0001FFE
FFF0001FFE
FFF0001FFE
FFF0001FFE
FFF0001FFE
ENDCHAR
STARTCHAR 0069
ENCODING 105
SWIDTH 231 0
DWIDTH 18 0
BBX 12 54 3 0
BITMAP
FFF0
FFF0
FFF0
FFF0
FFF0
FFF0
FFF0
FFF0
FFF0
FFF0
FFF0
FFF0
FFF0
FFF0
FFF0
FFF0
FFF0
FFF0
FFF0
FFF0
FFF0
FFF0
FFF0
FFF0
FFF0
FFF0
FFF0
FFF0
FFF0
FFF0
FFF0
FFF0
FFF0
FFF0
FFF0
FFF0
FFF0
FFF0
FFF0
FFF0
FFF0
FFF0
FFF0
FFF0
FFF0
FFF0
FFF0
FFF0
FFF0
FFF0
FFF0
FFF0
FFF0
FFF0
ENDCHAR
STARTCHAR 006A
ENCODING 106
SWIDTH 501 0
DWIDTH 39 0
BBX 34 54 3 0
BITMAP
03FFFFFFC0
03FFFFFFC0
03FFFFFFC0
03FFFFFFC0
03FFFFFFC0
03FFFFFFC0
03FFFFFFC0
03FFFFFFC0
03FFFFFFC0
03FFFFFFC0
03FFFFFFC0
03FFFFFFC0
000007FFC0
000007FFC0
000007FFC0
000007FFC0
000007FFC0
000007FFC0
000007FFC0
000007FFC0
000007FFC0
000007FFC0
000007FFC0
000007FFC0
000007FFC0
000007FFC0
000007FFC0
000007FFC0
000007FFC0
000007FFC0
000007FFC0
000007FFC0
000007FFC0
000007FFC0
000007FFC0
000007FFC0
000007FFC0
000007FFC0
000007FFC0
FFF007FFC0
FFF807FFC0
FFFC07FFC0
FFFFFFFFC0
FFFFFFFFC0
FFFFFFFFC0
FFFFFFFFC0
7FFFFFFFC0
3FFFFFFFC0
3FFFFFFFC0
1FFFFFFFC0
0FFFFFFFC0
07FFFFFFC0
07FFFFFFC0
03FFFFFFC0
ENDCHAR
STARTCHAR 006B
ENCODING 107
SWIDTH 565 0
DWIDTH 44 0
BBX 39 54 3 0
BITMAP
FFF0003FFE
FFF0007FFE
FFF0007FFE
FFF000FFFE
FFF001FFFE
FFF001FFFE
FFF003FFFC
FFF007FFF8
FFF007FFF8
FFF00FFFF0
FFF01FFFE0
FFF01FFFC0
FFF03FFFC0
FFF07FFF80
FFF0FFFF00
FFF0FFFE00
FFF1FFFE00
FFF3FFFC00
FFF3FFF800
FFF7FFF800
FFFFFFF000
FFFFFFE000
FFFFFFC000
FFFFFFC000
FFFFFF8000
FFFFFF0000
FFFFFE0000
FFFFFE0000
FFFFFF0000
FFFFFF8000
FFFFFFC000
FFFFFFC000
FFFFFFE000
FFF7FFF000
FFF7FFF800
FFF3FFF800
FFF1FFFC00
FFF0FFFE00
FFF0FFFF00
FFF07FFF00
FFF03FFF80
FFF03FFFC0
FFF01FFFE0
FFF00FFFE0
FFF00FFFF0
FFF007FFF8
FFF003FFFC
FFF001FFFC
FFF001FFFE
FFF000FFFE
FFF0007FFE
FFF0007FFE
FFF0003FFE
FFF0001FFE
ENDCHAR
STARTCHAR 006C
ENCODING 108
SWIDTH 411 0
DWIDTH 32 0
BBX 29 54 3 0
BITMAP
FFF00000
FFF00000
FFF00000
FFF00000
FFF00000
FFF00000
FFF00000
FFF00000
FFF00000
FFF00000
FFF00000
FFF00000
FFF00000
FFF00000
FFF00000
FFF00000
FFF00000
FFF00000
FFF00000
FFF00000
FFF00000
FFF00000
FFF00000
FFF00000
FFF00000
FFF00000
FFF00000
FFF00000
FFF00000
FFF00000
FFF00000
FFF00000
FFF00000
FFF00000
FFF00000
FFF00000
FFF00000
FFF00000
FFF00000
FFF00000
FFF80000
FFFC0000
FFFFFFF8
FFFFFFF8
FFFFFFF8
FFFFFFF8
FFFFFFF0
FFFFFFF0
FFFFFFE0
FFFFFFC0
FFFFFFC0
FFFFFF80
FFFFFF00
FFFFFE00
ENDCHAR
STARTCHAR 006D
ENCODING 109
SWIDTH 694 0
DWIDTH 54 0
BBX 48 54 3 0
BITMAP
03FFE007FFC0
07FFF00FFFE0
0FFFF00FFFF0
1FFFF00FFFF8
1FFFF00FFFF8
3FFFF00FFFFC
7FFFF00FFFFE
7FFFF80FFFFE
FFFFF81FFFFF
FFFFF81FFFFF
FFFFF81FFFFF
FFFFF81FFFFF
FFFFF81FFFFF
FFFFF81FFFFF
FFFFFC3FFFFF
FFFFFC3FFFFF
FFFFFC3FFFFF
FFF3FC3FCFFF
FFF3FC3FCFFF
FFF3FC3FCFFF
FFF1FE3F8FFF
FFF1FE7F8FFF
FFF1FE7F8FFF
FFF1FE7F8FFF
FFF1FE7F8FFF
FFF1FE7F8FFF
FFF0FE7F8FFF
FFF0FFFF0FFF
FFF0FFFF0FFF
FFF0FFFF0FFF
FFF0FFFF0FFF
FFF0FFFF0FFF
FFF0FFFF0FFF
FFF07FFE0FFF
FFF07FFE0FFF
FFF07FFE0FFF
FFF07FFE0FFF
FFF07FFE0FFF
FFF07FFE0FFF
FFF03FFC0FFF
FFF01FF80FFF
FFF000000FFF
FFF000000FFF
FFF000000FFF
FFF000000FFF
FFF000000FFF
FFF000000FFF
FFF000000FFF
FFF000000FFF
FFF000000FFF
FFF000000FFF
FFF000000FFF
FFF000000FFF
FFF000000FFF
ENDCHAR
STARTCHAR 006E
ENCODING 110
SWIDTH 565 0
DWIDTH 44 0
BBX 38 54 3 0
BITMAP
03F8003FFC
07F8003FFC
0FFC003FFC
1FFC003FFC
1FFC003FFC
3FFE003FFC
7FFE003FFC
7FFF003FFC
FFFF003FFC
FFFF803FFC
FFFF803FFC
FFFFC03FFC
FFFFC03FFC
FFFFC03FFC
FFFFE03FFC
FFFFE03FFC
FFFFF03FFC
FFFFF03FFC
FFFFF83FFC
FFFFF83FFC
FFFFFC3FFC
FFFFFC3FFC
FFFFFC3FFC
FFFFFE3FFC
FFFFFE3FFC
FFFFFF3FFC
FFFFFF3FFC
FFF3FFFFFC
FFF1FFFFFC
FFF1FFFFFC
FFF0FFFFFC
FFF0FFFFFC
FFF07FFFFC
FFF07FFFFC
FFF03FFFFC
FFF03FFFFC
FFF03FFFFC
FFF01FFFFC
FFF01FFFFC
FFF00FFFFC
FFF00FFFFC
FFF007FFFC
FFF007FFFC
FFF003FFFC
FFF003FFFC
FFF001FFFC
FFF001FFFC
FFF001FFF8
FFF000FFF0
FFF000FFE0
FFF0007FE0
FFF0007FC0
FFF0003F80
FFF0003F80
ENDCHAR
STARTCHAR 006F
ENCODING 111
SWIDTH 617 0
DWIDTH 48 0
BBX 42 54 3 0
BITMAP
03FFFFFFF800
07FFFFFFF800
0FFFFFFFFC00
1FFFFFFFFE00
1FFFFFFFFE00
3FFFFFFFFF00
7FFFFFFFFF80
7FFFFFFFFFC0
FFFFFFFFFFC0
FFFFFFFFFFC0
FFFFFFFFFFC0
FFFFFFFFFFC0
FFF80007FFC0
FFF80007FFC0
FFF00003FFC0
FFF00003FFC0
FFF00003FFC0
FFF00003FFC0
FFF00003FFC0
FFF00003FFC0
FFF00003FFC0
FFF00003FFC0
FFF00003FFC0
FFF00003FFC0
FFF00003FFC0
FFF00003FFC0
FFF00003FFC0
FFF00003FFC0
FFF00003FFC0
FFF00003FFC0
FFF00003FFC0
FFF00003FFC0
FFF00003FFC0
FFF00003FFC0
FFF00003FFC0
FFF00003FFC0
FFF00003FFC0
FFF00003FFC0
FFF00003FFC0
FFF00003FFC0
FFF80007FFC0
FFFC000FFFC0
FFFFFFFFFFC0
FFFFFFFFFFC0
FFFFFFFFFFC0
FFFFFFFFFFC0
7FFFFFFFFF80
3FFFFFFFFF80
3FFFFFFFFF00
1FFFFFFFFE00
0FFFFFFFFC00
07FFFFFFFC00
07FFFFFFF800
03FFFFFFF000
ENDCHAR
STARTCHAR 0070
ENCODING 112
SWIDTH 540 0
DWIDTH 42 0
BBX 36 54 3 0
BITMAP
FFFFFFFE00
FFFFFFFE00
FFFFFFFF00
FFFFFFFF80
FFFFFFFF80
FFFFFFFFC0
FFFFFFFFE0
FFFFFFFFF0
FFFFFFFFF0
FFFFFFFFF0
FFFFFFFFF0
FFFFFFFFF0
FFF001FFF0
FFF001FFF0
FFF000FFF0
FFF000FFF0
FFF000FFF0
FFF000FFF0
FFF000FFF0
FFF000FFF0
FFF000FFF0
FFF000FFF0
FFF001FFF0
FFF003FFF0
FFFFFFFFF0
FFFFFFFFF0
FFFFFFFFF0
FFFFFFFFF0
FFFFFFFFE0
FFFFFFFFE0
FFFFFFFFC0
FFFFFFFF80
FFFFFFFF00
FFFFFFFF00
FFFFFFFE00
FFFFFFFC00
FFF0000000
FFF0000000
FFF0000000
FFF0000000
FFF0000000
FFF0000000
FFF0000000
FFF0000000
FFF0000000
FFF0000000
FFF0000000
FFF0000000
FFF0000000
FFF0000000
FFF0000000
FFF0000000
FFF0000000
FFF0000000
ENDCHAR
STARTCHAR 0071
ENCODING 113
SWIDTH 642 0
DWIDTH 50 0
BBX 47 55 3 -1
BITMAP
03FFFFFFF800
07FFFFFFF800
0FFFFFFFFC00
1FFFFFFFFE00
1FFFFFFFFE00
3FFFFFFFFF00
7FFFFFFFFF80
7FFFFFFFFFC0
FFFFFFFFFFC0
FFFFFFFFFFC0
FFFFFFFFFFC0
FFFFFFFFFFC0
FFF80007FFC0
FFF80007FFC0
FFF00003FFC0
FFF00003FFC0
FFF00003FFC0
FFF00003FFC0
FFF00003FFC0
FFF00003FFC0
FFF00003FFC0
FFF00003FFC0
FFF00003FFC0
FFF00003FFC0
FFF00003FFC0
FFF00003FFC0
FFF00003FFC0
FFF00003FFC0
FFF00003FFC0
FFF00003FFC0
FFF00003FFC0
FFF00003FFC0
FFF00003FFC0
FFF00003FFC0
FFF00003FFC0
FFF00003FFC0
FFF00003FFC0
FFF00003FFC0
FFF00003FFC0
FFF00003FFC0
FFF80007FFE0
FFFC000FFFF8
FFFFFFFFFFFE
FFFFFFFFFFFE
FFFFFFFFFFFE
FFFFFFFFFFFE
7FFFFFFFFFFE
3FFFFFFFFFFE
3FFFFFFFFFFE
1FFFFFFFFFFE
0FFFFFFFFFFC
07FFFFFFFFF8
07FFFFFFFBF0
03FFFFFFF0E0
000000000060
ENDCHAR
STARTCHAR 0072
ENCODING 114
SWIDTH 540 0
DWIDTH 42 0
BBX 38 54 3 0
BITMAP
FFFFFFFC00
FFFFFFFE00
FFFFFFFF00
FFFFFFFF80
FFFFFFFF80
FFFFFFFFC0
FFFFFFFFE0
FFFFFFFFE0
FFFFFFFFF0
FFFFFFFFF0
FFFFFFFFF0
FFFFFFFFF0
FFF001FFF0
FFF001FFF0
FFF000FFF0
FFF000FFF0
FFF000FFF0
FFF000FFF0
FFF000FFF0
FFF001FFF0
FFF001FFF0
FFFFFFFFF0
FFFFFFFFE0
FFFFFFFFE0
FFFFFFFFC0
FFFFFFFF80
FFFFFFFF00
FFFFFFFF00
FFFFFFFE00
FFFFFFFC00
FFFFFFFC00
FFFFFFFC00
FFFFFFFE00
FFF03FFE00
FFF01FFF00
FFF01FFF00
FFF01FFF80
FFF00FFF80
FFF00FFF80
FFF00FFFC0
FFF007FFC0
FFF007FFE0
FFF007FFE0
FFF003FFF0
FFF003FFF0
FFF003FFF0
FFF001FFF8
FFF001FFF8
FFF000FFFC
FFF000FFFC
FFF000FFFC
FFF0007FFC
FFF0007FFC
FFF0007FFC
ENDCHAR
STARTCHAR 0073
ENCODING 115
SWIDTH 540 0
DWIDTH 42 0
BBX 36 54 3 0
BITMAP
7FFFFFFE00
7FFFFFFE00
FFFFFFFF00
FFFFFFFF80
FFFFFFFF80
FFFFFFFFC0
FFFFFFFFE0
FFFFFFFFF0
FFFFFFFFF0
FFFFFFFFF0
FFFFFFFFF0
FFFFFFFFF0
FFF0007FF0
FFF8003FF0
FFFC000000
FFFE000000
FFFF000000
7FFF800000
3FFFC00000
1FFFE00000
0FFFF00000
07FFF80000
03FFFC0000
01FFFE0000
00FFFF0000
007FFF8000
003FFFC000
001FFFE000
000FFFF000
0007FFF800
0003FFFC00
0001FFFE00
0000FFFF00
00007FFF80
00003FFFC0
00001FFFE0
00000FFFF0
00000FFFF0
000007FFF0
FFC003FFF0
FFE001FFF0
FFF000FFF0
FFFFFFFFF0
FFFFFFFFF0
FFFFFFFFF0
FFFFFFFFF0
7FFFFFFFF0
3FFFFFFFF0
3FFFFFFFF0
1FFFFFFFF0
0FFFFFFFF0
07FFFFFFF0
07FFFFFFE0
03FFFFFFC0
ENDCHAR
STARTCHAR 0074
ENCODING 116
SWIDTH 527 0
DWIDTH 41 0
BBX 41 54 0 0
BITMAP
03FFFFFFF000
07FFFFFFF000
0FFFFFFFF800
1FFFFFFFFC00
1FFFFFFFFE00
3FFFFFFFFE00
7FFFFFFFFF00
7FFFFFFFFF80
FFFFFFFFFF80
FFFDFFFFFF80
FFF9FFEFFF80
FFF1FFE3FF80
FFC1FFE1FF80
FF81FFE0FF80
FF01FFE03F80
0001FFE00000
0001FFE00000
0001FFE00000
0001FFE00000
0001FFE00000
0001FFE00000
0001FFE00000
0001FFE00000
0001FFE00000
0001FFE00000
0001FFE00000
0001FFE00000
0001FFE00000
0001FFE00000
0001FFE00000
0001FFE00000
0001FFE00000
0001FFE00000
0001FFE00000
0001FFE00000
0001FFE00000
0001FFE00000
0001FFE00000
0001FFE00000
0001FFE00000
0001FFE00000
0001FFE00000
0001FFE00000
0001FFE00000
0001FFE00000
0001FFE00000
0001FFE00000
0001FFE00000
0001FFE00000
0001FFE00000
0001FFE00000
0001FFE00000
0001FFE00000
0001FFE00000
ENDCHAR
STARTCHAR 0075
ENCODING 117
SWIDTH 604 0
DWIDTH 47 0
BBX 42 54 3 0
BITMAP
FFF00003FFC0
FFF00003FFC0
FFF00003FFC0
FFF00003FFC0
FFF00003FFC0
FFF00003FFC0
FFF00003FFC0
FFF00003FFC0
FFF00003FFC0
FFF00003FFC0
FFF00003FFC0
FFF00003FFC0
FFF00003FFC0
FFF00003FFC0
FFF00003FFC0
FFF00003FFC0
FFF00003FFC0
FFF00003FFC0
FFF00003FFC0
FFF00003FFC0
FFF00003FFC0
FFF00003FFC0
FFF00003FFC0
FFF00003FFC0
FFF00003FFC0
FFF00003FFC0
FFF00003FFC0
FFF00003FFC0
FFF00003FFC0
FFF00003FFC0
FFF00003FFC0
FFF00003FFC0
FFF00003FFC0
FFF00003FFC0
FFF00003FFC0
FFF00003FFC0
FFF00003FFC0
FFF00003FFC0
FFF00003FFC0
FFF00007FFC0
FFF80007FFC0
FFFC000FFFC0
FFFFFFFFFFC0
FFFFFFFFFFC0
FFFFFFFFFFC0
FFFFFFFFFF80
7FFFFFFFFF80
3FFFFFFFFF00
3FFFFFFFFE00
1FFFFFFFFE00
0FFFFFFFFC00
07FFFFFFF800
07FFFFFFF000
03FFFFFFF000
ENDCHAR
STARTCHAR 0076
ENCODING 118
SWIDTH 565 0
DWIDTH 44 0
BBX 43 54 1 0
BITMAP
FFF00001FFE0
FFF00001FFE0
FFF00001FFE0
FFF00001FFE0
FFF00001FFC0
7FF00003FFC0
7FF80003FFC0
7FF80003FFC0
7FF80003FFC0
7FF80003FF80
3FF80003FF80
3FF80007FF80
3FF80007FF80
3FFC0007FF80
3FFC0007FF00
1FFC0007FF00
1FFC0007FF00
1FFC0007FF00
1FFC000FFF00
1FFE000FFE00
0FFE000FFE00
0FFE000FFE00
0FFE000FFE00
0FFE000FFE00
0FFE001FFC00
07FE001FFC00
07FF001FFC00
07FF001FFC00
07FF001FFC00
07FF001FF800
03FF001FF800
03FF003FF800
03FF803FF800
03FF803FF800
03FF803FF000
01FF803FF000
01FF803FF000
01FF807FF000
01FF807FF000
01FFC07FE000
00FFC07FE000
00FFC07FE000
00FFFFFFE000
00FFFFFFE000
00FFFFFFC000
007FFFFFC000
007FFFFFC000
007FFFFFC000
007FFFFFC000
007FFFFF8000
003FFFFF8000
003FFFFF8000
001FFFFF0000
001FFFFE0000
ENDCHAR
STARTCHAR 0077
ENCODING 119
SWIDTH 874 0
DWIDTH 68 0
BBX 62 54 3 0
BITMAP
FFF0000000003FFC
FFF8000000003FFC
FFF8000000003FFC
FFF8000000003FFC
FFF8000000003FFC
FFF8000000007FFC
FFF8000000007FFC
FFFC000000007FFC
7FFC000000007FFC
7FFC000000007FFC
7FFC000000007FF8
7FFC00000000FFF8
3FFE00000000FFF8
3FFE00000000FFF8
3FFE00000000FFF8
3FFE001FF800FFF0
3FFE003FF801FFF0
1FFE007FFC01FFF0
1FFF007FFC01FFF0
1FFF00FFFE01FFF0
1FFF00FFFE01FFE0
1FFF00FFFE01FFE0
0FFF00FFFE03FFE0
0FFF81FFFF03FFE0
0FFF81FFFF03FFE0
0FFF81FFFF03FFC0
07FF81FFFF03FFC0
07FF83FEFF83FFC0
07FFC3FEFF87FFC0
07FFC3FEFF87FFC0
07FFC3FE7F87FF80
03FFC7FC7FC7FF80
03FFC7FC7FC7FF80
03FFC7FC7FC7FF80
03FFE7FC3FCFFF80
03FFFFF83FFFFF00
01FFFFF83FFFFF00
01FFFFF83FFFFF00
01FFFFF83FFFFF00
01FFFFF81FFFFF00
00FFFFF01FFFFE00
00FFFFF01FFFFE00
00FFFFF01FFFFE00
00FFFFF01FFFFE00
00FFFFF00FFFFE00
007FFFE00FFFFC00
007FFFE00FFFFC00
007FFFE00FFFFC00
007FFFE00FFFFC00
007FFFE007FFFC00
003FFFC007FFF800
003FFFC007FFF800
003FFFC007FFF800
003FFFC007FFF800
ENDCHAR
STARTCHAR 0078
ENCODING 120
SWIDTH 604 0
DWIDTH 47 0
BBX 42 54 3 0
BITMAP
FFF00003FFC0
FFF80007FFC0
FFF80007FFC0
FFF8000FFFC0
FFFC000FFFC0
FFFC000FFFC0
7FFE001FFF80
7FFE001FFF80
3FFE003FFF00
3FFF003FFF00
1FFF007FFE00
1FFF807FFE00
0FFF80FFFC00
0FFFC0FFFC00
07FFC0FFF800
07FFC1FFF800
03FFE1FFF000
03FFE3FFF000
01FFF3FFE000
01FFF7FFE000
00FFF7FFC000
00FFFFFFC000
007FFFFF8000
007FFFFF8000
003FFFFF0000
003FFFFF0000
007FFFFF8000
007FFFFF8000
00FFFFFF8000
00FFFFFFC000
00FFFFFFC000
01FFFFFFE000
01FFFFFFE000
03FFF7FFF000
03FFF3FFF000
07FFE3FFF000
07FFE1FFF800
07FFE1FFF800
0FFFC1FFFC00
0FFFC0FFFC00
1FFF80FFFE00
1FFF807FFE00
3FFF007FFE00
3FFF003FFF00
3FFF003FFF00
7FFE003FFF80
7FFE001FFF80
FFFC001FFFC0
FFFC000FFFC0
FFFC000FFFC0
FFF80007FFC0
FFF80007FFC0
FFF00007FFC0
FFF00003FFC0
ENDCHAR
STARTCHAR 0079
ENCODING 121
SWIDTH 462 0
DWIDTH 36 0
BBX 36 54 0 0
BITMAP
FFF0007FF0
FFF0007FF0
FFF000FFF0
FFF800FFF0
FFF800FFF0
FFF801FFF0
7FFC01FFF0
7FFC01FFE0
3FFC03FFE0
3FFE03FFE0
1FFE03FFC0
1FFE07FFC0
1FFF07FF80
0FFF07FF80
0FFF0FFF00
07FF8FFF00
07FF8FFE00
03FFDFFE00
03FFDFFE00
01FFDFFC00
01FFFFFC00
01FFFFF800
00FFFFF800
00FFFFF000
007FFFF000
007FFFF000
003FFFE000
003FFFE000
001FFFC000
001FFFC000
001FFF8000
000FFF8000
000FFF0000
000FFF0000
000FFF0000
000FFF0000
000FFF0000
000FFF0000
000FFF0000
000FFF0000
000FFF0000
000FFF0000
000FFF0000
000FFF0000
000FFF0000
000FFF0000
000FFF0000
000FFF0000
000FFF0000
000FFF0000
000FFF0000
000FFF0000
000FFF0000
000FFF0000
ENDCHAR
STARTCHAR 007A
ENCODING 122
SWIDTH 565 0
DWIDTH 44 0
BBX 38 54 3 0
BITMAP
FFFFFFFF80
FFFFFFFF80
FFFFFFFFC0
FFFFFFFFE0
FFFFFFFFE0
FFFFFFFFF0
FFFFFFFFF8
FFFFFFFFFC
FFFFFFFFFC
7FFFFFFFF8
7FFFFFFFF8
3FFFFFFFF0
00000FFFE0
00000FFFE0
00001FFFC0
00003FFFC0
00003FFF80
00007FFF00
0000FFFF00
0000FFFE00
0001FFFE00
0001FFFC00
0003FFF800
0007FFF800
0007FFF000
000FFFF000
000FFFE000
001FFFC000
003FFFC000
003FFF8000
007FFF0000
007FFF0000
00FFFE0000
01FFFE0000
01FFFC0000
03FFF80000
07FFF80000
07FFF00000
0FFFF00000
0FFFE00000
1FFFC00000
3FFFC00000
3FFFFFFFF8
7FFFFFFFF8
7FFFFFFFFC
FFFFFFFFFC
7FFFFFFFFC
3FFFFFFFFC
3FFFFFFFFC
1FFFFFFFFC
0FFFFFFFFC
07FFFFFFFC
07FFFFFFFC
03FFFFFFFC
ENDCHAR
STARTCHAR 007B
ENCODING 123
SWIDTH 282 0
DWIDTH 22 0
BBX 19 61 2 -4
BITMAP
07FFE0
07FFE0
07FFE0
07FFE0
07FFE0
07FFC0
07FFC0
07F000
07F000
07F000
07F000
07F000
07F000
07F000
07F000
07F000
07F000
07F000
07F000
07F000
07F000
07F000
07F000
07F000
1FF000
3FF000
7FE000
FF8000
FF0000
FE0000
FE0000
FF0000
FF8000
FFC000
3FE000
1FF000
0FF000
07F000
07F000
07F000
07F000
07F000
07F000
07F000
07F000
07F000
07F000
07F000
07F000
07F000
07F000
07F000
07F000
07FF80
07FFC0
07FFE0
07FFE0
07FFE0
07FFE0
07FFE0
07FFE0
ENDCHAR
STARTCHAR 007C
ENCODING 124
SWIDTH 128 0
DWIDTH 10 0
BBX 7 61 2 -4
BITMAP
FE
FE
FE
FE
FE
FE
FE
FE
FE
FE
FE
FE
FE
FE
FE
FE
FE
FE
FE
FE
FE
FE
FE
FE
FE
FE
FE
FE
FE
FE
FE
FE
FE
FE
FE
FE
FE
FE
FE
FE
FE
FE
FE
FE
FE
FE
FE
FE
FE
FE
FE
FE
FE
FE
FE
FE
FE
FE
FE
FE
FE
ENDCHAR
STARTCHAR 007D
ENCODING 125
SWIDTH 282 0
DWIDTH 22 0
BBX 19 61 2 -4
BITMAP
FFFC00
FFFC00
FFFC00
FFFC00
FFFC00
FFFC00
7FFC00
03FC00
03FC00
03FC00
03FC00
03FC00
03FC00
03FC00
03FC00
03FC00
03FC00
03FC00
03FC00
03FC00
03FC00
03FC00
03FC00
03FC00
03FE00
01FF80
00FFC0
007FE0
003FE0
001FE0
001FE0
001FE0
003FE0
00FFC0
01FF80
03FF00
03FC00
03FC00
03FC00
03FC00
03FC00
03FC00
03FC00
03FC00
03FC00
03FC00
03FC00
03FC00
03FC00
03FC00
03FC00
03FC00
03FC00
7FFC00
FFFC00
FFFC00
FFFC00
FFFC00
FFFC00
FFFC00
FFFC00
ENDCHAR
STARTCHAR 007E
ENCODING 126
SWIDTH 450 0
DWIDTH 35 0
BBX 32 10 2 22
BITMAP
00780000
01FF0000
07FFE007
1FFFFC1F
7FFFFF7F
FFFFFFFF
FF87FFFF
FE00FFFE
FC001FF8
F00003E0
ENDCHAR
STARTCHAR 00A1
ENCODING 161
SWIDTH 167 0
DWIDTH 13 0
BBX 10 54 2 0
BITMAP
FFC0
FFC0
FFC0
FFC0
FFC0
FFC0
FFC0
FFC0
FFC0
0000
0000
0000
0000
3E00
3F00
3F00
3F00
3F00
3F00
3F00
3F00
3F00
3F00
3F00
7F00
7F00
7F00
7F00
7F80
7F80
7F80
7F80
7F80
7F80
7F80
7F80
7F80
7F80
FF80
FF80
FF80
FF80
FFC0
FFC0
FFC0
FFC0
FFC0
FFC0
FFC0
FFC0
FFC0
FFC0
FF80
7F80
ENDCHAR
STARTCHAR 00A2
ENCODING 162
SWIDTH 540 0
DWIDTH 42 0
BBX 36 70 3 -8
BITMAP
0007F80000
0007F80000
0007F80000
0007F80000
0007F80000
0007F80000
0007F80000
0007F80000
FFFFFFFE00
FFFFFFFF00
FFFFFFFF00
FFFFFFFF80
FFFFFFFFC0
FFFFFFFFC0
FFFFFFFFE0
FFFFFFFFF0
FFFFFFFFF0
FFFFFFFFF0
FFFFFFFFF0
FFFFFFFFF0
FFF000FFF0
FFF000FFF0
FFF0000000
FFF0000000
FFF0000000
FFF0000000
FFF0000000
FFF0000000
FFF0000000
FFF0000000
FFF0000000
FFF0000000
FFF0000000
FFF0000000
FFF0000000
FFF0000000
FFF0000000
FFF0000000
FFF0000000
FFF0000000
FFF0000000
FFF0000000
FFF0000000
FFF0000000
FFF0000000
FFF0000000
FFF0000000
FFF0007FF0
FFF000FFF0
FFF001FFF0
FFFFFFFFF0
FFFFFFFFF0
FFFFFFFFF0
FFFFFFFFF0
FFFFFFFFF0
FFFFFFFFE0
FFFFFFFFC0
FFFFFFFF80
FFFFFFFF80
FFFFFFFF00
FFFFFFFE00
FFFFFFFE00
0007F80000
0007F80000
0007F80000
0007F80000
0007F80000
0007F80000
0007F80000
0007F80000
ENDCHAR
STARTCHAR 00A3
ENCODING 163
SWIDTH 501 0
DWIDTH 39 0
BBX 33 54 3 0
BITMAP
7FFFFFFF00
7FFFFFFF00
FFFFFFFF80
FFFFFFFF80
FFFFFFFF80
FFFFFFFF80
FFFFFFFF80
FFFFFFFF80
FFFFFFFF80
FFFFFFFF80
FFFFFFFF80
FFFFFFFF80
FFF807FF80
7FF803FF80
7FF801FF80
7FF8000000
3FF8000000
3FF8000000
3FFC000000
1FFC000000
1FFE000000
FFFFFFFF80
FFFFFFFF80
FFFFFFFF80
FFFFFFFF80
FFFFFFFF80
FFFFFFFF80
FFFFFFFF80
FFFFFFFF80
03FFC00000
03FFC00000
01FFE00000
01FFE00000
01FFE00000
01FFE00000
03FFC00000
07FF800000
0FFF000000
1FFF000000
3FFE000000
7FFC000000
FFF8000000
FFFFFFFE00
FFFFFFFF00
FFFFFFFF80
FFFFFFFF80
FFFFFFFF80
FFFFFFFF80
FFFFFFFF80
FFFFFFFF80
FFFFFFFF80
FFFFFFFF80
FFFFFFFF80
FFFFFFFF80
ENDCHAR
STARTCHAR 00A4
ENCODING 164
SWIDTH 321 0
DWIDTH 25 0
BBX 22 22 2 17
BITMAP
600010
F00038
F8007C
7FFFF8
3FFFF0
1FFFE0
1FFFE0
1FFFE0
1F03E0
1F03E0
1F03E0
1F03E0
1F03E0
1F03E0
1FFFE0
1FFFE0
1FFFE0
3FFFF0
7FFFF8
F8007C
F0003C
600018
ENDCHAR
STARTCHAR 00A5
ENCODING 165
SWIDTH 462 0
DWIDTH 36 0
BBX 36 54 0 0
BITMAP
FFF0007FF0
FFF0007FF0
FFF000FFF0
FFF800FFF0
FFF800FFF0
FFF801FFF0
7FFC01FFF0
7FFC01FFE0
3FFC03FFE0
3FFE03FFE0
1FFE03FFC0
1FFE07FFC0
1FFF07FF80
0FFF07FF80
0FFF0FFF00
07FF8FFF00
07FF8FFE00
03FFDFFE00
03FFDFFE00
01FFDFFC00
01FFFFFC00
01FFFFF800
00FFFFF800
00FFFFF000
007FFFF000
007FFFF000
003FFFE000
0FFFFFFF80
0FFFFFFF80
0FFFFFFF80
0FFFFFFF80
0FFFFFFF80
0FFFFFFF80
0FFFFFFF80
0FFFFFFF80
000FFF0000
000FFF0000
000FFF0000
0FFFFFFF80
0FFFFFFF80
0FFFFFFF80
0FFFFFFF80
0FFFFFFF80
0FFFFFFF80
0FFFFFFF80
000FFF0000
000FFF0000
000FFF0000
000FFF0000
000FFF0000
000FFF0000
000FFF0000
000FFF0000
000FFF0000
ENDCHAR
STARTCHAR 00A6
ENCODING 166
SWIDTH 128 0
DWIDTH 10 0
BBX 7 60 2 -3
BITMAP
FE
FE
FE
FE
FE
FE
FE
FE
FE
FE
FE
FE
FE
FE
FE
FE
FE
FE
FE
FE
FE
FE
FE
FE
FE
FE
FE
00
00
00
00
00
00
FE
FE
FE
FE
FE
FE
FE
FE
FE
FE
FE
FE
FE
FE
FE
FE
FE
FE
FE
FE
FE
FE
FE
FE
FE
FE
FE
ENDCHAR
STARTCHAR 00A7
ENCODING 167
SWIDTH 424 0
DWIDTH 33 0
BBX 28 54 3 0
BITMAP
1FFFFF00
3FFFFF80
3FFFFF80
3FFFFFC0
3FFFFFE0
3FFFFFE0
3FFFFFF0
3FFFFFF0
3FE00FF0
3FF00FF0
3FF80000
3FFC0000
1FFC0000
0FFE0000
07FF0000
7FFF8000
7FFFC000
FFFFE000
FFFFF000
FFFFF800
FFFFFC00
FFFFFE00
FFFFFF00
FFFFFF80
FF81FFC0
FFC0FFE0
FFE07FF0
FFF03FF0
7FF83FF0
3FFC1FF0
1FFFFFF0
0FFFFFF0
07FFFFF0
03FFFFF0
01FFFFF0
00FFFFF0
007FFFE0
003FFFE0
001FFC00
000FFE00
0007FF00
0003FF80
0001FFC0
FE00FFC0
FF007FC0
FFFFFFC0
FFFFFFC0
FFFFFFC0
7FFFFFC0
7FFFFFC0
3FFFFFC0
1FFFFFC0
1FFFFF80
0FFFFF80
ENDCHAR
STARTCHAR 00A8
ENCODING 168
SWIDTH 295 0
DWIDTH 23 0
BBX 20 8 2 57
BITMAP
FE0FF0
FE0FF0
FE0FF0
FE0FF0
FE0FF0
FE0FF0
FE0FF0
FE0FF0
ENDCHAR
STARTCHAR 00A9
ENCODING 169
SWIDTH 720 0
DWIDTH 56 0
BBX 53 61 2 -3
BITMAP
3FFFFFFFFFFFE0
7FFFFFFFFFFFF0
FFFFFFFFFFFFF8
FFFFFFFFFFFFF8
FFFFFFFFFFFFF8
FFFFFFFFFFFFF8
FFFFFFFFFFFFF8
FFFFFFFFFFFFF8
FE0000000003F8
FE0000000003F8
FE0000000003F8
FE0000000003F8
FE0000000003F8
FE0000000003F8
FE00FFFFC003F8
FE00FFFFC003F8
FE00FFFFE003F8
FE00FFFFF003F8
FE00FFFFF803F8
FE00FFFFF803F8
FE00FFFFF803F8
FE00FFFFF803F8
FE00FE03F803F8
FE00FE000003F8
FE00FE000003F8
FE00FE000003F8
FE00FE000003F8
FE00FE000003F8
FE00FE000003F8
FE00FE000003F8
FE00FE000003F8
FE00FE000003F8
FE00FE000003F8
FE00FE000003F8
FE00FE000003F8
FE00FE000003F8
FE00FE000003F8
FE00FE000003F8
FE00FE03F803F8
FE00FE03F803F8
FE00FFFFF803F8
FE00FFFFF803F8
FE00FFFFF803F8
FE00FFFFF003F8
FE00FFFFF003F8
FE00FFFFE003F8
FE00FFFFC003F8
FE0000000003F8
FE0000000003F8
FE0000000003F8
FE0000000003F8
FE0000000003F8
FE0000000003F8
FFFFFFFFFFFFF8
FFFFFFFFFFFFF8
FFFFFFFFFFFFF8
FFFFFFFFFFFFF8
FFFFFFFFFFFFF8
FFFFFFFFFFFFF8
7FFFFFFFFFFFF0
3FFFFFFFFFFFE0
ENDCHAR
STARTCHAR 00AB
ENCODING 171
SWIDTH 462 0
DWIDTH 36 0
BBX 33 33 2 9
BITMAP
0000000080
0001800180
0003800380
0007800780
001F801F80
003F803F80
007F807F80
00FF80FF80
03FF03FF00
07FE07FE00
0FF80FF800
1FF01FF000
7FE07FE000
FF80FF8000
FF00FF0000
FF00FF0000
FF00FF0000
FF00FF0000
FF00FF0000
FF80FF8000
7FC07FC000
3FF03FF000
0FF80FF800
07FC07FC00
03FF03FF00
01FF81FF80
007F807F80
003F803F80
001F801F80
000F800F80
0003800380
0001800180
0000800080
ENDCHAR
STARTCHAR 00AC
ENCODING 172
SWIDTH 552 0
DWIDTH 43 0
BBX 40 20 2 10
BITMAP
FFFFFFFFFF
FFFFFFFFFF
FFFFFFFFFF
FFFFFFFFFF
FFFFFFFFFF
FFFFFFFFFF
FFFFFFFFFF
FFFFFFFFFF
00000000FF
00000000FF
00000000FF
00000000FF
00000000FF
00000000FF
00000000FF
00000000FF
00000000FF
00000000FF
00000000FF
00000000FF
ENDCHAR
STARTCHAR 00AE
ENCODING 174
SWIDTH 385 0
DWIDTH 30 0
BBX 26 30 2 24
BITMAP
FFFFFFC0
FFFFFFC0
FFFFFFC0
E00001C0
E00001C0
E00001C0
E00001C0
E0FF81C0
E0FFC1C0
E0FFC1C0
E0E1C1C0
E0E1C1C0
E0E1C1C0
E0FFC1C0
E0FF81C0
E0FF81C0
E0FF81C0
E0E781C0
E0E3C1C0
E0E3C1C0
E0E3E1C0
E0E1E1C0
E0E1E1C0
E00001C0
E00001C0
E00001C0
FFFFFFC0
FFFFFFC0
FFFFFFC0
7FFFFF80
ENDCHAR
STARTCHAR 00AF
ENCODING 175
SWIDTH 424 0
DWIDTH 33 0
BBX 30 8 2 57
BITMAP
FFFFFFFC
FFFFFFFC
FFFFFFFC
FFFFFFFC
FFFFFFFC
FFFFFFFC
FFFFFFFC
FFFFFFFC
ENDCHAR
STARTCHAR 00B0
ENCODING 176
SWIDTH 244 0
DWIDTH 19 0
BBX 16 15 2 39
BITMAP
7FFE
FFFF
FFFF
FFFF
FFFF
F83F
F83F
F83F
F83F
FC3F
FFFF
FFFF
FFFF
FFFE
7FFC
ENDCHAR
STARTCHAR 00B1
ENCODING 177
SWIDTH 424 0
DWIDTH 33 0
BBX 30 41 2 1
BITMAP
001FE000
001FE000
001FE000
001FE000
001FE000
001FE000
001FE000
001FE000
001FE000
001FE000
001FE000
FFFFFFFC
FFFFFFFC
FFFFFFFC
FFFFFFFC
FFFFFFFC
FFFFFFFC
FFFFFFFC
FFFFFFFC
001FE000
001FE000
001FE000
001FE000
001FE000
001FE000
001FE000
001FE000
001FE000
001FE000
001FE000
00000000
00000000
00000000
FFFFFFFC
FFFFFFFC
FFFFFFFC
FFFFFFFC
FFFFFFFC
FFFFFFFC
FFFFFFFC
FFFFFFFC
ENDCHAR
STARTCHAR 00B4
ENCODING 180
SWIDTH 398 0
DWIDTH 31 0
BBX 27 9 2 57
BITMAP
00000060
000FFFE0
1FFFFFE0
FFFFFFE0
FFFFFF00
FFFFE000
FFFE0000
FFC00000
F8000000
ENDCHAR
STARTCHAR 00B6
ENCODING 182
SWIDTH 411 0
DWIDTH 32 0
BBX 27 54 3 0
BITMAP
7FFFE1E0
7FFFE1E0
FFFFE1E0
FFFFE1E0
FFFFE1E0
FFFFE1E0
FFFFE1E0
FFFFE1E0
FFFFE1E0
FFFFE1E0
FFFFE1E0
FFFFE1E0
FFFFE1E0
FFFFE1E0
FFFFE1E0
FFFFE1E0
FFFFE1E0
FFFFE1E0
FFFFE1E0
FFFFE1E0
FFFFE1E0
FFFFE1E0
7FFFE1E0
7FFFE1E0
3FFFE1E0
0001E1E0
0001E1E0
0001E1E0
0001E1E0
0001E1E0
0001E1E0
0001E1E0
0001E1E0
0001E1E0
0001E1E0
0001E1E0
0001E1E0
0001E1E0
0001E1E0
0001E1E0
0001E1E0
0001E1E0
0001E1E0
0001E1E0
0001E1E0
0001E1E0
0001E1E0
0001E1E0
0001E1E0
0001E1E0
0001E1E0
0001E1E0
0001E1E0
0001E1E0
ENDCHAR
STARTCHAR 00B7
ENCODING 183
SWIDTH 167 0
DWIDTH 13 0
BBX 10 11 2 24
BITMAP
FFC0
FFC0
FFC0
FFC0
FFC0
FFC0
FFC0
FFC0
FFC0
FFC0
FFC0
ENDCHAR
STARTCHAR 00B8
ENCODING 184
SWIDTH 192 0
DWIDTH 15 0
BBX 12 11 2 -11
BITMAP
00F0
01E0
03E0
1FC0
1FC0
1FC0
03C0
03C0
7FC0
FFC0
FF80
ENDCHAR
STARTCHAR 00BB
ENCODING 187
SWIDTH 462 0
DWIDTH 36 0
BBX 33 31 2 10
BITMAP
8000800000
E000E00000
F000F00000
F800F80000
FC00FC0000
FF00FF0000
FF80FF8000
7FC07FC000
3FE03FE000
1FF81FF800
07FC0FFC00
03FE03FE00
01FF81FF00
007F80FF80
007F807F80
007F807F80
007F807F80
007F807F80
01FF81FF80
03FF03FE00
07FC07FC00
1FF81FF800
3FF03FF000
7FC07FC000
FF80FF8000
FF00FF0000
FE00FE0000
F800F80000
F000F00000
E000E00000
C000C00000
ENDCHAR
STARTCHAR 00BC
ENCODING 188
SWIDTH 578 0
DWIDTH 45 0
BBX 40 54 3 0
BITMAP
07F00007E0
0FF8000FE0
1FF8000FC0
3FF8001FC0
7FF8001FC0
FFF8003F80
FFF8003F80
FFF8007F00
F9F8007F00
F1F800FE00
E1F800FE00
01F801FC00
01F801FC00
01F801F800
01F803F800
01F803F000
01F807F000
01F807E000
01F80FE000
01F80FE000
01F81FC000
01F81FC000
01F83F8000
01F83F8000
01F87F0000
01F87F0000
01F8FE0000
0000FE07F0
0001FC0FF8
0001FC1FF8
0003F81FF8
0003F83FF8
0003F07FF8
0007F07FF8
0007F0FFF8
000FE0FFF8
000FE1FDF8
001FC3F9F8
001FC3F9F8
003F87F1F8
003F87F1F8
007F0FE1F8
007F0FE1F8
00FE0FFFFE
00FE0FFFFF
01FC0FFFFF
01FC0FFFFF
03F80FFFFF
03F807FFFF
03F80001F8
07F00001F8
07F00001F8
0FE00001F8
0FE00001F8
ENDCHAR
STARTCHAR 00BD
ENCODING 189
SWIDTH 630 0
DWIDTH 49 0
BBX 43 54 3 0
BITMAP
07F00007E000
0FF8000FE000
1FF8000FC000
3FF8001FC000
7FF8001FC000
FFF8003F8000
FFF8003F8000
FFF8007F0000
F9F8007F0000
F1F800FE0000
E1F800FE0000
01F801FC0000
01F801FC0000
01F801F80000
01F803F80000
01F803F00000
01F807F00000
01F807E00000
01F80FE00000
01F80FE00000
01F81FC00000
01F81FC00000
01F83F800000
01F83F800000
01F87F000000
01F87F000000
01F8FE000000
0000FE0FFFE0
0001FC1FFFE0
0001FC3FFFE0
0003F83FFFE0
0003F87FFFE0
0003F07FFFE0
0007F07F07E0
0007F07E07E0
000FE00007E0
000FE0000FE0
001FC0001FE0
001FC0003FC0
003F80007F80
003F8000FF00
007F0001FF00
007F0003FE00
00FE0007FC00
00FE000FF800
01FC001FF000
01FC003FE000
03F8003FC000
03F8007FFFE0
03F8007FFFE0
07F0007FFFE0
07F0007FFFE0
0FE0007FFFE0
0FE0007FFFE0
ENDCHAR
STARTCHAR 00BE
ENCODING 190
SWIDTH 630 0
DWIDTH 49 0
BBX 44 54 3 0
BITMAP
FFFF80007E00
FFFF8000FE00
7FFF8000FC00
3FFF8001FC00
3FFF8001F800
1FFF8003F800
001F8003F800
001F8007F000
001F8007F000
001F800FE000
0FFF800FE000
0FFF801FC000
0FFF801FC000
0FFF803F8000
0FFF803F8000
0FFF807F0000
001F807F0000
001F807E0000
001F80FE0000
001F80FC0000
001F81FC0000
1FFF81FC0000
3FFF83F80000
7FFF83F80000
7FFF87F00000
FFFF87F00000
FFFF8FE00000
00000FE0FF00
00001FC0FF80
00001FC1FF80
00003F81FF80
00003F83FF80
00007F07FF80
00007F07FF80
0000FE0FFF80
0000FE1FFF80
0000FE1FDF80
0001FC3F9F80
0001FC3F9F80
0003F87F1F80
0003F8FE1F80
0007F0FE1F80
0007F0FE1F80
000FE0FFFFE0
000FE0FFFFF0
001FC0FFFFF0
001FC0FFFFF0
003F80FFFFF0
003F807FFFF0
007F00001F80
007F00001F80
00FF00001F80
00FE00001F80
00FE00001F80
ENDCHAR
STARTCHAR 00BF
ENCODING 191
SWIDTH 527 0
DWIDTH 41 0
BBX 36 54 3 0
BITMAP
003FFC0000
003FFC0000
003FFC0000
003FFC0000
003FFC0000
003FFC0000
003FFC0000
003FFC0000
003FFC0000
0000000000
0000000000
0000000000
0000000000
0000000000
003FFC0000
003FFC0000
003FFC0000
003FFC0000
003FFC0000
003FFC0000
003FFC0000
003FFC0000
003FFC0000
003FFC0000
007FFC0000
007FF80000
00FFF00000
01FFF00000
01FFE00000
03FFC00000
07FFC00000
07FF800000
0FFF800000
1FFF000000
1FFE000000
3FFE000000
7FFC000000
7FF8000000
FFF8007FF0
FFF8007FF0
FFF800FFF0
FFF800FFF0
FFFFFFFFF0
FFFFFFFFF0
FFFFFFFFF0
FFFFFFFFF0
FFFFFFFFE0
FFFFFFFFC0
FFFFFFFFC0
FFFFFFFF80
FFFFFFFF00
FFFFFFFE00
7FFFFFFE00
3FFFFFFC00
ENDCHAR
STARTCHAR 00C0
ENCODING 192
SWIDTH 578 0
DWIDTH 45 0
BBX 44 66 1 0
BITMAP
01F800000000
01FFC0000000
01FFFE000000
01FFFFF00000
01FFFFFF0000
00FFFFFFE000
001FFFFFE000
00000FFFE000
000000002000
000000000000
000000000000
000000000000
001FFFFF0000
001FFFFF8000
003FFFFFC000
003FFFFFC000
003FFFFFC000
007FFFFFC000
007FFFFFC000
007FFFFFE000
007FFFFFE000
007FFFFFE000
00FFFFFFE000
00FFFFFFE000
00FFC07FF000
00FFC07FF000
00FFC03FF000
01FFC03FF000
01FFC03FF000
01FF803FF800
01FF803FF800
01FF803FF800
03FF801FF800
03FF801FF800
03FF801FFC00
03FF801FFC00
03FF001FFC00
07FF001FFC00
07FF001FFC00
07FF000FFE00
07FF000FFE00
07FF000FFE00
0FFE000FFE00
0FFE000FFE00
0FFF000FFF00
0FFF801FFF00
0FFFFFFFFF00
1FFFFFFFFF00
1FFFFFFFFF00
1FFFFFFFFF80
1FFFFFFFFF80
1FFFFFFFFF80
3FFFFFFFFF80
3FFDFFFBFF80
3FFCFFF3FFC0
3FFC0003FFC0
3FF80003FFC0
7FF80003FFC0
7FF80003FFC0
7FF80001FFE0
7FF80001FFE0
7FF80001FFE0
FFF00001FFE0
FFF00001FFE0
FFF00001FFF0
FFF00000FFF0
ENDCHAR
STARTCHAR 00C1
ENCODING 193
SWIDTH 578 0
DWIDTH 45 0
BBX 44 66 1 0
BITMAP
000000006000
00000FFFE000
001FFFFFE000
01FFFFFFE000
01FFFFFF0000
01FFFFE00000
01FFFC000000
01FF80000000
01F800000000
000000000000
000000000000
000000000000
001FFFFF0000
001FFFFF8000
003FFFFFC000
003FFFFFC000
003FFFFFC000
007FFFFFC000
007FFFFFC000
007FFFFFE000
007FFFFFE000
007FFFFFE000
00FFFFFFE000
00FFFFFFE000
00FFC07FF000
00FFC07FF000
00FFC03FF000
01FFC03FF000
01FFC03FF000
01FF803FF800
01FF803FF800
01FF803FF800
03FF801FF800
03FF801FF800
03FF801FFC00
03FF801FFC00
03FF001FFC00
07FF001FFC00
07FF001FFC00
07FF000FFE00
07FF000FFE00
07FF000FFE00
0FFE000FFE00
0FFE000FFE00
0FFF000FFF00
0FFF801FFF00
0FFFFFFFFF00
1FFFFFFFFF00
1FFFFFFFFF00
1FFFFFFFFF80
1FFFFFFFFF80
1FFFFFFFFF80
3FFFFFFFFF80
3FFDFFFBFF80
3FFCFFF3FFC0
3FFC0003FFC0
3FF80003FFC0
7FF80003FFC0
7FF80003FFC0
7FF80001FFE0
7FF80001FFE0
7FF80001FFE0
FFF00001FFE0
FFF00001FFE0
FFF00001FFF0
FFF00000FFF0
ENDCHAR
STARTCHAR 00C2
ENCODING 194
SWIDTH 578 0
DWIDTH 45 0
BBX 44 67 1 0
BITMAP
001FFFFF0000
003FFFFF8000
007FFFFFC000
00FFFFFFE000
01FFFFFFF000
03FFFFFFF800
07FE000FF800
07FC0007F800
07F00003F800
07E00001F800
000000000000
000000000000
000000000000
001FFFFF0000
001FFFFF8000
003FFFFFC000
003FFFFFC000
003FFFFFC000
007FFFFFC000
007FFFFFC000
007FFFFFE000
007FFFFFE000
007FFFFFE000
00FFFFFFE000
00FFFFFFE000
00FFC07FF000
00FFC07FF000
00FFC03FF000
01FFC03FF000
01FFC03FF000
01FF803FF800
01FF803FF800
01FF803FF800
03FF801FF800
03FF801FF800
03FF801FFC00
03FF801FFC00
03FF001FFC00
07FF001FFC00
07FF001FFC00
07FF000FFE00
07FF000FFE00
07FF000FFE00
0FFE000FFE00
0FFE000FFE00
0FFF000FFF00
0FFF801FFF00
0FFFFFFFFF00
1FFFFFFFFF00
1FFFFFFFFF00
1FFFFFFFFF80
1FFFFFFFFF80
1FFFFFFFFF80
3FFFFFFFFF80
3FFDFFFBFF80
3FFCFFF3FFC0
3FFC0003FFC0
3FF80003FFC0
7FF80003FFC0
7FF80003FFC0
7FF80001FFE0
7FF80001FFE0
7FF80001FFE0
FFF00001FFE0
FFF00001FFE0
FFF00001FFF0
FFF00000FFF0
ENDCHAR
STARTCHAR 00C3
ENCODING 195
SWIDTH 578 0
DWIDTH 45 0
BBX 44 68 1 0
BITMAP
0001C0000000
0007F8000000
001FFF001C00
007FFFE07C00
01FFFFFDFC00
03FFFFFFFC00
03FE3FFFFC00
03F807FFFC00
03F000FFE000
03C0001F8000
038000020000
000000000000
000000000000
000000000000
001FFFFF0000
001FFFFF8000
003FFFFFC000
003FFFFFC000
003FFFFFC000
007FFFFFC000
007FFFFFC000
007FFFFFE000
007FFFFFE000
007FFFFFE000
00FFFFFFE000
00FFFFFFE000
00FFC07FF000
00FFC07FF000
00FFC03FF000
01FFC03FF000
01FFC03FF000
01FF803FF800
01FF803FF800
01FF803FF800
03FF801FF800
03FF801FF800
03FF801FFC00
03FF801FFC00
03FF001FFC00
07FF001FFC00
07FF001FFC00
07FF000FFE00
07FF000FFE00
07FF000FFE00
0FFE000FFE00
0FFE000FFE00
0FFF000FFF00
0FFF801FFF00
0FFFFFFFFF00
1FFFFFFFFF00
1FFFFFFFFF00
1FFFFFFFFF80
1FFFFFFFFF80
1FFFFFFFFF80
3FFFFFFFFF80
3FFDFFFBFF80
3FFCFFF3FFC0
3FFC0003FFC0
3FF80003FFC0
7FF80003FFC0
7FF80003FFC0
7FF80001FFE0
7FF80001FFE0
7FF80001FFE0
FFF00001FFE0
FFF00001FFE0
FFF00001FFF0
FFF00000FFF0
ENDCHAR
STARTCHAR 00C4
ENCODING 196
SWIDTH 578 0
DWIDTH 45 0
BBX 44 65 1 0
BITMAP
000FE0FF0000
000FE0FF0000
000FE0FF0000
000FE0FF0000
000FE0FF0000
000FE0FF0000
000FE0FF0000
000FE0FF0000
000000000000
000000000000
000000000000
001FFFFF0000
001FFFFF8000
003FFFFFC000
003FFFFFC000
003FFFFFC000
007FFFFFC000
007FFFFFC000
007FFFFFE000
007FFFFFE000
007FFFFFE000
00FFFFFFE000
00FFFFFFE000
00FFC07FF000
00FFC07FF000
00FFC03FF000
01FFC03FF000
01FFC03FF000
01FF803FF800
01FF803FF800
01FF803FF800
03FF801FF800
03FF801FF800
03FF801FFC00
03FF801FFC00
03FF001FFC00
07FF001FFC00
07FF001FFC00
07FF000FFE00
07FF000FFE00
07FF000FFE00
0FFE000FFE00
0FFE000FFE00
0FFF000FFF00
0FFF801FFF00
0FFFFFFFFF00
1FFFFFFFFF00
1FFFFFFFFF00
1FFFFFFFFF80
1FFFFFFFFF80
1FFFFFFFFF80
3FFFFFFFFF80
3FFDFFFBFF80
3FFCFFF3FFC0
3FFC0003FFC0
3FF80003FFC0
7FF80003FFC0
7FF80003FFC0
7FF80001FFE0
7FF80001FFE0
7FF80001FFE0
FFF00001FFE0
FFF00001FFE0
FFF00001FFF0
FFF00000FFF0
ENDCHAR
STARTCHAR 00C5
ENCODING 197
SWIDTH 578 0
DWIDTH 45 0
BBX 44 69 1 0
BITMAP
00003FC00000
00007FE00000
0000FFE00000
0000FFE00000
0000F0E00000
0000F0E00000
0000F0E00000
0000F0E00000
0000FFE00000
00007FE00000
00007FC00000
00003FC00000
000000000000
000000000000
000000000000
001FFFFF0000
001FFFFF8000
003FFFFFC000
003FFFFFC000
003FFFFFC000
007FFFFFC000
007FFFFFC000
007FFFFFE000
007FFFFFE000
007FFFFFE000
00FFFFFFE000
00FFFFFFE000
00FFC07FF000
00FFC07FF000
00FFC03FF000
01FFC03FF000
01FFC03FF000
01FF803FF800
01FF803FF800
01FF803FF800
03FF801FF800
03FF801FF800
03FF801FFC00
03FF801FFC00
03FF001FFC00
07FF001FFC00
07FF001FFC00
07FF000FFE00
07FF000FFE00
07FF000FFE00
0FFE000FFE00
0FFE000FFE00
0FFF000FFF00
0FFF801FFF00
0FFFFFFFFF00
1FFFFFFFFF00
1FFFFFFFFF00
1FFFFFFFFF80
1FFFFFFFFF80
1FFFFFFFFF80
3FFFFFFFFF80
3FFDFFFBFF80
3FFCFFF3FFC0
3FFC0003FFC0
3FF80003FFC0
7FF80003FFC0
7FF80003FFC0
7FF80001FFE0
7FF80001FFE0
7FF80001FFE0
FFF00001FFE0
FFF00001FFE0
FFF00001FFF0
FFF00000FFF0
ENDCHAR
STARTCHAR 00C6
ENCODING 198
SWIDTH 835 0
DWIDTH 65 0
BBX 61 54 1 0
BITMAP
001FFFFFFFFFFF00
001FFFFFFFFFFF00
003FFFFFFFFFFF80
003FFFFFFFFFFFC0
003FFFFFFFFFFFE0
007FFFFFFFFFFFE0
007FFFFFFFFFFFF0
007FFFFFFFFFFFF8
007FFFFFFFFFFFF8
007FFFFFFFFFFFF8
00FFFFFFFFFFFFF8
00FFFFFFFFFFFFF8
00FFC07FF8001FF8
00FFC07FF8001FF8
00FFC07FF8000000
01FFC07FF8000000
01FFC07FF8000000
01FF807FF8000000
01FF807FF8000000
01FF807FF8000000
03FF807FF8000000
03FF807FF8000000
03FF807FFFFFF000
03FF807FFFFFF000
03FF007FFFFFF000
07FF007FFFFFF000
07FF007FFFFFF000
07FF007FFFFFF000
07FF007FFFFFF000
07FF007FFFFFF000
0FFE007FFFFFF000
0FFE007FF8000000
0FFF007FF8000000
0FFF807FF8000000
0FFFFFFFF8000000
1FFFFFFFF8000000
1FFFFFFFF8000000
1FFFFFFFF8000000
1FFFFFFFF8000000
1FFFFFFFF8000FF8
3FFFFFFFF8001FF8
3FFDFFFFF8003FF8
3FFCFFFFFFFFFFF8
3FFC007FFFFFFFF8
3FF8007FFFFFFFF8
7FF8007FFFFFFFF8
7FF8007FFFFFFFF0
7FF8007FFFFFFFF0
7FF8007FFFFFFFE0
7FF8007FFFFFFFC0
FFF0007FFFFFFFC0
FFF0007FFFFFFF80
FFF0007FFFFFFF00
FFF0007FFFFFFE00
ENDCHAR
STARTCHAR 00C7
ENCODING 199
SWIDTH 540 0
DWIDTH 42 0
BBX 36 65 3 -11
BITMAP
FFFFFFFE00
FFFFFFFF00
FFFFFFFF00
FFFFFFFF80
FFFFFFFFC0
FFFFFFFFC0
FFFFFFFFE0
FFFFFFFFF0
FFFFFFFFF0
FFFFFFFFF0
FFFFFFFFF0
FFFFFFFFF0
FFF000FFF0
FFF000FFF0
FFF0000000
FFF0000000
FFF0000000
FFF0000000
FFF0000000
FFF0000000
FFF0000000
FFF0000000
FFF0000000
FFF0000000
FFF0000000
FFF0000000
FFF0000000
FFF0000000
FFF0000000
FFF0000000
FFF0000000
FFF0000000
FFF0000000
FFF0000000
FFF0000000
FFF0000000
FFF0000000
FFF0000000
FFF0000000
FFF0007FF0
FFF000FFF0
FFF001FFF0
FFFFFFFFF0
FFFFFFFFF0
FFFFFFFFF0
FFFFFFFFF0
FFFFFFFFF0
FFFFFFFFE0
FFFFFFFFC0
FFFFFFFF80
FFFFFFFF80
FFFFFFFF00
FFFFFFFE00
FFFFFFFE00
00003C0000
00007C0000
0000780000
0003F80000
0003F80000
0003F80000
0000F80000
0000F80000
001FF80000
003FF00000
003FE00000
ENDCHAR
STARTCHAR 00C8
ENCODING 200
SWIDTH 540 0
DWIDTH 42 0
BBX 36 66 3 0
BITMAP
0F80000000
0FFC000000
0FFFE00000
0FFFFF0000
0FFFFFF800
0FFFFFFF00
01FFFFFF00
00007FFF00
0000000300
0000000000
0000000000
0000000000
FFFFFFFE00
FFFFFFFE00
FFFFFFFF00
FFFFFFFF80
FFFFFFFFC0
FFFFFFFFC0
FFFFFFFFE0
FFFFFFFFF0
FFFFFFFFF0
FFFFFFFFF0
FFFFFFFFF0
FFFFFFFFF0
FFF0007FF0
FFF0003FF0
FFF0000000
FFF0000000
FFF0000000
FFF0000000
FFF0000000
FFF0000000
FFF0000000
FFF0000000
FFFFFFE000
FFFFFFE000
FFFFFFE000
FFFFFFE000
FFFFFFE000
FFFFFFE000
FFFFFFE000
FFFFFFE000
FFFFFFE000
FFF0000000
FFF0000000
FFF0000000
FFF0000000
FFF0000000
FFF0000000
FFF0000000
FFF0000000
FFF0001FF0
FFF0003FF0
FFF0007FF0
FFFFFFFFF0
FFFFFFFFF0
FFFFFFFFF0
FFFFFFFFF0
FFFFFFFFE0
FFFFFFFFE0
FFFFFFFFC0
FFFFFFFF80
FFFFFFFF00
FFFFFFFF00
FFFFFFFE00
FFFFFFFC00
ENDCHAR
STARTCHAR 00C9
ENCODING 201
SWIDTH 540 0
DWIDTH 42 0
BBX 36 66 3 0
BITMAP
0000000700
0000FFFF00
01FFFFFF00
0FFFFFFF00
0FFFFFF000
0FFFFF0000
0FFFE00000
0FFC000000
0F80000000
0000000000
0000000000
0000000000
FFFFFFFE00
FFFFFFFE00
FFFFFFFF00
FFFFFFFF80
FFFFFFFFC0
FFFFFFFFC0
FFFFFFFFE0
FFFFFFFFF0
FFFFFFFFF0
FFFFFFFFF0
FFFFFFFFF0
FFFFFFFFF0
FFF0007FF0
FFF0003FF0
FFF0000000
FFF0000000
FFF0000000
FFF0000000
FFF0000000
FFF0000000
FFF0000000
FFF0000000
FFFFFFE000
FFFFFFE000
FFFFFFE000
FFFFFFE000
FFFFFFE000
FFFFFFE000
FFFFFFE000
FFFFFFE000
FFFFFFE000
FFF0000000
FFF0000000
FFF0000000
FFF0000000
FFF0000000
FFF0000000
FFF0000000
FFF0000000
FFF0001FF0
FFF0003FF0
FFF0007FF0
FFFFFFFFF0
FFFFFFFFF0
FFFFFFFFF0
FFFFFFFFF0
FFFFFFFFE0
FFFFFFFFE0
FFFFFFFFC0
FFFFFFFF80
FFFFFFFF00
FFFFFFFF00
FFFFFFFE00
FFFFFFFC00
ENDCHAR
STARTCHAR 00CA
ENCODING 202
SWIDTH 540 0
DWIDTH 42 0
BBX 36 67 3 0
BITMAP
03FFFFC000
07FFFFE000
0FFFFFF800
3FFFFFFC00
7FFFFFFE00
FFFFFFFF00
FF8001FF00
FF0000FF00
FE00007F00
FC00003F00
0000000000
0000000000
0000000000
FFFFFFFE00
FFFFFFFE00
FFFFFFFF00
FFFFFFFF80
FFFFFFFFC0
FFFFFFFFC0
FFFFFFFFE0
FFFFFFFFF0
FFFFFFFFF0
FFFFFFFFF0
FFFFFFFFF0
FFFFFFFFF0
FFF0007FF0
FFF0003FF0
FFF0000000
FFF0000000
FFF0000000
FFF0000000
FFF0000000
FFF0000000
FFF0000000
FFF0000000
FFFFFFE000
FFFFFFE000
FFFFFFE000
FFFFFFE000
FFFFFFE000
FFFFFFE000
FFFFFFE000
FFFFFFE000
FFFFFFE000
FFF0000000
FFF0000000
FFF0000000
FFF0000000
FFF0000000
FFF0000000
FFF0000000
FFF0000000
FFF0001FF0
FFF0003FF0
FFF0007FF0
FFFFFFFFF0
FFFFFFFFF0
FFFFFFFFF0
FFFFFFFFF0
FFFFFFFFE0
FFFFFFFFE0
FFFFFFFFC0
FFFFFFFF80
FFFFFFFF00
FFFFFFFF00
FFFFFFFE00
FFFFFFFC00
ENDCHAR
STARTCHAR 00CB
ENCODING 203
SWIDTH 540 0
DWIDTH 42 0
BBX 36 65 3 0
BITMAP
01FC0FE000
01FC0FE000
01FC0FE000
01FC0FE000
01FC0FE000
01FC0FE000
01FC0FE000
01FC0FE000
0000000000
0000000000
0000000000
FFFFFFFE00
FFFFFFFE00
FFFFFFFF00
FFFFFFFF80
FFFFFFFFC0
FFFFFFFFC0
FFFFFFFFE0
FFFFFFFFF0
FFFFFFFFF0
FFFFFFFFF0
FFFFFFFFF0
FFFFFFFFF0
FFF0007FF0
FFF0003FF0
FFF0000000
FFF0000000
FFF0000000
FFF0000000
FFF0000000
FFF0000000
FFF0000000
FFF0000000
FFFFFFE000
FFFFFFE000
FFFFFFE000
FFFFFFE000
FFFFFFE000
FFFFFFE000
FFFFFFE000
FFFFFFE000
FFFFFFE000
FFF0000000
FFF0000000
FFF0000000
FFF0000000
FFF0000000
FFF0000000
FFF0000000
FFF0000000
FFF0001FF0
FFF0003FF0
FFF0007FF0
FFFFFFFFF0
FFFFFFFFF0
FFFFFFFFF0
FFFFFFFFF0
FFFFFFFFE0
FFFFFFFFE0
FFFFFFFFC0
FFFFFFFF80
FFFFFFFF00
FFFFFFFF00
FFFFFFFE00
FFFFFFFC00
ENDCHAR
STARTCHAR 00CC
ENCODING 204
SWIDTH 231 0
DWIDTH 18 0
BBX 28 66 -3 0
BITMAP
F8000000
FFC00000
FFFE0000
FFFFF000
FFFFFF80
FFFFFFF0
1FFFFFF0
0007FFF0
00000010
00000000
00000000
00000000
03FFC000
03FFC000
03FFC000
03FFC000
03FFC000
03FFC000
03FFC000
03FFC000
03FFC000
03FFC000
03FFC000
03FFC000
03FFC000
03FFC000
03FFC000
03FFC000
03FFC000
03FFC000
03FFC000
03FFC000
03FFC000
03FFC000
03FFC000
03FFC000
03FFC000
03FFC000
03FFC000
03FFC000
03FFC000
03FFC000
03FFC000
03FFC000
03FFC000
03FFC000
03FFC000
03FFC000
03FFC000
03FFC000
03FFC000
03FFC000
03FFC000
03FFC000
03FFC000
03FFC000
03FFC000
03FFC000
03FFC000
03FFC000
03FFC000
03FFC000
03FFC000
03FFC000
03FFC000
03FFC000
ENDCHAR
STARTCHAR 00CD
ENCODING 205
SWIDTH 231 0
DWIDTH 18 0
BBX 28 66 -5 0
BITMAP
00000030
0007FFF0
0FFFFFF0
FFFFFFF0
FFFFFF80
FFFFF000
FFFE0000
FFC00000
F8000000
00000000
00000000
00000000
00FFF000
00FFF000
00FFF000
00FFF000
00FFF000
00FFF000
00FFF000
00FFF000
00FFF000
00FFF000
00FFF000
00FFF000
00FFF000
00FFF000
00FFF000
00FFF000
00FFF000
00FFF000
00FFF000
00FFF000
00FFF000
00FFF000
00FFF000
00FFF000
00FFF000
00FFF000
00FFF000
00FFF000
00FFF000
00FFF000
00FFF000
00FFF000
00FFF000
00FFF000
00FFF000
00FFF000
00FFF000
00FFF000
00FFF000
00FFF000
00FFF000
00FFF000
00FFF000
00FFF000
00FFF000
00FFF000
00FFF000
00FFF000
00FFF000
00FFF000
00FFF000
00FFF000
00FFF000
00FFF000
ENDCHAR
STARTCHAR 00CE
ENCODING 206
SWIDTH 488 0
DWIDTH 38 0
BBX 32 67 3 0
BITMAP
03FFFFC0
07FFFFE0
0FFFFFF8
3FFFFFFC
7FFFFFFE
FFFFFFFF
FF8001FF
FF0000FF
FE00007F
FC00003F
00000000
00000000
00000000
003FFC00
003FFC00
003FFC00
003FFC00
003FFC00
003FFC00
003FFC00
003FFC00
003FFC00
003FFC00
003FFC00
003FFC00
003FFC00
003FFC00
003FFC00
003FFC00
003FFC00
003FFC00
003FFC00
003FFC00
003FFC00
003FFC00
003FFC00
003FFC00
003FFC00
003FFC00
003FFC00
003FFC00
003FFC00
003FFC00
003FFC00
003FFC00
003FFC00
003FFC00
003FFC00
003FFC00
003FFC00
003FFC00
003FFC00
003FFC00
003FFC00
003FFC00
003FFC00
003FFC00
003FFC00
003FFC00
003FFC00
003FFC00
003FFC00
003FFC00
003FFC00
003FFC00
003FFC00
003FFC00
ENDCHAR
STARTCHAR 00CF
ENCODING 207
SWIDTH 231 0
DWIDTH 18 0
BBX 20 65 -1 0
BITMAP
FE07F0
FE07F0
FE07F0
FE07F0
FE07F0
FE07F0
FE07F0
FE07F0
000000
000000
000000
0FFF00
0FFF00
0FFF00
0FFF00
0FFF00
0FFF00
0FFF00
0FFF00
0FFF00
0FFF00
0FFF00
0FFF00
0FFF00
0FFF00
0FFF00
0FFF00
0FFF00
0FFF00
0FFF00
0FFF00
0FFF00
0FFF00
0FFF00
0FFF00
0FFF00
0FFF00
0FFF00
0FFF00
0FFF00
0FFF00
0FFF00
0FFF00
0FFF00
0FFF00
0FFF00
0FFF00
0FFF00
0FFF00
0FFF00
0FFF00
0FFF00
0FFF00
0FFF00
0FFF00
0FFF00
0FFF00
0FFF00
0FFF00
0FFF00
0FFF00
0FFF00
0FFF00
0FFF00
0FFF00
ENDCHAR
STARTCHAR 00D0
ENCODING 208
SWIDTH 578 0
DWIDTH 45 0
BBX 44 54 -2 0
BITMAP
07FFFFFFFC00
07FFFFFFFE00
07FFFFFFFF00
07FFFFFFFF80
07FFFFFFFF80
07FFFFFFFFC0
07FFFFFFFFE0
07FFFFFFFFE0
07FFFFFFFFF0
07FFFFFFFFF0
07FFFFFFFFF0
07FFFFFFFFF0
07FF8001FFF0
07FF8001FFF0
07FF8000FFF0
07FF8000FFF0
07FF8000FFF0
07FF8000FFF0
07FF8000FFF0
07FF8000FFF0
07FF8000FFF0
07FF8000FFF0
07FF8000FFF0
FFFFFF00FFF0
FFFFFF00FFF0
FFFFFF00FFF0
FFFFFF00FFF0
FFFFFF00FFF0
FFFFFF00FFF0
FFFFFF00FFF0
FFFFFF00FFF0
07FF8000FFF0
07FF8000FFF0
07FF8000FFF0
07FF8000FFF0
07FF8000FFF0
07FF8000FFF0
07FF8000FFF0
07FF8000FFF0
07FF8000FFF0
07FF8001FFF0
07FF8003FFF0
07FFFFFFFFF0
07FFFFFFFFF0
07FFFFFFFFF0
07FFFFFFFFF0
07FFFFFFFFE0
07FFFFFFFFC0
07FFFFFFFFC0
07FFFFFFFF80
07FFFFFFFF00
07FFFFFFFF00
07FFFFFFFE00
07FFFFFFFC00
ENDCHAR
STARTCHAR 00D1
ENCODING 209
SWIDTH 565 0
DWIDTH 44 0
BBX 38 68 3 0
BITMAP
0007000000
001FE00000
007FFC0070
01FFFF81F0
07FFFFF7F0
0FFFFFFFF0
0FF87FFFF0
0FE01FFFF0
0FC003FF80
0F00007E00
0E00000800
0000000000
0000000000
0000000000
03F8003FFC
07F8003FFC
0FFC003FFC
1FFC003FFC
1FFC003FFC
3FFE003FFC
7FFE003FFC
7FFF003FFC
FFFF003FFC
FFFF803FFC
FFFF803FFC
FFFFC03FFC
FFFFC03FFC
FFFFC03FFC
FFFFE03FFC
FFFFE03FFC
FFFFF03FFC
FFFFF03FFC
FFFFF83FFC
FFFFF83FFC
FFFFFC3FFC
FFFFFC3FFC
FFFFFC3FFC
FFFFFE3FFC
FFFFFE3FFC
FFFFFF3FFC
FFFFFF3FFC
FFF3FFFFFC
FFF1FFFFFC
FFF1FFFFFC
FFF0FFFFFC
FFF0FFFFFC
FFF07FFFFC
FFF07FFFFC
FFF03FFFFC
FFF03FFFFC
FFF03FFFFC
FFF01FFFFC
FFF01FFFFC
FFF00FFFFC
FFF00FFFFC
FFF007FFFC
FFF007FFFC
FFF003FFFC
FFF003FFFC
FFF001FFFC
FFF001FFFC
FFF001FFF8
FFF000FFF0
FFF000FFE0
FFF0007FE0
FFF0007FC0
FFF0003F80
FFF0003F80
ENDCHAR
STARTCHAR 00D2
ENCODING 210
SWIDTH 617 0
DWIDTH 48 0
BBX 42 66 3 0
BITMAP
00F800000000
00FFC0000000
00FFFE000000
00FFFFF00000
00FFFFFF8000
00FFFFFFF000
001FFFFFF000
000007FFF000
000000001000
000000000000
000000000000
000000000000
03FFFFFFF800
07FFFFFFF800
0FFFFFFFFC00
1FFFFFFFFE00
1FFFFFFFFE00
3FFFFFFFFF00
7FFFFFFFFF80
7FFFFFFFFFC0
FFFFFFFFFFC0
FFFFFFFFFFC0
FFFFFFFFFFC0
FFFFFFFFFFC0
FFF80007FFC0
FFF80007FFC0
FFF00003FFC0
FFF00003FFC0
FFF00003FFC0
FFF00003FFC0
FFF00003FFC0
FFF00003FFC0
FFF00003FFC0
FFF00003FFC0
FFF00003FFC0
FFF00003FFC0
FFF00003FFC0
FFF00003FFC0
FFF00003FFC0
FFF00003FFC0
FFF00003FFC0
FFF00003FFC0
FFF00003FFC0
FFF00003FFC0
FFF00003FFC0
FFF00003FFC0
FFF00003FFC0
FFF00003FFC0
FFF00003FFC0
FFF00003FFC0
FFF00003FFC0
FFF00003FFC0
FFF80007FFC0
FFFC000FFFC0
FFFFFFFFFFC0
FFFFFFFFFFC0
FFFFFFFFFFC0
FFFFFFFFFFC0
7FFFFFFFFF80
3FFFFFFFFF80
3FFFFFFFFF00
1FFFFFFFFE00
0FFFFFFFFC00
07FFFFFFFC00
07FFFFFFF800
03FFFFFFF000
ENDCHAR
STARTCHAR 00D3
ENCODING 211
SWIDTH 617 0
DWIDTH 48 0
BBX 42 66 3 0
BITMAP
000000003000
00000FFFF000
001FFFFFF000
00FFFFFFF000
00FFFFFF8000
00FFFFF00000
00FFFE000000
00FFC0000000
00F800000000
000000000000
000000000000
000000000000
03FFFFFFF800
07FFFFFFF800
0FFFFFFFFC00
1FFFFFFFFE00
1FFFFFFFFE00
3FFFFFFFFF00
7FFFFFFFFF80
7FFFFFFFFFC0
FFFFFFFFFFC0
FFFFFFFFFFC0
FFFFFFFFFFC0
FFFFFFFFFFC0
FFF80007FFC0
FFF80007FFC0
FFF00003FFC0
FFF00003FFC0
FFF00003FFC0
FFF00003FFC0
FFF00003FFC0
FFF00003FFC0
FFF00003FFC0
FFF00003FFC0
FFF00003FFC0
FFF00003FFC0
FFF00003FFC0
FFF00003FFC0
FFF00003FFC0
FFF00003FFC0
FFF00003FFC0
FFF00003FFC0
FFF00003FFC0
FFF00003FFC0
FFF00003FFC0
FFF00003FFC0
FFF00003FFC0
FFF00003FFC0
FFF00003FFC0
FFF00003FFC0
FFF00003FFC0
FFF00003FFC0
FFF80007FFC0
FFFC000FFFC0
FFFFFFFFFFC0
FFFFFFFFFFC0
FFFFFFFFFFC0
FFFFFFFFFFC0
7FFFFFFFFF80
3FFFFFFFFF80
3FFFFFFFFF00
1FFFFFFFFE00
0FFFFFFFFC00
07FFFFFFFC00
07FFFFFFF800
03FFFFFFF000
ENDCHAR
STARTCHAR 00D4
ENCODING 212
SWIDTH 617 0
DWIDTH 48 0
BBX 42 67 3 0
BITMAP
001FFFFF0000
003FFFFF8000
007FFFFFC000
00FFFFFFE000
01FFFFFFF000
07FFFFFFF800
07FE000FF800
07F80007F800
07F00003F800
07E00001F800
000000000000
000000000000
000000000000
03FFFFFFF800
07FFFFFFF800
0FFFFFFFFC00
1FFFFFFFFE00
1FFFFFFFFE00
3FFFFFFFFF00
7FFFFFFFFF80
7FFFFFFFFFC0
FFFFFFFFFFC0
FFFFFFFFFFC0
FFFFFFFFFFC0
FFFFFFFFFFC0
FFF80007FFC0
FFF80007FFC0
FFF00003FFC0
FFF00003FFC0
FFF00003FFC0
FFF00003FFC0
FFF00003FFC0
FFF00003FFC0
FFF00003FFC0
FFF00003FFC0
FFF00003FFC0
FFF00003FFC0
FFF00003FFC0
FFF00003FFC0
FFF00003FFC0
FFF00003FFC0
FFF00003FFC0
FFF00003FFC0
FFF00003FFC0
FFF00003FFC0
FFF00003FFC0
FFF00003FFC0
FFF00003FFC0
FFF00003FFC0
FFF00003FFC0
FFF00003FFC0
FFF00003FFC0
FFF00003FFC0
FFF80007FFC0
FFFC000FFFC0
FFFFFFFFFFC0
FFFFFFFFFFC0
FFFFFFFFFFC0
FFFFFFFFFFC0
7FFFFFFFFF80
3FFFFFFFFF80
3FFFFFFFFF00
1FFFFFFFFE00
0FFFFFFFFC00
07FFFFFFFC00
07FFFFFFF800
03FFFFFFF000
ENDCHAR
STARTCHAR 00D5
ENCODING 213
SWIDTH 617 0
DWIDTH 48 0
BBX 42 68 3 0
BITMAP
0003C0000000
000FF8000000
003FFF003800
00FFFFC0F800
03FFFFFBF800
07FFFFFFF800
07FE3FFFF800
07F807FFF800
07E000FFE000
07C0001F0000
070000000000
000000000000
000000000000
000000000000
03FFFFFFF800
07FFFFFFF800
0FFFFFFFFC00
1FFFFFFFFE00
1FFFFFFFFE00
3FFFFFFFFF00
7FFFFFFFFF80
7FFFFFFFFFC0
FFFFFFFFFFC0
FFFFFFFFFFC0
FFFFFFFFFFC0
FFFFFFFFFFC0
FFF80007FFC0
FFF80007FFC0
FFF00003FFC0
FFF00003FFC0
FFF00003FFC0
FFF00003FFC0
FFF00003FFC0
FFF00003FFC0
FFF00003FFC0
FFF00003FFC0
FFF00003FFC0
FFF00003FFC0
FFF00003FFC0
FFF00003FFC0
FFF00003FFC0
FFF00003FFC0
FFF00003FFC0
FFF00003FFC0
FFF00003FFC0
FFF00003FFC0
FFF00003FFC0
FFF00003FFC0
FFF00003FFC0
FFF00003FFC0
FFF00003FFC0
FFF00003FFC0
FFF00003FFC0
FFF00003FFC0
FFF80007FFC0
FFFC000FFFC0
FFFFFFFFFFC0
FFFFFFFFFFC0
FFFFFFFFFFC0
FFFFFFFFFFC0
7FFFFFFFFF80
3FFFFFFFFF80
3FFFFFFFFF00
1FFFFFFFFE00
0FFFFFFFFC00
07FFFFFFFC00
07FFFFFFF800
03FFFFFFF000
ENDCHAR
STARTCHAR 00D6
ENCODING 214
SWIDTH 617 0
DWIDTH 48 0
BBX 42 65 3 0
BITMAP
001FC0FE0000
001FC0FE0000
001FC0FE0000
001FC0FE0000
001FC0FE0000
001FC0FE0000
001FC0FE0000
001FC0FE0000
000000000000
000000000000
000000000000
03FFFFFFF800
07FFFFFFF800
0FFFFFFFFC00
1FFFFFFFFE00
1FFFFFFFFE00
3FFFFFFFFF00
7FFFFFFFFF80
7FFFFFFFFFC0
FFFFFFFFFFC0
FFFFFFFFFFC0
FFFFFFFFFFC0
FFFFFFFFFFC0
FFF80007FFC0
FFF80007FFC0
FFF00003FFC0
FFF00003FFC0
FFF00003FFC0
FFF00003FFC0
FFF00003FFC0
FFF00003FFC0
FFF00003FFC0
FFF00003FFC0
FFF00003FFC0
FFF00003FFC0
FFF00003FFC0
FFF00003FFC0
FFF00003FFC0
FFF00003FFC0
FFF00003FFC0
FFF00003FFC0
FFF00003FFC0
FFF00003FFC0
FFF00003FFC0
FFF00003FFC0
FFF00003FFC0
FFF00003FFC0
FFF00003FFC0
FFF00003FFC0
FFF00003FFC0
FFF00003FFC0
FFF80007FFC0
FFFC000FFFC0
FFFFFFFFFFC0
FFFFFFFFFFC0
FFFFFFFFFFC0
FFFFFFFFFFC0
7FFFFFFFFF80
3FFFFFFFFF80
3FFFFFFFFF00
1FFFFFFFFE00
0FFFFFFFFC00
07FFFFFFFC00
07FFFFFFF800
03FFFFFFF000
ENDCHAR
STARTCHAR 00D7
ENCODING 215
SWIDTH 398 0
DWIDTH 31 0
BBX 28 25 2 14
BITMAP
0E000700
1F000F80
3F801FC0
7FC03FE0
FFE07FF0
FFF1FFF0
3FFFFFC0
1FFFFF80
0FFFFF00
07FFFE00
03FFFC00
00FFF000
01FFF800
03FFFC00
07FFFE00
1FFFFF00
3FFFFFC0
7FF9FFE0
FFF0FFF0
FFE07FF0
7FC03FE0
3F001FC0
1E000780
1C000300
08000100
ENDCHAR
STARTCHAR 00D8
ENCODING 216
SWIDTH 617 0
DWIDTH 48 0
BBX 42 67 3 -6
BITMAP
00000000FF80
00000000FF80
00000001FF00
00000001FF00
00000003FE00
00000003FE00
00000003FC00
03FFFFFFFC00
07FFFFFFF800
0FFFFFFFFC00
1FFFFFFFFE00
1FFFFFFFFE00
3FFFFFFFFF00
7FFFFFFFFF80
7FFFFFFFFFC0
FFFFFFFFFFC0
FFFFFFFFFFC0
FFFFFFFFFFC0
FFFFFFFFFFC0
FFF801FFFFC0
FFF801FFFFC0
FFF001FFFFC0
FFF003FFFFC0
FFF003FFFFC0
FFF007FFFFC0
FFF007FBFFC0
FFF00FFBFFC0
FFF00FF3FFC0
FFF01FF3FFC0
FFF01FE3FFC0
FFF03FE3FFC0
FFF03FC3FFC0
FFF07FC3FFC0
FFF07FC3FFC0
FFF0FF83FFC0
FFF0FF83FFC0
FFF1FF03FFC0
FFF1FF03FFC0
FFF1FE03FFC0
FFF3FE03FFC0
FFF3FC03FFC0
FFF7FC03FFC0
FFF7F803FFC0
FFFFF803FFC0
FFFFF003FFC0
FFFFF003FFC0
FFFFE003FFC0
FFFFE007FFC0
FFFFC00FFFC0
FFFFFFFFFFC0
FFFFFFFFFFC0
FFFFFFFFFFC0
FFFFFFFFFFC0
7FFFFFFFFF80
3FFFFFFFFF80
3FFFFFFFFF00
1FFFFFFFFE00
0FFFFFFFFC00
07FFFFFFFC00
07FFFFFFF800
0FFFFFFFF000
0FF000000000
1FF000000000
1FE000000000
3FE000000000
3FC000000000
3FC000000000
ENDCHAR
STARTCHAR 00D9
ENCODING 217
SWIDTH 604 0
DWIDTH 47 0
BBX 42 66 3 0
BITMAP
01F800000000
01FFC0000000
01FFFE000000
01FFFFF00000
01FFFFFF0000
00FFFFFFE000
001FFFFFE000
00000FFFE000
000000002000
000000000000
000000000000
000000000000
FFF00003FFC0
FFF00003FFC0
FFF00003FFC0
FFF00003FFC0
FFF00003FFC0
FFF00003FFC0
FFF00003FFC0
FFF00003FFC0
FFF00003FFC0
FFF00003FFC0
FFF00003FFC0
FFF00003FFC0
FFF00003FFC0
FFF00003FFC0
FFF00003FFC0
FFF00003FFC0
FFF00003FFC0
FFF00003FFC0
FFF00003FFC0
FFF00003FFC0
FFF00003FFC0
FFF00003FFC0
FFF00003FFC0
FFF00003FFC0
FFF00003FFC0
FFF00003FFC0
FFF00003FFC0
FFF00003FFC0
FFF00003FFC0
FFF00003FFC0
FFF00003FFC0
FFF00003FFC0
FFF00003FFC0
FFF00003FFC0
FFF00003FFC0
FFF00003FFC0
FFF00003FFC0
FFF00003FFC0
FFF00003FFC0
FFF00007FFC0
FFF80007FFC0
FFFC000FFFC0
FFFFFFFFFFC0
FFFFFFFFFFC0
FFFFFFFFFFC0
FFFFFFFFFF80
7FFFFFFFFF80
3FFFFFFFFF00
3FFFFFFFFE00
1FFFFFFFFE00
0FFFFFFFFC00
07FFFFFFF800
07FFFFFFF000
03FFFFFFF000
ENDCHAR
STARTCHAR 00DA
ENCODING 218
SWIDTH 604 0
DWIDTH 47 0
BBX 42 66 3 0
BITMAP
000000006000
00000FFFE000
001FFFFFE000
00FFFFFFE000
01FFFFFF0000
01FFFFE00000
01FFFC000000
01FFC0000000
01F800000000
000000000000
000000000000
000000000000
FFF00003FFC0
FFF00003FFC0
FFF00003FFC0
FFF00003FFC0
FFF00003FFC0
FFF00003FFC0
FFF00003FFC0
FFF00003FFC0
FFF00003FFC0
FFF00003FFC0
FFF00003FFC0
FFF00003FFC0
FFF00003FFC0
FFF00003FFC0
FFF00003FFC0
FFF00003FFC0
FFF00003FFC0
FFF00003FFC0
FFF00003FFC0
FFF00003FFC0
FFF00003FFC0
FFF00003FFC0
FFF00003FFC0
FFF00003FFC0
FFF00003FFC0
FFF00003FFC0
FFF00003FFC0
FFF00003FFC0
FFF00003FFC0
FFF00003FFC0
FFF00003FFC0
FFF00003FFC0
FFF00003FFC0
FFF00003FFC0
FFF00003FFC0
FFF00003FFC0
FFF00003FFC0
FFF00003FFC0
FFF00003FFC0
FFF00007FFC0
FFF80007FFC0
FFFC000FFFC0
FFFFFFFFFFC0
FFFFFFFFFFC0
FFFFFFFFFFC0
FFFFFFFFFF80
7FFFFFFFFF80
3FFFFFFFFF00
3FFFFFFFFE00
1FFFFFFFFE00
0FFFFFFFFC00
07FFFFFFF800
07FFFFFFF000
03FFFFFFF000
ENDCHAR
STARTCHAR 00DB
ENCODING 219
SWIDTH 604 0
DWIDTH 47 0
BBX 42 67 3 0
BITMAP
003FFFFE0000
007FFFFF0000
00FFFFFF8000
01FFFFFFC000
03FFFFFFE000
07FFFFFFF800
07FC001FF800
07F80007F800
07F00003F800
07E00001F800
000000000000
000000000000
000000000000
FFF00003FFC0
FFF00003FFC0
FFF00003FFC0
FFF00003FFC0
FFF00003FFC0
FFF00003FFC0
FFF00003FFC0
FFF00003FFC0
FFF00003FFC0
FFF00003FFC0
FFF00003FFC0
FFF00003FFC0
FFF00003FFC0
FFF00003FFC0
FFF00003FFC0
FFF00003FFC0
FFF00003FFC0
FFF00003FFC0
FFF00003FFC0
FFF00003FFC0
FFF00003FFC0
FFF00003FFC0
FFF00003FFC0
FFF00003FFC0
FFF00003FFC0
FFF00003FFC0
FFF00003FFC0
FFF00003FFC0
FFF00003FFC0
FFF00003FFC0
FFF00003FFC0
FFF00003FFC0
FFF00003FFC0
FFF00003FFC0
FFF00003FFC0
FFF00003FFC0
FFF00003FFC0
FFF00003FFC0
FFF00003FFC0
FFF00007FFC0
FFF80007FFC0
FFFC000FFFC0
FFFFFFFFFFC0
FFFFFFFFFFC0
FFFFFFFFFFC0
FFFFFFFFFF80
7FFFFFFFFF80
3FFFFFFFFF00
3FFFFFFFFE00
1FFFFFFFFE00
0FFFFFFFFC00
07FFFFFFF800
07FFFFFFF000
03FFFFFFF000
ENDCHAR
STARTCHAR 00DC
ENCODING 220
SWIDTH 604 0
DWIDTH 47 0
BBX 42 65 3 0
BITMAP
001FC0FE0000
001FC0FE0000
001FC0FE0000
001FC0FE0000
001FC0FE0000
001FC0FE0000
001FC0FE0000
001FC0FE0000
000000000000
000000000000
000000000000
FFF00003FFC0
FFF00003FFC0
FFF00003FFC0
FFF00003FFC0
FFF00003FFC0
FFF00003FFC0
FFF00003FFC0
FFF00003FFC0
FFF00003FFC0
FFF00003FFC0
FFF00003FFC0
FFF00003FFC0
FFF00003FFC0
FFF00003FFC0
FFF00003FFC0
FFF00003FFC0
FFF00003FFC0
FFF00003FFC0
FFF00003FFC0
FFF00003FFC0
FFF00003FFC0
FFF00003FFC0
FFF00003FFC0
FFF00003FFC0
FFF00003FFC0
FFF00003FFC0
FFF00003FFC0
FFF00003FFC0
FFF00003FFC0
FFF00003FFC0
FFF00003FFC0
FFF00003FFC0
FFF00003FFC0
FFF00003FFC0
FFF00003FFC0
FFF00003FFC0
FFF00003FFC0
FFF00003FFC0
FFF00003FFC0
FFF00007FFC0
FFF80007FFC0
FFFC000FFFC0
FFFFFFFFFFC0
FFFFFFFFFFC0
FFFFFFFFFFC0
FFFFFFFFFF80
7FFFFFFFFF80
3FFFFFFFFF00
3FFFFFFFFE00
1FFFFFFFFE00
0FFFFFFFFC00
07FFFFFFF800
07FFFFFFF000
03FFFFFFF000
ENDCHAR
STARTCHAR 00DD
ENCODING 221
SWIDTH 462 0
DWIDTH 36 0
BBX 36 66 0 0
BITMAP
0000000300
0000FFFF00
00FFFFFF00
0FFFFFFF00
0FFFFFF800
0FFFFF0000
0FFFE00000
0FFC000000
0F80000000
0000000000
0000000000
0000000000
FFF0007FF0
FFF0007FF0
FFF000FFF0
FFF800FFF0
FFF800FFF0
FFF801FFF0
7FFC01FFF0
7FFC01FFE0
3FFC03FFE0
3FFE03FFE0
1FFE03FFC0
1FFE07FFC0
1FFF07FF80
0FFF07FF80
0FFF0FFF00
07FF8FFF00
07FF8FFE00
03FFDFFE00
03FFDFFE00
01FFDFFC00
01FFFFFC00
01FFFFF800
00FFFFF800
00FFFFF000
007FFFF000
007FFFF000
003FFFE000
003FFFE000
001FFFC000
001FFFC000
001FFF8000
000FFF8000
000FFF0000
000FFF0000
000FFF0000
000FFF0000
000FFF0000
000FFF0000
000FFF0000
000FFF0000
000FFF0000
000FFF0000
000FFF0000
000FFF0000
000FFF0000
000FFF0000
000FFF0000
000FFF0000
000FFF0000
000FFF0000
000FFF0000
000FFF0000
000FFF0000
000FFF0000
ENDCHAR
STARTCHAR 00DE
ENCODING 222
SWIDTH 540 0
DWIDTH 42 0
BBX 36 63 3 0
BITMAP
FFF0000000
FFF0000000
FFF0000000
FFF0000000
FFF0000000
FFF0000000
FFF0000000
FFF0000000
FFF0000000
FFFFFFFE00
FFFFFFFE00
FFFFFFFF00
FFFFFFFF80
FFFFFFFF80
FFFFFFFFC0
FFFFFFFFE0
FFFFFFFFF0
FFFFFFFFF0
FFFFFFFFF0
FFFFFFFFF0
FFFFFFFFF0
FFF001FFF0
FFF001FFF0
FFF000FFF0
FFF000FFF0
FFF000FFF0
FFF000FFF0
FFF000FFF0
FFF000FFF0
FFF000FFF0
FFF000FFF0
FFF001FFF0
FFF003FFF0
FFFFFFFFF0
FFFFFFFFF0
FFFFFFFFF0
FFFFFFFFF0
FFFFFFFFE0
FFFFFFFFE0
FFFFFFFFC0
FFFFFFFF80
FFFFFFFF00
FFFFFFFF00
FFFFFFFE00
FFFFFFFC00
FFF0000000
FFF0000000
FFF0000000
FFF0000000
FFF0000000
FFF0000000
FFF0000000
FFF0000000
FFF0000000
FFF0000000
FFF0000000
FFF0000000
FFF0000000
FFF0000000
FFF0000000
FFF0000000
FFF0000000
FFF0000000
ENDCHAR
STARTCHAR 00DF
ENCODING 223
SWIDTH 578 0
DWIDTH 45 0
BBX 39 54 3 0
BITMAP
03FFFFFF80
07FFFFFFC0
0FFFFFFFE0
1FFFFFFFF0
1FFFFFFFF0
3FFFFFFFF8
7FFFFFFFFC
7FFFFFFFFC
FFFFFFFFFE
FFFFFFFFFE
FFF0007FFE
FFF0003FFE
FFF0001FFE
FFF0001FFE
FFF0001FFE
FFF0001FFE
FFF0001FFE
FFF0001FFE
FFF0001FFE
FFF0001FFE
FFF0001FFE
FFF07FFFFE
FFF07FFFFE
FFF0FFFFFC
FFF0FFFFF8
FFF0FFFFE0
FFF0FFFFE0
FFF0FFFFF0
FFF0FFFFF8
FFF0FFFFFE
FFF0FFFFFE
FFF07FFFFE
FFF03FFFFE
FFF0001FFE
FFF0001FFE
FFF0001FFE
FFF0001FFE
FFF0001FFE
FFF0001FFE
FFF0001FFE
FFF0001FFE
FFF0003FFE
FFF0003FFE
FFF0FFFFFE
FFF0FFFFFE
FFF0FFFFFE
FFF0FFFFFC
FFF0FFFFF8
FFF0FFFFF8
FFF0FFFFF0
FFF0FFFFE0
FFF0FFFFE0
FFF0FFFFC0
FFF0FFFF80
ENDCHAR
STARTCHAR 00E0
ENCODING 224
SWIDTH 578 0
DWIDTH 45 0
BBX 44 66 1 0
BITMAP
01F800000000
01FFC0000000
01FFFE000000
01FFFFF00000
01FFFFFF0000
00FFFFFFE000
001FFFFFE000
00000FFFE000
000000002000
000000000000
000000000000
000000000000
001FFFFF0000
001FFFFF8000
003FFFFFC000
003FFFFFC000
003FFFFFC000
007FFFFFC000
007FFFFFC000
007FFFFFE000
007FFFFFE000
007FFFFFE000
00FFFFFFE000
00FFFFFFE000
00FFC07FF000
00FFC07FF000
00FFC03FF000
01FFC03FF000
01FFC03FF000
01FF803FF800
01FF803FF800
01FF803FF800
03FF801FF800
03FF801FF800
03FF801FFC00
03FF801FFC00
03FF001FFC00
07FF001FFC00
07FF001FFC00
07FF000FFE00
07FF000FFE00
07FF000FFE00
0FFE000FFE00
0FFE000FFE00
0FFF000FFF00
0FFF801FFF00
0FFFFFFFFF00
1FFFFFFFFF00
1FFFFFFFFF00
1FFFFFFFFF80
1FFFFFFFFF80
1FFFFFFFFF80
3FFFFFFFFF80
3FFDFFFBFF80
3FFCFFF3FFC0
3FFC0003FFC0
3FF80003FFC0
7FF80003FFC0
7FF80003FFC0
7FF80001FFE0
7FF80001FFE0
7FF80001FFE0
FFF00001FFE0
FFF00001FFE0
FFF00001FFF0
FFF00000FFF0
ENDCHAR
STARTCHAR 00E1
ENCODING 225
SWIDTH 578 0
DWIDTH 45 0
BBX 44 66 1 0
BITMAP
000000006000
00000FFFE000
001FFFFFE000
01FFFFFFE000
01FFFFFF0000
01FFFFE00000
01FFFC000000
01FF80000000
01F800000000
000000000000
000000000000
000000000000
001FFFFF0000
001FFFFF8000
003FFFFFC000
003FFFFFC000
003FFFFFC000
007FFFFFC000
007FFFFFC000
007FFFFFE000
007FFFFFE000
007FFFFFE000
00FFFFFFE000
00FFFFFFE000
00FFC07FF000
00FFC07FF000
00FFC03FF000
01FFC03FF000
01FFC03FF000
01FF803FF800
01FF803FF800
01FF803FF800
03FF801FF800
03FF801FF800
03FF801FFC00
03FF801FFC00
03FF001FFC00
07FF001FFC00
07FF001FFC00
07FF000FFE00
07FF000FFE00
07FF000FFE00
0FFE000FFE00
0FFE000FFE00
0FFF000FFF00
0FFF801FFF00
0FFFFFFFFF00
1FFFFFFFFF00
1FFFFFFFFF00
1FFFFFFFFF80
1FFFFFFFFF80
1FFFFFFFFF80
3FFFFFFFFF80
3FFDFFFBFF80
3FFCFFF3FFC0
3FFC0003FFC0
3FF80003FFC0
7FF80003FFC0
7FF80003FFC0
7FF80001FFE0
7FF80001FFE0
7FF80001FFE0
FFF00001FFE0
FFF00001FFE0
FFF00001FFF0
FFF00000FFF0
ENDCHAR
STARTCHAR 00E2
ENCODING 226
SWIDTH 578 0
DWIDTH 45 0
BBX 44 67 1 0
BITMAP
001FFFFF0000
003FFFFF8000
007FFFFFC000
00FFFFFFE000
01FFFFFFF000
03FFFFFFF800
07FE000FF800
07FC0007F800
07F00003F800
07E00001F800
000000000000
000000000000
000000000000
001FFFFF0000
001FFFFF8000
003FFFFFC000
003FFFFFC000
003FFFFFC000
007FFFFFC000
007FFFFFC000
007FFFFFE000
007FFFFFE000
007FFFFFE000
00FFFFFFE000
00FFFFFFE000
00FFC07FF000
00FFC07FF000
00FFC03FF000
01FFC03FF000
01FFC03FF000
01FF803FF800
01FF803FF800
01FF803FF800
03FF801FF800
03FF801FF800
03FF801FFC00
03FF801FFC00
03FF001FFC00
07FF001FFC00
07FF001FFC00
07FF000FFE00
07FF000FFE00
07FF000FFE00
0FFE000FFE00
0FFE000FFE00
0FFF000FFF00
0FFF801FFF00
0FFFFFFFFF00
1FFFFFFFFF00
1FFFFFFFFF00
1FFFFFFFFF80
1FFFFFFFFF80
1FFFFFFFFF80
3FFFFFFFFF80
3FFDFFFBFF80
3FFCFFF3FFC0
3FFC0003FFC0
3FF80003FFC0
7FF80003FFC0
7FF80003FFC0
7FF80001FFE0
7FF80001FFE0
7FF80001FFE0
FFF00001FFE0
FFF00001FFE0
FFF00001FFF0
FFF00000FFF0
ENDCHAR
STARTCHAR 00E3
ENCODING 227
SWIDTH 578 0
DWIDTH 45 0
BBX 44 68 1 0
BITMAP
0001C0000000
0007F8000000
001FFF001C00
007FFFE07C00
01FFFFFDFC00
03FFFFFFFC00
03FE3FFFFC00
03F807FFFC00
03F000FFE000
03C0001F8000
038000020000
000000000000
000000000000
000000000000
001FFFFF0000
001FFFFF8000
003FFFFFC000
003FFFFFC000
003FFFFFC000
007FFFFFC000
007FFFFFC000
007FFFFFE000
007FFFFFE000
007FFFFFE000
00FFFFFFE000
00FFFFFFE000
00FFC07FF000
00FFC07FF000
00FFC03FF000
01FFC03FF000
01FFC03FF000
01FF803FF800
01FF803FF800
01FF803FF800
03FF801FF800
03FF801FF800
03FF801FFC00
03FF801FFC00
03FF001FFC00
07FF001FFC00
07FF001FFC00
07FF000FFE00
07FF000FFE00
07FF000FFE00
0FFE000FFE00
0FFE000FFE00
0FFF000FFF00
0FFF801FFF00
0FFFFFFFFF00
1FFFFFFFFF00
1FFFFFFFFF00
1FFFFFFFFF80
1FFFFFFFFF80
1FFFFFFFFF80
3FFFFFFFFF80
3FFDFFFBFF80
3FFCFFF3FFC0
3FFC0003FFC0
3FF80003FFC0
7FF80003FFC0
7FF80003FFC0
7FF80001FFE0
7FF80001FFE0
7FF80001FFE0
FFF00001FFE0
FFF00001FFE0
FFF00001FFF0
FFF00000FFF0
ENDCHAR
STARTCHAR 00E4
ENCODING 228
SWIDTH 578 0
DWIDTH 45 0
BBX 44 65 1 0
BITMAP
000FE0FF0000
000FE0FF0000
000FE0FF0000
000FE0FF0000
000FE0FF0000
000FE0FF0000
000FE0FF0000
000FE0FF0000
000000000000
000000000000
000000000000
001FFFFF0000
001FFFFF8000
003FFFFFC000
003FFFFFC000
003FFFFFC000
007FFFFFC000
007FFFFFC000
007FFFFFE000
007FFFFFE000
007FFFFFE000
00FFFFFFE000
00FFFFFFE000
00FFC07FF000
00FFC07FF000
00FFC03FF000
01FFC03FF000
01FFC03FF000
01FF803FF800
01FF803FF800
01FF803FF800
03FF801FF800
03FF801FF800
03FF801FFC00
03FF801FFC00
03FF001FFC00
07FF001FFC00
07FF001FFC00
07FF000FFE00
07FF000FFE00
07FF000FFE00
0FFE000FFE00
0FFE000FFE00
0FFF000FFF00
0FFF801FFF00
0FFFFFFFFF00
1FFFFFFFFF00
1FFFFFFFFF00
1FFFFFFFFF80
1FFFFFFFFF80
1FFFFFFFFF80
3FFFFFFFFF80
3FFDFFFBFF80
3FFCFFF3FFC0
3FFC0003FFC0
3FF80003FFC0
7FF80003FFC0
7FF80003FFC0
7FF80001FFE0
7FF80001FFE0
7FF80001FFE0
FFF00001FFE0
FFF00001FFE0
FFF00001FFF0
FFF00000FFF0
ENDCHAR
STARTCHAR 00E5
ENCODING 229
SWIDTH 578 0
DWIDTH 45 0
BBX 44 69 1 0
BITMAP
00003FC00000
00007FE00000
0000FFE00000
0000FFE00000
0000F0E00000
0000F0E00000
0000F0E00000
0000F0E00000
0000FFE00000
00007FE00000
00007FC00000
00003FC00000
000000000000
000000000000
000000000000
001FFFFF0000
001FFFFF8000
003FFFFFC000
003FFFFFC000
003FFFFFC000
007FFFFFC000
007FFFFFC000
007FFFFFE000
007FFFFFE000
007FFFFFE000
00FFFFFFE000
00FFFFFFE000
00FFC07FF000
00FFC07FF000
00FFC03FF000
01FFC03FF000
01FFC03FF000
01FF803FF800
01FF803FF800
01FF803FF800
03FF801FF800
03FF801FF800
03FF801FFC00
03FF801FFC00
03FF001FFC00
07FF001FFC00
07FF001FFC00
07FF000FFE00
07FF000FFE00
07FF000FFE00
0FFE000FFE00
0FFE000FFE00
0FFF000FFF00
0FFF801FFF00
0FFFFFFFFF00
1FFFFFFFFF00
1FFFFFFFFF00
1FFFFFFFFF80
1FFFFFFFFF80
1FFFFFFFFF80
3FFFFFFFFF80
3FFDFFFBFF80
3FFCFFF3FFC0
3FFC0003FFC0
3FF80003FFC0
7FF80003FFC0
7FF80003FFC0
7FF80001FFE0
7FF80001FFE0
7FF80001FFE0
FFF00001FFE0
FFF00001FFE0
FFF00001FFF0
FFF00000FFF0
ENDCHAR
STARTCHAR 00E6
ENCODING 230
SWIDTH 835 0
DWIDTH 65 0
BBX 61 54 1 0
BITMAP
001FFFFFFFFFFF00
001FFFFFFFFFFF00
003FFFFFFFFFFF80
003FFFFFFFFFFFC0
003FFFFFFFFFFFE0
007FFFFFFFFFFFE0
007FFFFFFFFFFFF0
007FFFFFFFFFFFF8
007FFFFFFFFFFFF8
007FFFFFFFFFFFF8
00FFFFFFFFFFFFF8
00FFFFFFFFFFFFF8
00FFC07FF8001FF8
00FFC07FF8001FF8
00FFC07FF8000000
01FFC07FF8000000
01FFC07FF8000000
01FF807FF8000000
01FF807FF8000000
01FF807FF8000000
03FF807FF8000000
03FF807FF8000000
03FF807FFFFFF000
03FF807FFFFFF000
03FF007FFFFFF000
07FF007FFFFFF000
07FF007FFFFFF000
07FF007FFFFFF000
07FF007FFFFFF000
07FF007FFFFFF000
0FFE007FFFFFF000
0FFE007FF8000000
0FFF007FF8000000
0FFF807FF8000000
0FFFFFFFF8000000
1FFFFFFFF8000000
1FFFFFFFF8000000
1FFFFFFFF8000000
1FFFFFFFF8000000
1FFFFFFFF8000FF8
3FFFFFFFF8001FF8
3FFDFFFFF8003FF8
3FFCFFFFFFFFFFF8
3FFC007FFFFFFFF8
3FF8007FFFFFFFF8
7FF8007FFFFFFFF8
7FF8007FFFFFFFF0
7FF8007FFFFFFFF0
7FF8007FFFFFFFE0
7FF8007FFFFFFFC0
FFF0007FFFFFFFC0
FFF0007FFFFFFF80
FFF0007FFFFFFF00
FFF0007FFFFFFE00
ENDCHAR
STARTCHAR 00E7
ENCODING 231
SWIDTH 540 0
DWIDTH 42 0
BBX 36 65 3 -11
BITMAP
FFFFFFFE00
FFFFFFFF00
FFFFFFFF00
FFFFFFFF80
FFFFFFFFC0
FFFFFFFFC0
FFFFFFFFE0
FFFFFFFFF0
FFFFFFFFF0
FFFFFFFFF0
FFFFFFFFF0
FFFFFFFFF0
FFF000FFF0
FFF000FFF0
FFF0000000
FFF0000000
FFF0000000
FFF0000000
FFF0000000
FFF0000000
FFF0000000
FFF0000000
FFF0000000
FFF0000000
FFF0000000
FFF0000000
FFF0000000
FFF0000000
FFF0000000
FFF0000000
FFF0000000
FFF0000000
FFF0000000
FFF0000000
FFF0000000
FFF0000000
FFF0000000
FFF0000000
FFF0000000
FFF0007FF0
FFF000FFF0
FFF001FFF0
FFFFFFFFF0
FFFFFFFFF0
FFFFFFFFF0
FFFFFFFFF0
FFFFFFFFF0
FFFFFFFFE0
FFFFFFFFC0
FFFFFFFF80
FFFFFFFF80
FFFFFFFF00
FFFFFFFE00
FFFFFFFE00
00003C0000
00007C0000
0000780000
0003F80000
0003F80000
0003F80000
0000F80000
0000F80000
001FF80000
003FF00000
003FE00000
ENDCHAR
STARTCHAR 00E8
ENCODING 232
SWIDTH 540 0
DWIDTH 42 0
BBX 36 66 3 0
BITMAP
0F80000000
0FFC000000
0FFFE00000
0FFFFF0000
0FFFFFF800
0FFFFFFF00
01FFFFFF00
00007FFF00
0000000300
0000000000
0000000000
0000000000
FFFFFFFE00
FFFFFFFE00
FFFFFFFF00
FFFFFFFF80
FFFFFFFFC0
FFFFFFFFC0
FFFFFFFFE0
FFFFFFFFF0
FFFFFFFFF0
FFFFFFFFF0
FFFFFFFFF0
FFFFFFFFF0
FFF0007FF0
FFF0003FF0
FFF0000000
FFF0000000
FFF0000000
FFF0000000
FFF0000000
FFF0000000
FFF0000000
FFF0000000
FFFFFFE000
FFFFFFE000
FFFFFFE000
FFFFFFE000
FFFFFFE000
FFFFFFE000
FFFFFFE000
FFFFFFE000
FFFFFFE000
FFF0000000
FFF0000000
FFF0000000
FFF0000000
FFF0000000
FFF0000000
FFF0000000
FFF0000000
FFF0001FF0
FFF0003FF0
FFF0007FF0
FFFFFFFFF0
FFFFFFFFF0
FFFFFFFFF0
FFFFFFFFF0
FFFFFFFFE0
FFFFFFFFE0
FFFFFFFFC0
FFFFFFFF80
FFFFFFFF00
FFFFFFFF00
FFFFFFFE00
FFFFFFFC00
ENDCHAR
STARTCHAR 00E9
ENCODING 233
SWIDTH 540 0
DWIDTH 42 0
BBX 36 66 3 0
BITMAP
0000000700
0000FFFF00
01FFFFFF00
0FFFFFFF00
0FFFFFF000
0FFFFF0000
0FFFE00000
0FFC000000
0F80000000
0000000000
0000000000
0000000000
FFFFFFFE00
FFFFFFFE00
FFFFFFFF00
FFFFFFFF80
FFFFFFFFC0
FFFFFFFFC0
FFFFFFFFE0
FFFFFFFFF0
FFFFFFFFF0
FFFFFFFFF0
FFFFFFFFF0
FFFFFFFFF0
FFF0007FF0
FFF0003FF0
FFF0000000
FFF0000000
FFF0000000
FFF0000000
FFF0000000
FFF0000000
FFF0000000
FFF0000000
FFFFFFE000
FFFFFFE000
FFFFFFE000
FFFFFFE000
FFFFFFE000
FFFFFFE000
FFFFFFE000
FFFFFFE000
FFFFFFE000
FFF0000000
FFF0000000
FFF0000000
FFF0000000
FFF0000000
FFF0000000
FFF0000000
FFF0000000
FFF0001FF0
FFF0003FF0
FFF0007FF0
FFFFFFFFF0
FFFFFFFFF0
FFFFFFFFF0
FFFFFFFFF0
FFFFFFFFE0
FFFFFFFFE0
FFFFFFFFC0
FFFFFFFF80
FFFFFFFF00
FFFFFFFF00
FFFFFFFE00
FFFFFFFC00
ENDCHAR
STARTCHAR 00EA
ENCODING 234
SWIDTH 540 0
DWIDTH 42 0
BBX 36 67 3 0
BITMAP
03FFFFC000
07FFFFE000
0FFFFFF800
3FFFFFFC00
7FFFFFFE00
FFFFFFFF00
FF8001FF00
FF0000FF00
FE00007F00
FC00003F00
0000000000
0000000000
0000000000
FFFFFFFE00
FFFFFFFE00
FFFFFFFF00
FFFFFFFF80
FFFFFFFFC0
FFFFFFFFC0
FFFFFFFFE0
FFFFFFFFF0
FFFFFFFFF0
FFFFFFFFF0
FFFFFFFFF0
FFFFFFFFF0
FFF0007FF0
FFF0003FF0
FFF0000000
FFF0000000
FFF0000000
FFF0000000
FFF0000000
FFF0000000
FFF0000000
FFF0000000
FFFFFFE000
FFFFFFE000
FFFFFFE000
FFFFFFE000
FFFFFFE000
FFFFFFE000
FFFFFFE000
FFFFFFE000
FFFFFFE000
FFF0000000
FFF0000000
FFF0000000
FFF0000000
FFF0000000
FFF0000000
FFF0000000
FFF0000000
FFF0001FF0
FFF0003FF0
FFF0007FF0
FFFFFFFFF0
FFFFFFFFF0
FFFFFFFFF0
FFFFFFFFF0
FFFFFFFFE0
FFFFFFFFE0
FFFFFFFFC0
FFFFFFFF80
FFFFFFFF00
FFFFFFFF00
FFFFFFFE00
FFFFFFFC00
ENDCHAR
STARTCHAR 00EB
ENCODING 235
SWIDTH 540 0
DWIDTH 42 0
BBX 36 65 3 0
BITMAP
03F81FC000
03F81FC000
03F81FC000
03F81FC000
03F81FC000
03F81FC000
03F81FC000
03F81FC000
0000000000
0000000000
0000000000
FFFFFFFE00
FFFFFFFE00
FFFFFFFF00
FFFFFFFF80
FFFFFFFFC0
FFFFFFFFC0
FFFFFFFFE0
FFFFFFFFF0
FFFFFFFFF0
FFFFFFFFF0
FFFFFFFFF0
FFFFFFFFF0
FFF0007FF0
FFF0003FF0
FFF0000000
FFF0000000
FFF0000000
FFF0000000
FFF0000000
FFF0000000
FFF0000000
FFF0000000
FFFFFFE000
FFFFFFE000
FFFFFFE000
FFFFFFE000
FFFFFFE000
FFFFFFE000
FFFFFFE000
FFFFFFE000
FFFFFFE000
FFF0000000
FFF0000000
FFF0000000
FFF0000000
FFF0000000
FFF0000000
FFF0000000
FFF0000000
FFF0001FF0
FFF0003FF0
FFF0007FF0
FFFFFFFFF0
FFFFFFFFF0
FFFFFFFFF0
FFFFFFFFF0
FFFFFFFFE0
FFFFFFFFE0
FFFFFFFFC0
FFFFFFFF80
FFFFFFFF00
FFFFFFFF00
FFFFFFFE00
FFFFFFFC00
ENDCHAR
STARTCHAR 00EC
ENCODING 236
SWIDTH 231 0
DWIDTH 18 0
BBX 28 66 -5 0
BITMAP
FC000000
FFC00000
FFFE0000
FFFFF000
FFFFFF80
FFFFFFF0
0FFFFFF0
0007FFF0
00000010
00000000
00000000
00000000
00FFF000
00FFF000
00FFF000
00FFF000
00FFF000
00FFF000
00FFF000
00FFF000
00FFF000
00FFF000
00FFF000
00FFF000
00FFF000
00FFF000
00FFF000
00FFF000
00FFF000
00FFF000
00FFF000
00FFF000
00FFF000
00FFF000
00FFF000
00FFF000
00FFF000
00FFF000
00FFF000
00FFF000
00FFF000
00FFF000
00FFF000
00FFF000
00FFF000
00FFF000
00FFF000
00FFF000
00FFF000
00FFF000
00FFF000
00FFF000
00FFF000
00FFF000
00FFF000
00FFF000
00FFF000
00FFF000
00FFF000
00FFF000
00FFF000
00FFF000
00FFF000
00FFF000
00FFF000
00FFF000
ENDCHAR
STARTCHAR 00ED
ENCODING 237
SWIDTH 231 0
DWIDTH 18 0
BBX 28 66 -5 0
BITMAP
00000030
000FFFF0
1FFFFFF0
FFFFFFF0
FFFFFF80
FFFFF000
FFFE0000
FFC00000
F8000000
00000000
00000000
00000000
00FFF000
00FFF000
00FFF000
00FFF000
00FFF000
00FFF000
00FFF000
00FFF000
00FFF000
00FFF000
00FFF000
00FFF000
00FFF000
00FFF000
00FFF000
00FFF000
00FFF000
00FFF000
00FFF000
00FFF000
00FFF000
00FFF000
00FFF000
00FFF000
00FFF000
00FFF000
00FFF000
00FFF000
00FFF000
00FFF000
00FFF000
00FFF000
00FFF000
00FFF000
00FFF000
00FFF000
00FFF000
00FFF000
00FFF000
00FFF000
00FFF000
00FFF000
00FFF000
00FFF000
00FFF000
00FFF000
00FFF000
00FFF000
00FFF000
00FFF000
00FFF000
00FFF000
00FFF000
00FFF000
ENDCHAR
STARTCHAR 00EE
ENCODING 238
SWIDTH 488 0
DWIDTH 38 0
BBX 32 68 3 -1
BITMAP
03FFFFC0
07FFFFF0
0FFFFFF8
3FFFFFFC
7FFFFFFE
FFFFFFFF
FF8001FF
FF0000FF
FE00007F
FC00003F
00000000
00000000
00000000
001FFE00
001FFE00
001FFE00
001FFE00
001FFE00
001FFE00
001FFE00
001FFE00
001FFE00
001FFE00
001FFE00
001FFE00
001FFE00
001FFE00
001FFE00
001FFE00
001FFE00
001FFE00
001FFE00
001FFE00
001FFE00
001FFE00
001FFE00
001FFE00
001FFE00
001FFE00
001FFE00
001FFE00
001FFE00
001FFE00
001FFE00
001FFE00
001FFE00
001FFE00
001FFE00
001FFE00
001FFE00
001FFE00
001FFE00
001FFE00
001FFE00
001FFE00
001FFE00
001FFE00
001FFE00
001FFE00
001FFE00
001FFE00
001FFE00
001FFE00
001FFE00
001FFE00
001FFE00
001FFE00
001FFE00
ENDCHAR
STARTCHAR 00EF
ENCODING 239
SWIDTH 231 0
DWIDTH 18 0
BBX 20 65 -1 0
BITMAP
FE07F0
FE07F0
FE07F0
FE07F0
FE07F0
FE07F0
FE07F0
FE07F0
000000
000000
000000
0FFF00
0FFF00
0FFF00
0FFF00
0FFF00
0FFF00
0FFF00
0FFF00
0FFF00
0FFF00
0FFF00
0FFF00
0FFF00
0FFF00
0FFF00
0FFF00
0FFF00
0FFF00
0FFF00
0FFF00
0FFF00
0FFF00
0FFF00
0FFF00
0FFF00
0FFF00
0FFF00
0FFF00
0FFF00
0FFF00
0FFF00
0FFF00
0FFF00
0FFF00
0FFF00
0FFF00
0FFF00
0FFF00
0FFF00
0FFF00
0FFF00
0FFF00
0FFF00
0FFF00
0FFF00
0FFF00
0FFF00
0FFF00
0FFF00
0FFF00
0FFF00
0FFF00
0FFF00
0FFF00
ENDCHAR
STARTCHAR 00F0
ENCODING 240
SWIDTH 578 0
DWIDTH 45 0
BBX 44 54 -2 0
BITMAP
07FFFFFFFC00
07FFFFFFFE00
07FFFFFFFF00
07FFFFFFFF80
07FFFFFFFF80
07FFFFFFFFC0
07FFFFFFFFE0
07FFFFFFFFE0
07FFFFFFFFF0
07FFFFFFFFF0
07FFFFFFFFF0
07FFFFFFFFF0
07FF8001FFF0
07FF8001FFF0
07FF8000FFF0
07FF8000FFF0
07FF8000FFF0
07FF8000FFF0
07FF8000FFF0
07FF8000FFF0
07FF8000FFF0
07FF8000FFF0
07FF8000FFF0
FFFFFF00FFF0
FFFFFF00FFF0
FFFFFF00FFF0
FFFFFF00FFF0
FFFFFF00FFF0
FFFFFF00FFF0
FFFFFF00FFF0
FFFFFF00FFF0
07FF8000FFF0
07FF8000FFF0
07FF8000FFF0
07FF8000FFF0
07FF8000FFF0
07FF8000FFF0
07FF8000FFF0
07FF8000FFF0
07FF8000FFF0
07FF8001FFF0
07FF8003FFF0
07FFFFFFFFF0
07FFFFFFFFF0
07FFFFFFFFF0
07FFFFFFFFF0
07FFFFFFFFE0
07FFFFFFFFC0
07FFFFFFFFC0
07FFFFFFFF80
07FFFFFFFF00
07FFFFFFFF00
07FFFFFFFE00
07FFFFFFFC00
ENDCHAR
STARTCHAR 00F1
ENCODING 241
SWIDTH 565 0
DWIDTH 44 0
BBX 38 68 3 0
BITMAP
0007000000
001FE00000
007FFC0070
01FFFF81F0
07FFFFF7F0
0FFFFFFFF0
0FF87FFFF0
0FE01FFFF0
0FC003FF80
0F00007E00
0E00000800
0000000000
0000000000
0000000000
03F8003FFC
07F8003FFC
0FFC003FFC
1FFC003FFC
1FFC003FFC
3FFE003FFC
7FFE003FFC
7FFF003FFC
FFFF003FFC
FFFF803FFC
FFFF803FFC
FFFFC03FFC
FFFFC03FFC
FFFFC03FFC
FFFFE03FFC
FFFFE03FFC
FFFFF03FFC
FFFFF03FFC
FFFFF83FFC
FFFFF83FFC
FFFFFC3FFC
FFFFFC3FFC
FFFFFC3FFC
FFFFFE3FFC
FFFFFE3FFC
FFFFFF3FFC
FFFFFF3FFC
FFF3FFFFFC
FFF1FFFFFC
FFF1FFFFFC
FFF0FFFFFC
FFF0FFFFFC
FFF07FFFFC
FFF07FFFFC
FFF03FFFFC
FFF03FFFFC
FFF03FFFFC
FFF01FFFFC
FFF01FFFFC
FFF00FFFFC
FFF00FFFFC
FFF007FFFC
FFF007FFFC
FFF003FFFC
FFF003FFFC
FFF001FFFC
FFF001FFFC
FFF001FFF8
FFF000FFF0
FFF000FFE0
FFF0007FE0
FFF0007FC0
FFF0003F80
FFF0003F80
ENDCHAR
STARTCHAR 00F2
ENCODING 242
SWIDTH 617 0
DWIDTH 48 0
BBX 42 66 3 0
BITMAP
03F000000000
03FF80000000
03FFFC000000
03FFFFE00000
03FFFFFE0000
01FFFFFFC000
003FFFFFC000
00001FFFC000
000000004000
000000000000
000000000000
000000000000
03FFFFFFF800
07FFFFFFF800
0FFFFFFFFC00
1FFFFFFFFE00
1FFFFFFFFE00
3FFFFFFFFF00
7FFFFFFFFF80
7FFFFFFFFFC0
FFFFFFFFFFC0
FFFFFFFFFFC0
FFFFFFFFFFC0
FFFFFFFFFFC0
FFF80007FFC0
FFF80007FFC0
FFF00003FFC0
FFF00003FFC0
FFF00003FFC0
FFF00003FFC0
FFF00003FFC0
FFF00003FFC0
FFF00003FFC0
FFF00003FFC0
FFF00003FFC0
FFF00003FFC0
FFF00003FFC0
FFF00003FFC0
FFF00003FFC0
FFF00003FFC0
FFF00003FFC0
FFF00003FFC0
FFF00003FFC0
FFF00003FFC0
FFF00003FFC0
FFF00003FFC0
FFF00003FFC0
FFF00003FFC0
FFF00003FFC0
FFF00003FFC0
FFF00003FFC0
FFF00003FFC0
FFF80007FFC0
FFFC000FFFC0
FFFFFFFFFFC0
FFFFFFFFFFC0
FFFFFFFFFFC0
FFFFFFFFFFC0
7FFFFFFFFF80
3FFFFFFFFF80
3FFFFFFFFF00
1FFFFFFFFE00
0FFFFFFFFC00
07FFFFFFFC00
07FFFFFFF800
03FFFFFFF000
ENDCHAR
STARTCHAR 00F3
ENCODING 243
SWIDTH 617 0
DWIDTH 48 0
BBX 42 66 3 0
BITMAP
00000000C000
00001FFFC000
003FFFFFC000
01FFFFFFC000
03FFFFFE0000
03FFFFC00000
03FFF8000000
03FF80000000
03F000000000
000000000000
000000000000
000000000000
03FFFFFFF800
07FFFFFFF800
0FFFFFFFFC00
1FFFFFFFFE00
1FFFFFFFFE00
3FFFFFFFFF00
7FFFFFFFFF80
7FFFFFFFFFC0
FFFFFFFFFFC0
FFFFFFFFFFC0
FFFFFFFFFFC0
FFFFFFFFFFC0
FFF80007FFC0
FFF80007FFC0
FFF00003FFC0
FFF00003FFC0
FFF00003FFC0
FFF00003FFC0
FFF00003FFC0
FFF00003FFC0
FFF00003FFC0
FFF00003FFC0
FFF00003FFC0
FFF00003FFC0
FFF00003FFC0
FFF00003FFC0
FFF00003FFC0
FFF00003FFC0
FFF00003FFC0
FFF00003FFC0
FFF00003FFC0
FFF00003FFC0
FFF00003FFC0
FFF00003FFC0
FFF00003FFC0
FFF00003FFC0
FFF00003FFC0
FFF00003FFC0
FFF00003FFC0
FFF00003FFC0
FFF80007FFC0
FFFC000FFFC0
FFFFFFFFFFC0
FFFFFFFFFFC0
FFFFFFFFFFC0
FFFFFFFFFFC0
7FFFFFFFFF80
3FFFFFFFFF80
3FFFFFFFFF00
1FFFFFFFFE00
0FFFFFFFFC00
07FFFFFFFC00
07FFFFFFF800
03FFFFFFF000
ENDCHAR
STARTCHAR 00F4
ENCODING 244
SWIDTH 617 0
DWIDTH 48 0
BBX 42 67 3 0
BITMAP
001FFFFF0000
003FFFFF8000
007FFFFFC000
00FFFFFFE000
01FFFFFFF000
07FFFFFFF800
07FE000FF800
07F80007F800
07F00003F800
07E00001F800
000000000000
000000000000
000000000000
03FFFFFFF800
07FFFFFFF800
0FFFFFFFFC00
1FFFFFFFFE00
1FFFFFFFFE00
3FFFFFFFFF00
7FFFFFFFFF80
7FFFFFFFFFC0
FFFFFFFFFFC0
FFFFFFFFFFC0
FFFFFFFFFFC0
FFFFFFFFFFC0
FFF80007FFC0
FFF80007FFC0
FFF00003FFC0
FFF00003FFC0
FFF00003FFC0
FFF00003FFC0
FFF00003FFC0
FFF00003FFC0
FFF00003FFC0
FFF00003FFC0
FFF00003FFC0
FFF00003FFC0
FFF00003FFC0
FFF00003FFC0
FFF00003FFC0
FFF00003FFC0
FFF00003FFC0
FFF00003FFC0
FFF00003FFC0
FFF00003FFC0
FFF00003FFC0
FFF00003FFC0
FFF00003FFC0
FFF00003FFC0
FFF00003FFC0
FFF00003FFC0
FFF00003FFC0
FFF00003FFC0
FFF80007FFC0
FFFC000FFFC0
FFFFFFFFFFC0
FFFFFFFFFFC0
FFFFFFFFFFC0
FFFFFFFFFFC0
7FFFFFFFFF80
3FFFFFFFFF80
3FFFFFFFFF00
1FFFFFFFFE00
0FFFFFFFFC00
07FFFFFFFC00
07FFFFFFF800
03FFFFFFF000
ENDCHAR
STARTCHAR 00F5
ENCODING 245
SWIDTH 617 0
DWIDTH 48 0
BBX 42 68 3 0
BITMAP
0003C0000000
000FF8000000
003FFF003800
00FFFFC0F800
03FFFFFBF800
07FFFFFFF800
07FE3FFFF800
07F807FFF800
07E000FFE000
07C0001F0000
070000000000
000000000000
000000000000
000000000000
03FFFFFFF800
07FFFFFFF800
0FFFFFFFFC00
1FFFFFFFFE00
1FFFFFFFFE00
3FFFFFFFFF00
7FFFFFFFFF80
7FFFFFFFFFC0
FFFFFFFFFFC0
FFFFFFFFFFC0
FFFFFFFFFFC0
FFFFFFFFFFC0
FFF80007FFC0
FFF80007FFC0
FFF00003FFC0
FFF00003FFC0
FFF00003FFC0
FFF00003FFC0
FFF00003FFC0
FFF00003FFC0
FFF00003FFC0
FFF00003FFC0
FFF00003FFC0
FFF00003FFC0
FFF00003FFC0
FFF00003FFC0
FFF00003FFC0
FFF00003FFC0
FFF00003FFC0
FFF00003FFC0
FFF00003FFC0
FFF00003FFC0
FFF00003FFC0
FFF00003FFC0
FFF00003FFC0
FFF00003FFC0
FFF00003FFC0
FFF00003FFC0
FFF00003FFC0
FFF00003FFC0
FFF80007FFC0
FFFC000FFFC0
FFFFFFFFFFC0
FFFFFFFFFFC0
FFFFFFFFFFC0
FFFFFFFFFFC0
7FFFFFFFFF80
3FFFFFFFFF80
3FFFFFFFFF00
1FFFFFFFFE00
0FFFFFFFFC00
07FFFFFFFC00
07FFFFFFF800
03FFFFFFF000
ENDCHAR
STARTCHAR 00F6
ENCODING 246
SWIDTH 617 0
DWIDTH 48 0
BBX 42 65 3 0
BITMAP
001FC0FE0000
001FC0FE0000
001FC0FE0000
001FC0FE0000
001FC0FE0000
001FC0FE0000
001FC0FE0000
001FC0FE0000
000000000000
000000000000
000000000000
03FFFFFFF800
07FFFFFFF800
0FFFFFFFFC00
1FFFFFFFFE00
1FFFFFFFFE00
3FFFFFFFFF00
7FFFFFFFFF80
7FFFFFFFFFC0
FFFFFFFFFFC0
FFFFFFFFFFC0
FFFFFFFFFFC0
FFFFFFFFFFC0
FFF80007FFC0
FFF80007FFC0
FFF00003FFC0
FFF00003FFC0
FFF00003FFC0
FFF00003FFC0
FFF00003FFC0
FFF00003FFC0
FFF00003FFC0
FFF00003FFC0
FFF00003FFC0
FFF00003FFC0
FFF00003FFC0
FFF00003FFC0
FFF00003FFC0
FFF00003FFC0
FFF00003FFC0
FFF00003FFC0
FFF00003FFC0
FFF00003FFC0
FFF00003FFC0
FFF00003FFC0
FFF00003FFC0
FFF00003FFC0
FFF00003FFC0
FFF00003FFC0
FFF00003FFC0
FFF00003FFC0
FFF80007FFC0
FFFC000FFFC0
FFFFFFFFFFC0
FFFFFFFFFFC0
FFFFFFFFFFC0
FFFFFFFFFFC0
7FFFFFFFFF80
3FFFFFFFFF80
3FFFFFFFFF00
1FFFFFFFFE00
0FFFFFFFFC00
07FFFFFFFC00
07FFFFFFF800
03FFFFFFF000
ENDCHAR
STARTCHAR 00F7
ENCODING 247
SWIDTH 424 0
DWIDTH 33 0
BBX 30 29 2 13
BITMAP
001FE000
001FE000
001FE000
001FE000
001FE000
001FE000
001FE000
001FE000
00000000
00000000
FFFFFFFC
FFFFFFFC
FFFFFFFC
FFFFFFFC
FFFFFFFC
FFFFFFFC
FFFFFFFC
FFFFFFFC
00000000
00000000
00000000
001FE000
001FE000
001FE000
001FE000
001FE000
001FE000
001FE000
001FE000
ENDCHAR
STARTCHAR 00F8
ENCODING 248
SWIDTH 617 0
DWIDTH 48 0
BBX 42 67 3 -6
BITMAP
00000000FF80
00000000FF80
00000001FF00
00000001FF00
00000003FE00
00000003FE00
00000003FC00
03FFFFFFFC00
07FFFFFFF800
0FFFFFFFFC00
1FFFFFFFFE00
1FFFFFFFFE00
3FFFFFFFFF00
7FFFFFFFFF80
7FFFFFFFFFC0
FFFFFFFFFFC0
FFFFFFFFFFC0
FFFFFFFFFFC0
FFFFFFFFFFC0
FFF801FFFFC0
FFF801FFFFC0
FFF001FFFFC0
FFF003FFFFC0
FFF003FFFFC0
FFF007FFFFC0
FFF007FBFFC0
FFF00FFBFFC0
FFF00FF3FFC0
FFF01FF3FFC0
FFF01FE3FFC0
FFF03FE3FFC0
FFF03FC3FFC0
FFF07FC3FFC0
FFF07FC3FFC0
FFF0FF83FFC0
FFF0FF83FFC0
FFF1FF03FFC0
FFF1FF03FFC0
FFF1FE03FFC0
FFF3FE03FFC0
FFF3FC03FFC0
FFF7FC03FFC0
FFF7F803FFC0
FFFFF803FFC0
FFFFF003FFC0
FFFFF003FFC0
FFFFE003FFC0
FFFFE007FFC0
FFFFC00FFFC0
FFFFFFFFFFC0
FFFFFFFFFFC0
FFFFFFFFFFC0
FFFFFFFFFFC0
7FFFFFFFFF80
3FFFFFFFFF80
3FFFFFFFFF00
1FFFFFFFFE00
0FFFFFFFFC00
07FFFFFFFC00
07FFFFFFF800
0FFFFFFFF000
0FF000000000
1FF000000000
1FE000000000
3FE000000000
3FC000000000
3FC000000000
ENDCHAR
STARTCHAR 00F9
ENCODING 249
SWIDTH 604 0
DWIDTH 47 0
BBX 42 66 3 0
BITMAP
01F800000000
01FFC0000000
01FFFE000000
01FFFFF00000
01FFFFFF0000
00FFFFFFE000
001FFFFFE000
00000FFFE000
000000002000
000000000000
000000000000
000000000000
FFF00003FFC0
FFF00003FFC0
FFF00003FFC0
FFF00003FFC0
FFF00003FFC0
FFF00003FFC0
FFF00003FFC0
FFF00003FFC0
FFF00003FFC0
FFF00003FFC0
FFF00003FFC0
FFF00003FFC0
FFF00003FFC0
FFF00003FFC0
FFF00003FFC0
FFF00003FFC0
FFF00003FFC0
FFF00003FFC0
FFF00003FFC0
FFF00003FFC0
FFF00003FFC0
FFF00003FFC0
FFF00003FFC0
FFF00003FFC0
FFF00003FFC0
FFF00003FFC0
FFF00003FFC0
FFF00003FFC0
FFF00003FFC0
FFF00003FFC0
FFF00003FFC0
FFF00003FFC0
FFF00003FFC0
FFF00003FFC0
FFF00003FFC0
FFF00003FFC0
FFF00003FFC0
FFF00003FFC0
FFF00003FFC0
FFF00007FFC0
FFF80007FFC0
FFFC000FFFC0
FFFFFFFFFFC0
FFFFFFFFFFC0
FFFFFFFFFFC0
FFFFFFFFFF80
7FFFFFFFFF80
3FFFFFFFFF00
3FFFFFFFFE00
1FFFFFFFFE00
0FFFFFFFFC00
07FFFFFFF800
07FFFFFFF000
03FFFFFFF000
ENDCHAR
STARTCHAR 00FA
ENCODING 250
SWIDTH 604 0
DWIDTH 47 0
BBX 42 66 3 0
BITMAP
000000006000
00000FFFE000
001FFFFFE000
00FFFFFFE000
01FFFFFF0000
01FFFFE00000
01FFFC000000
01FFC0000000
01F800000000
000000000000
000000000000
000000000000
FFF00003FFC0
FFF00003FFC0
FFF00003FFC0
FFF00003FFC0
FFF00003FFC0
FFF00003FFC0
FFF00003FFC0
FFF00003FFC0
FFF00003FFC0
FFF00003FFC0
FFF00003FFC0
FFF00003FFC0
FFF00003FFC0
FFF00003FFC0
FFF00003FFC0
FFF00003FFC0
FFF00003FFC0
FFF00003FFC0
FFF00003FFC0
FFF00003FFC0
FFF00003FFC0
FFF00003FFC0
FFF00003FFC0
FFF00003FFC0
FFF00003FFC0
FFF00003FFC0
FFF00003FFC0
FFF00003FFC0
FFF00003FFC0
FFF00003FFC0
FFF00003FFC0
FFF00003FFC0
FFF00003FFC0
FFF00003FFC0
FFF00003FFC0
FFF00003FFC0
FFF00003FFC0
FFF00003FFC0
FFF00003FFC0
FFF00007FFC0
FFF80007FFC0
FFFC000FFFC0
FFFFFFFFFFC0
FFFFFFFFFFC0
FFFFFFFFFFC0
FFFFFFFFFF80
7FFFFFFFFF80
3FFFFFFFFF00
3FFFFFFFFE00
1FFFFFFFFE00
0FFFFFFFFC00
07FFFFFFF800
07FFFFFFF000
03FFFFFFF000
ENDCHAR
STARTCHAR 00FB
ENCODING 251
SWIDTH 604 0
DWIDTH 47 0
BBX 42 67 3 0
BITMAP
003FFFFE0000
007FFFFF0000
00FFFFFF8000
01FFFFFFC000
03FFFFFFE000
07FFFFFFF800
07FC001FF800
07F80007F800
07F00003F800
07E00001F800
000000000000
000000000000
000000000000
FFF00003FFC0
FFF00003FFC0
FFF00003FFC0
FFF00003FFC0
FFF00003FFC0
FFF00003FFC0
FFF00003FFC0
FFF00003FFC0
FFF00003FFC0
FFF00003FFC0
FFF00003FFC0
FFF00003FFC0
FFF00003FFC0
FFF00003FFC0
FFF00003FFC0
FFF00003FFC0
FFF00003FFC0
FFF00003FFC0
FFF00003FFC0
FFF00003FFC0
FFF00003FFC0
FFF00003FFC0
FFF00003FFC0
FFF00003FFC0
FFF00003FFC0
FFF00003FFC0
FFF00003FFC0
FFF00003FFC0
FFF00003FFC0
FFF00003FFC0
FFF00003FFC0
FFF00003FFC0
FFF00003FFC0
FFF00003FFC0
FFF00003FFC0
FFF00003FFC0
FFF00003FFC0
FFF00003FFC0
FFF00003FFC0
FFF00007FFC0
FFF80007FFC0
FFFC000FFFC0
FFFFFFFFFFC0
FFFFFFFFFFC0
FFFFFFFFFFC0
FFFFFFFFFF80
7FFFFFFFFF80
3FFFFFFFFF00
3FFFFFFFFE00
1FFFFFFFFE00
0FFFFFFFFC00
07FFFFFFF800
07FFFFFFF000
03FFFFFFF000
ENDCHAR
STARTCHAR 00FC
ENCODING 252
SWIDTH 604 0
DWIDTH 47 0
BBX 42 65 3 0
BITMAP
001FC0FE0000
001FC0FE0000
001FC0FE0000
001FC0FE0000
001FC0FE0000
001FC0FE0000
001FC0FE0000
001FC0FE0000
000000000000
000000000000
000000000000
FFF00003FFC0
FFF00003FFC0
FFF00003FFC0
FFF00003FFC0
FFF00003FFC0
FFF00003FFC0
FFF00003FFC0
FFF00003FFC0
FFF00003FFC0
FFF00003FFC0
FFF00003FFC0
FFF00003FFC0
FFF00003FFC0
FFF00003FFC0
FFF00003FFC0
FFF00003FFC0
FFF00003FFC0
FFF00003FFC0
FFF00003FFC0
FFF00003FFC0
FFF00003FFC0
FFF00003FFC0
FFF00003FFC0
FFF00003FFC0
FFF00003FFC0
FFF00003FFC0
FFF00003FFC0
FFF00003FFC0
FFF00003FFC0
FFF00003FFC0
FFF00003FFC0
FFF00003FFC0
FFF00003FFC0
FFF00003FFC0
FFF00003FFC0
FFF00003FFC0
FFF00003FFC0
FFF00003FFC0
FFF00003FFC0
FFF00007FFC0
FFF80007FFC0
FFFC000FFFC0
FFFFFFFFFFC0
FFFFFFFFFFC0
FFFFFFFFFFC0
FFFFFFFFFF80
7FFFFFFFFF80
3FFFFFFFFF00
3FFFFFFFFE00
1FFFFFFFFE00
0FFFFFFFFC00
07FFFFFFF800
07FFFFFFF000
03FFFFFFF000
ENDCHAR
STARTCHAR 00FD
ENCODING 253
SWIDTH 462 0
DWIDTH 36 0
BBX 36 66 0 0
BITMAP
0000000300
0000FFFF00
00FFFFFF00
0FFFFFFF00
0FFFFFF800
0FFFFF0000
0FFFE00000
0FFC000000
0F80000000
0000000000
0000000000
0000000000
FFF0007FF0
FFF0007FF0
FFF000FFF0
FFF800FFF0
FFF800FFF0
FFF801FFF0
7FFC01FFF0
7FFC01FFE0
3FFC03FFE0
3FFE03FFE0
1FFE03FFC0
1FFE07FFC0
1FFF07FF80
0FFF07FF80
0FFF0FFF00
07FF8FFF00
07FF8FFE00
03FFDFFE00
03FFDFFE00
01FFDFFC00
01FFFFFC00
01FFFFF800
00FFFFF800
00FFFFF000
007FFFF000
007FFFF000
003FFFE000
003FFFE000
001FFFC000
001FFFC000
001FFF8000
000FFF8000
000FFF0000
000FFF0000
000FFF0000
000FFF0000
000FFF0000
000FFF0000
000FFF0000
000FFF0000
000FFF0000
000FFF0000
000FFF0000
000FFF0000
000FFF0000
000FFF0000
000FFF0000
000FFF0000
000FFF0000
000FFF0000
000FFF0000
000FFF0000
000FFF0000
000FFF0000
ENDCHAR
STARTCHAR 00FE
ENCODING 254
SWIDTH 540 0
DWIDTH 42 0
BBX 36 63 3 0
BITMAP
FFF0000000
FFF0000000
FFF0000000
FFF0000000
FFF0000000
FFF0000000
FFF0000000
FFF0000000
FFF0000000
FFFFFFFE00
FFFFFFFE00
FFFFFFFF00
FFFFFFFF80
FFFFFFFF80
FFFFFFFFC0
FFFFFFFFE0
FFFFFFFFF0
FFFFFFFFF0
FFFFFFFFF0
FFFFFFFFF0
FFFFFFFFF0
FFF001FFF0
FFF001FFF0
FFF000FFF0
FFF000FFF0
FFF000FFF0
FFF000FFF0
FFF000FFF0
FFF000FFF0
FFF000FFF0
FFF000FFF0
FFF001FFF0
FFF003FFF0
FFFFFFFFF0
FFFFFFFFF0
FFFFFFFFF0
FFFFFFFFF0
FFFFFFFFE0
FFFFFFFFE0
FFFFFFFFC0
FFFFFFFF80
FFFFFFFF00
FFFFFFFF00
FFFFFFFE00
FFFFFFFC00
FFF0000000
FFF0000000
FFF0000000
FFF0000000
FFF0000000
FFF0000000
FFF0000000
FFF0000000
FFF0000000
FFF0000000
FFF0000000
FFF0000000
FFF0000000
FFF0000000
FFF0000000
FFF0000000
FFF0000000
FFF0000000
ENDCHAR
STARTCHAR 00FF
ENCODING 255
SWIDTH 462 0
DWIDTH 36 0
BBX 36 65 0 0
BITMAP
00FF07F000
00FF07F000
00FF07F000
00FF07F000
00FF07F000
00FF07F000
00FF07F000
00FF07F000
0000000000
0000000000
0000000000
FFF0007FF0
FFF0007FF0
FFF000FFF0
FFF800FFF0
FFF800FFF0
FFF801FFF0
7FFC01FFF0
7FFC01FFE0
3FFC03FFE0
3FFE03FFE0
1FFE03FFC0
1FFE07FFC0
1FFF07FF80
0FFF07FF80
0FFF0FFF00
07FF8FFF00
07FF8FFE00
03FFDFFE00
03FFDFFE00
01FFDFFC00
01FFFFFC00
01FFFFF800
00FFFFF800
00FFFFF000
007FFFF000
007FFFF000
003FFFE000
003FFFE000
001FFFC000
001FFFC000
001FFF8000
000FFF8000
000FFF0000
000FFF0000
000FFF0000
000FFF0000
000FFF0000
000FFF0000
000FFF0000
000FFF0000
000FFF0000
000FFF0000
000FFF0000
000FFF0000
000FFF0000
000FFF0000
000FFF0000
000FFF0000
000FFF0000
000FFF0000
000FFF0000
000FFF0000
000FFF0000
000FFF0000
ENDCHAR
STARTCHAR 0100
ENCODING 256
SWIDTH 578 0
DWIDTH 45 0
BBX 44 65 1 0
BITMAP
03FFFFFFF800
03FFFFFFF800
03FFFFFFF800
03FFFFFFF800
03FFFFFFF800
03FFFFFFF800
03FFFFFFF800
03FFFFFFF800
000000000000
000000000000
000000000000
001FFFFF0000
001FFFFF8000
003FFFFFC000
003FFFFFC000
003FFFFFC000
007FFFFFC000
007FFFFFC000
007FFFFFE000
007FFFFFE000
007FFFFFE000
00FFFFFFE000
00FFFFFFE000
00FFC07FF000
00FFC07FF000
00FFC03FF000
01FFC03FF000
01FFC03FF000
01FF803FF800
01FF803FF800
01FF803FF800
03FF801FF800
03FF801FF800
03FF801FFC00
03FF801FFC00
03FF001FFC00
07FF001FFC00
07FF001FFC00
07FF000FFE00
07FF000FFE00
07FF000FFE00
0FFE000FFE00
0FFE000FFE00
0FFF000FFF00
0FFF801FFF00
0FFFFFFFFF00
1FFFFFFFFF00
1FFFFFFFFF00
1FFFFFFFFF80
1FFFFFFFFF80
1FFFFFFFFF80
3FFFFFFFFF80
3FFDFFFBFF80
3FFCFFF3FFC0
3FFC0003FFC0
3FF80003FFC0
7FF80003FFC0
7FF80003FFC0
7FF80001FFE0
7FF80001FFE0
7FF80001FFE0
FFF00001FFE0
FFF00001FFE0
FFF00001FFF0
FFF00000FFF0
ENDCHAR
STARTCHAR 0101
ENCODING 257
SWIDTH 578 0
DWIDTH 45 0
BBX 44 65 1 0
BITMAP
03FFFFFFF800
03FFFFFFF800
03FFFFFFF800
03FFFFFFF800
03FFFFFFF800
03FFFFFFF800
03FFFFFFF800
03FFFFFFF800
000000000000
000000000000
000000000000
001FFFFF0000
001FFFFF8000
003FFFFFC000
003FFFFFC000
003FFFFFC000
007FFFFFC000
007FFFFFC000
007FFFFFE000
007FFFFFE000
007FFFFFE000
00FFFFFFE000
00FFFFFFE000
00FFC07FF000
00FFC07FF000
00FFC03FF000
01FFC03FF000
01FFC03FF000
01FF803FF800
01FF803FF800
01FF803FF800
03FF801FF800
03FF801FF800
03FF801FFC00
03FF801FFC00
03FF001FFC00
07FF001FFC00
07FF001FFC00
07FF000FFE00
07FF000FFE00
07FF000FFE00
0FFE000FFE00
0FFE000FFE00
0FFF000FFF00
0FFF801FFF00
0FFFFFFFFF00
1FFFFFFFFF00
1FFFFFFFFF00
1FFFFFFFFF80
1FFFFFFFFF80
1FFFFFFFFF80
3FFFFFFFFF80
3FFDFFFBFF80
3FFCFFF3FFC0
3FFC0003FFC0
3FF80003FFC0
7FF80003FFC0
7FF80003FFC0
7FF80001FFE0
7FF80001FFE0
7FF80001FFE0
FFF00001FFE0
FFF00001FFE0
FFF00001FFF0
FFF00000FFF0
ENDCHAR
STARTCHAR 0102
ENCODING 258
SWIDTH 578 0
DWIDTH 45 0
BBX 44 67 1 0
BITMAP
07F00001F800
07F80003F800
07FC0007F800
07FE001FF800
03FFFFFFF800
01FFFFFFE000
00FFFFFFC000
007FFFFF8000
003FFFFF0000
001FFFFE0000
000000000000
000000000000
000000000000
001FFFFF0000
001FFFFF8000
003FFFFFC000
003FFFFFC000
003FFFFFC000
007FFFFFC000
007FFFFFC000
007FFFFFE000
007FFFFFE000
007FFFFFE000
00FFFFFFE000
00FFFFFFE000
00FFC07FF000
00FFC07FF000
00FFC03FF000
01FFC03FF000
01FFC03FF000
01FF803FF800
01FF803FF800
01FF803FF800
03FF801FF800
03FF801FF800
03FF801FFC00
03FF801FFC00
03FF001FFC00
07FF001FFC00
07FF001FFC00
07FF000FFE00
07FF000FFE00
07FF000FFE00
0FFE000FFE00
0FFE000FFE00
0FFF000FFF00
0FFF801FFF00
0FFFFFFFFF00
1FFFFFFFFF00
1FFFFFFFFF00
1FFFFFFFFF80
1FFFFFFFFF80
1FFFFFFFFF80
3FFFFFFFFF80
3FFDFFFBFF80
3FFCFFF3FFC0
3FFC0003FFC0
3FF80003FFC0
7FF80003FFC0
7FF80003FFC0
7FF80001FFE0
7FF80001FFE0
7FF80001FFE0
FFF00001FFE0
FFF00001FFE0
FFF00001FFF0
FFF00000FFF0
ENDCHAR
STARTCHAR 0103
ENCODING 259
SWIDTH 578 0
DWIDTH 45 0
BBX 44 67 1 0
BITMAP
07F00001F800
07F80003F800
07FC0007F800
07FE001FF800
03FFFFFFF800
01FFFFFFE000
00FFFFFFC000
007FFFFF8000
003FFFFF0000
001FFFFE0000
000000000000
000000000000
000000000000
001FFFFF0000
001FFFFF8000
003FFFFFC000
003FFFFFC000
003FFFFFC000
007FFFFFC000
007FFFFFC000
007FFFFFE000
007FFFFFE000
007FFFFFE000
00FFFFFFE000
00FFFFFFE000
00FFC07FF000
00FFC07FF000
00FFC03FF000
01FFC03FF000
01FFC03FF000
01FF803FF800
01FF803FF800
01FF803FF800
03FF801FF800
03FF801FF800
03FF801FFC00
03FF801FFC00
03FF001FFC00
07FF001FFC00
07FF001FFC00
07FF000FFE00
07FF000FFE00
07FF000FFE00
0FFE000FFE00
0FFE000FFE00
0FFF000FFF00
0FFF801FFF00
0FFFFFFFFF00
1FFFFFFFFF00
1FFFFFFFFF00
1FFFFFFFFF80
1FFFFFFFFF80
1FFFFFFFFF80
3FFFFFFFFF80
3FFDFFFBFF80
3FFCFFF3FFC0
3FFC0003FFC0
3FF80003FFC0
7FF80003FFC0
7FF80003FFC0
7FF80001FFE0
7FF80001FFE0
7FF80001FFE0
FFF00001FFE0
FFF00001FFE0
FFF00001FFF0
FFF00000FFF0
ENDCHAR
STARTCHAR 0104
ENCODING 260
SWIDTH 578 0
DWIDTH 45 0
BBX 48 66 1 -12
BITMAP
001FFFFF0000
001FFFFF8000
003FFFFFC000
003FFFFFC000
003FFFFFC000
007FFFFFC000
007FFFFFC000
007FFFFFE000
007FFFFFE000
007FFFFFE000
00FFFFFFE000
00FFFFFFE000
00FFC07FF000
00FFC07FF000
00FFC03FF000
01FFC03FF000
01FFC03FF000
01FF803FF800
01FF803FF800
01FF803FF800
03FF801FF800
03FF801FF800
03FF801FFC00
03FF801FFC00
03FF001FFC00
07FF001FFC00
07FF001FFC00
07FF000FFE00
07FF000FFE00
07FF000FFE00
0FFE000FFE00
0FFE000FFE00
0FFF000FFF00
0FFF801FFF00
0FFFFFFFFF00
1FFFFFFFFF00
1FFFFFFFFF00
1FFFFFFFFF80
1FFFFFFFFF80
1FFFFFFFFF80
3FFFFFFFFF80
3FFDFFFBFF80
3FFCFFF3FFC0
3FFC0003FFC0
3FF80003FFC0
7FF80003FFC0
7FF80003FFC0
7FF80001FFE0
7FF80001FFE0
7FF80001FFE0
FFF00001FFE0
FFF00001FFE0
FFF00001FFF0
FFF00000FFF0
0000000003E0
0000000003E0
0000000007C0
000000000FC0
000000000F80
000000001F00
000000001F0F
000000001FFF
000000001FFF
000000001FFF
000000001FFE
000000001FFE
ENDCHAR
STARTCHAR 0105
ENCODING 261
SWIDTH 578 0
DWIDTH 45 0
BBX 48 66 1 -12
BITMAP
001FFFFF0000
001FFFFF8000
003FFFFFC000
003FFFFFC000
003FFFFFC000
007FFFFFC000
007FFFFFC000
007FFFFFE000
007FFFFFE000
007FFFFFE000
00FFFFFFE000
00FFFFFFE000
00FFC07FF000
00FFC07FF000
00FFC03FF000
01FFC03FF000
01FFC03FF000
01FF803FF800
01FF803FF800
01FF803FF800
03FF801FF800
03FF801FF800
03FF801FFC00
03FF801FFC00
03FF001FFC00
07FF001FFC00
07FF001FFC00
07FF000FFE00
07FF000FFE00
07FF000FFE00
0FFE000FFE00
0FFE000FFE00
0FFF000FFF00
0FFF801FFF00
0FFFFFFFFF00
1FFFFFFFFF00
1FFFFFFFFF00
1FFFFFFFFF80
1FFFFFFFFF80
1FFFFFFFFF80
3FFFFFFFFF80
3FFDFFFBFF80
3FFCFFF3FFC0
3FFC0003FFC0
3FF80003FFC0
7FF80003FFC0
7FF80003FFC0
7FF80001FFE0
7FF80001FFE0
7FF80001FFE0
FFF00001FFE0
FFF00001FFE0
FFF00001FFF0
FFF00000FFF0
0000000003E0
0000000003E0
0000000007C0
000000000FC0
000000000F80
000000001F00
000000001F0F
000000001FFF
000000001FFF
000000001FFF
000000001FFE
000000001FFE
ENDCHAR
STARTCHAR 0106
ENCODING 262
SWIDTH 540 0
DWIDTH 42 0
BBX 36 66 3 0
BITMAP
0000000300
0000FFFF00
00FFFFFF00
0FFFFFFF00
0FFFFFF800
0FFFFF0000
0FFFE00000
0FFC000000
0F80000000
0000000000
0000000000
0000000000
FFFFFFFE00
FFFFFFFF00
FFFFFFFF00
FFFFFFFF80
FFFFFFFFC0
FFFFFFFFC0
FFFFFFFFE0
FFFFFFFFF0
FFFFFFFFF0
FFFFFFFFF0
FFFFFFFFF0
FFFFFFFFF0
FFF000FFF0
FFF000FFF0
FFF0000000
FFF0000000
FFF0000000
FFF0000000
FFF0000000
FFF0000000
FFF0000000
FFF0000000
FFF0000000
FFF0000000
FFF0000000
FFF0000000
FFF0000000
FFF0000000
FFF0000000
FFF0000000
FFF0000000
FFF0000000
FFF0000000
FFF0000000
FFF0000000
FFF0000000
FFF0000000
FFF0000000
FFF0000000
FFF0007FF0
FFF000FFF0
FFF001FFF0
FFFFFFFFF0
FFFFFFFFF0
FFFFFFFFF0
FFFFFFFFF0
FFFFFFFFF0
FFFFFFFFE0
FFFFFFFFC0
FFFFFFFF80
FFFFFFFF80
FFFFFFFF00
FFFFFFFE00
FFFFFFFE00
ENDCHAR
STARTCHAR 0107
ENCODING 263
SWIDTH 540 0
DWIDTH 42 0
BBX 36 66 3 0
BITMAP
0000000300
0000FFFF00
00FFFFFF00
0FFFFFFF00
0FFFFFF800
0FFFFF0000
0FFFE00000
0FFC000000
0F80000000
0000000000
0000000000
0000000000
FFFFFFFE00
FFFFFFFF00
FFFFFFFF00
FFFFFFFF80
FFFFFFFFC0
FFFFFFFFC0
FFFFFFFFE0
FFFFFFFFF0
FFFFFFFFF0
FFFFFFFFF0
FFFFFFFFF0
FFFFFFFFF0
FFF000FFF0
FFF000FFF0
FFF0000000
FFF0000000
FFF0000000
FFF0000000
FFF0000000
FFF0000000
FFF0000000
FFF0000000
FFF0000000
FFF0000000
FFF0000000
FFF0000000
FFF0000000
FFF0000000
FFF0000000
FFF0000000
FFF0000000
FFF0000000
FFF0000000
FFF0000000
FFF0000000
FFF0000000
FFF0000000
FFF0000000
FFF0000000
FFF0007FF0
FFF000FFF0
FFF001FFF0
FFFFFFFFF0
FFFFFFFFF0
FFFFFFFFF0
FFFFFFFFF0
FFFFFFFFF0
FFFFFFFFE0
FFFFFFFFC0
FFFFFFFF80
FFFFFFFF80
FFFFFFFF00
FFFFFFFE00
FFFFFFFE00
ENDCHAR
STARTCHAR 0108
ENCODING 264
SWIDTH 540 0
DWIDTH 42 0
BBX 36 67 3 0
BITMAP
03FFFFC000
07FFFFE000
0FFFFFF800
3FFFFFFC00
7FFFFFFE00
FFFFFFFF00
FF8001FF00
FF0000FF00
FE00007F00
FC00003F00
0000000000
0000000000
0000000000
FFFFFFFE00
FFFFFFFF00
FFFFFFFF00
FFFFFFFF80
FFFFFFFFC0
FFFFFFFFC0
FFFFFFFFE0
FFFFFFFFF0
FFFFFFFFF0
FFFFFFFFF0
FFFFFFFFF0
FFFFFFFFF0
FFF000FFF0
FFF000FFF0
FFF0000000
FFF0000000
FFF0000000
FFF0000000
FFF0000000
FFF0000000
FFF0000000
FFF0000000
FFF0000000
FFF0000000
FFF0000000
FFF0000000
FFF0000000
FFF0000000
FFF0000000
FFF0000000
FFF0000000
FFF0000000
FFF0000000
FFF0000000
FFF0000000
FFF0000000
FFF0000000
FFF0000000
FFF0000000
FFF0007FF0
FFF000FFF0
FFF001FFF0
FFFFFFFFF0
FFFFFFFFF0
FFFFFFFFF0
FFFFFFFFF0
FFFFFFFFF0
FFFFFFFFE0
FFFFFFFFC0
FFFFFFFF80
FFFFFFFF80
FFFFFFFF00
FFFFFFFE00
FFFFFFFE00
ENDCHAR
STARTCHAR 0109
ENCODING 265
SWIDTH 540 0
DWIDTH 42 0
BBX 36 67 3 0
BITMAP
03FFFFC000
07FFFFE000
0FFFFFF800
3FFFFFFC00
7FFFFFFE00
FFFFFFFF00
FF8001FF00
FF0000FF00
FE00007F00
FC00003F00
0000000000
0000000000
0000000000
FFFFFFFE00
FFFFFFFF00
FFFFFFFF00
FFFFFFFF80
FFFFFFFFC0
FFFFFFFFC0
FFFFFFFFE0
FFFFFFFFF0
FFFFFFFFF0
FFFFFFFFF0
FFFFFFFFF0
FFFFFFFFF0
FFF000FFF0
FFF000FFF0
FFF0000000
FFF0000000
FFF0000000
FFF0000000
FFF0000000
FFF0000000
FFF0000000
FFF0000000
FFF0000000
FFF0000000
FFF0000000
FFF0000000
FFF0000000
FFF0000000
FFF0000000
FFF0000000
FFF0000000
FFF0000000
FFF0000000
FFF0000000
FFF0000000
FFF0000000
FFF0000000
FFF0000000
FFF0000000
FFF0007FF0
FFF000FFF0
FFF001FFF0
FFFFFFFFF0
FFFFFFFFF0
FFFFFFFFF0
FFFFFFFFF0
FFFFFFFFF0
FFFFFFFFE0
FFFFFFFFC0
FFFFFFFF80
FFFFFFFF80
FFFFFFFF00
FFFFFFFE00
FFFFFFFE00
ENDCHAR
STARTCHAR 010A
ENCODING 266
SWIDTH 540 0
DWIDTH 42 0
BBX 36 67 3 0
BITMAP
0001F80000
0003FC0000
0003FE0000
0003FE0000
0003FE0000
0003FE0000
0003FE0000
0003FE0000
0003FC0000
0001F80000
0000000000
0000000000
0000000000
FFFFFFFE00
FFFFFFFF00
FFFFFFFF00
FFFFFFFF80
FFFFFFFFC0
FFFFFFFFC0
FFFFFFFFE0
FFFFFFFFF0
FFFFFFFFF0
FFFFFFFFF0
FFFFFFFFF0
FFFFFFFFF0
FFF000FFF0
FFF000FFF0
FFF0000000
FFF0000000
FFF0000000
FFF0000000
FFF0000000
FFF0000000
FFF0000000
FFF0000000
FFF0000000
FFF0000000
FFF0000000
FFF0000000
FFF0000000
FFF0000000
FFF0000000
FFF0000000
FFF0000000
FFF0000000
FFF0000000
FFF0000000
FFF0000000
FFF0000000
FFF0000000
FFF0000000
FFF0000000
FFF0007FF0
FFF000FFF0
FFF001FFF0
FFFFFFFFF0
FFFFFFFFF0
FFFFFFFFF0
FFFFFFFFF0
FFFFFFFFF0
FFFFFFFFE0
FFFFFFFFC0
FFFFFFFF80
FFFFFFFF80
FFFFFFFF00
FFFFFFFE00
FFFFFFFE00
ENDCHAR
STARTCHAR 010B
ENCODING 267
SWIDTH 540 0
DWIDTH 42 0
BBX 36 67 3 0
BITMAP
0001F80000
0003FC0000
0003FE0000
0003FE0000
0003FE0000
0003FE0000
0003FE0000
0003FE0000
0003FC0000
0001F80000
0000000000
0000000000
0000000000
FFFFFFFE00
FFFFFFFF00
FFFFFFFF00
FFFFFFFF80
FFFFFFFFC0
FFFFFFFFC0
FFFFFFFFE0
FFFFFFFFF0
FFFFFFFFF0
FFFFFFFFF0
FFFFFFFFF0
FFFFFFFFF0
FFF000FFF0
FFF000FFF0
FFF0000000
FFF0000000
FFF0000000
FFF0000000
FFF0000000
FFF0000000
FFF0000000
FFF0000000
FFF0000000
FFF0000000
FFF0000000
FFF0000000
FFF0000000
FFF0000000
FFF0000000
FFF0000000
FFF0000000
FFF0000000
FFF0000000
FFF0000000
FFF0000000
FFF0000000
FFF0000000
FFF0000000
FFF0000000
FFF0007FF0
FFF000FFF0
FFF001FFF0
FFFFFFFFF0
FFFFFFFFF0
FFFFFFFFF0
FFFFFFFFF0
FFFFFFFFF0
FFFFFFFFE0
FFFFFFFFC0
FFFFFFFF80
FFFFFFFF80
FFFFFFFF00
FFFFFFFE00
FFFFFFFE00
ENDCHAR
STARTCHAR 010C
ENCODING 268
SWIDTH 540 0
DWIDTH 42 0
BBX 36 68 3 0
BITMAP
038000E000
03C001E000
03E003E000
03F007E000
03F80FE000
01FC1FE000
00FFFFC000
007FFF8000
003FFE0000
001FFC0000
000FF80000
0000000000
0000000000
0000000000
FFFFFFFE00
FFFFFFFF00
FFFFFFFF00
FFFFFFFF80
FFFFFFFFC0
FFFFFFFFC0
FFFFFFFFE0
FFFFFFFFF0
FFFFFFFFF0
FFFFFFFFF0
FFFFFFFFF0
FFFFFFFFF0
FFF000FFF0
FFF000FFF0
FFF0000000
FFF0000000
FFF0000000
FFF0000000
FFF0000000
FFF0000000
FFF0000000
FFF0000000
FFF0000000
FFF0000000
FFF0000000
FFF0000000
FFF0000000
FFF0000000
FFF0000000
FFF0000000
FFF0000000
FFF0000000
FFF0000000
FFF0000000
FFF0000000
FFF0000000
FFF0000000
FFF0000000
FFF0000000
FFF0007FF0
FFF000FFF0
FFF001FFF0
FFFFFFFFF0
FFFFFFFFF0
FFFFFFFFF0
FFFFFFFFF0
FFFFFFFFF0
FFFFFFFFE0
FFFFFFFFC0
FFFFFFFF80
FFFFFFFF80
FFFFFFFF00
FFFFFFFE00
FFFFFFFE00
ENDCHAR
STARTCHAR 010D
ENCODING 269
SWIDTH 540 0
DWIDTH 42 0
BBX 36 68 3 0
BITMAP
038000E000
03C001E000
03E003E000
03F007E000
03F80FE000
01FC1FE000
00FFFFC000
007FFF8000
003FFE0000
001FFC0000
000FF80000
0000000000
0000000000
0000000000
FFFFFFFE00
FFFFFFFF00
FFFFFFFF00
FFFFFFFF80
FFFFFFFFC0
FFFFFFFFC0
FFFFFFFFE0
FFFFFFFFF0
FFFFFFFFF0
FFFFFFFFF0
FFFFFFFFF0
FFFFFFFFF0
FFF000FFF0
FFF000FFF0
FFF0000000
FFF0000000
FFF0000000
FFF0000000
FFF0000000
FFF0000000
FFF0000000
FFF0000000
FFF0000000
FFF0000000
FFF0000000
FFF0000000
FFF0000000
FFF0000000
FFF0000000
FFF0000000
FFF0000000
FFF0000000
FFF0000000
FFF0000000
FFF0000000
FFF0000000
FFF0000000
FFF0000000
FFF0000000
FFF0007FF0
FFF000FFF0
FFF001FFF0
FFFFFFFFF0
FFFFFFFFF0
FFFFFFFFF0
FFFFFFFFF0
FFFFFFFFF0
FFFFFFFFE0
FFFFFFFFC0
FFFFFFFF80
FFFFFFFF80
FFFFFFFF00
FFFFFFFE00
FFFFFFFE00
ENDCHAR
STARTCHAR 010E
ENCODING 270
SWIDTH 578 0
DWIDTH 45 0
BBX 39 68 3 0
BITMAP
0070001C00
0078003C00
007C007C00
007E00FC00
007F01FC00
003F83FC00
001FFFF000
000FFFE000
0007FFC000
0003FF8000
0001FF0000
0000000000
0000000000
0000000000
FFFFFFFF80
FFFFFFFFC0
FFFFFFFFE0
FFFFFFFFF0
FFFFFFFFF0
FFFFFFFFF8
FFFFFFFFFC
FFFFFFFFFC
FFFFFFFFFE
FFFFFFFFFE
FFFFFFFFFE
FFFFFFFFFE
FFF0003FFE
FFF0003FFE
FFF0001FFE
FFF0001FFE
FFF0001FFE
FFF0001FFE
FFF0001FFE
FFF0001FFE
FFF0001FFE
FFF0001FFE
FFF0001FFE
FFF0001FFE
FFF0001FFE
FFF0001FFE
FFF0001FFE
FFF0001FFE
FFF0001FFE
FFF0001FFE
FFF0001FFE
FFF0001FFE
FFF0001FFE
FFF0001FFE
FFF0001FFE
FFF0001FFE
FFF0001FFE
FFF0001FFE
FFF0001FFE
FFF0001FFE
FFF0003FFE
FFF0007FFE
FFFFFFFFFE
FFFFFFFFFE
FFFFFFFFFE
FFFFFFFFFE
FFFFFFFFFC
FFFFFFFFF8
FFFFFFFFF8
FFFFFFFFF0
FFFFFFFFE0
FFFFFFFFE0
FFFFFFFFC0
FFFFFFFF80
ENDCHAR
STARTCHAR 010F
ENCODING 271
SWIDTH 758 0
DWIDTH 59 0
BBX 55 54 3 0
BITMAP
FFFFFFFF8001FC
FFFFFFFFC001FE
FFFFFFFFE001FE
FFFFFFFFF001FE
FFFFFFFFF001FE
FFFFFFFFF801FE
FFFFFFFFFC01FE
FFFFFFFFFC01FE
FFFFFFFFFE01FE
FFFFFFFFFE01FE
FFFFFFFFFE03FC
FFFFFFFFFE07FC
FFF0003FFE07F8
FFF0003FFE0FF0
FFF0001FFE1FF0
FFF0001FFE1FE0
FFF0001FFE3FC0
FFF0001FFE3FC0
FFF0001FFE0000
FFF0001FFE0000
FFF0001FFE0000
FFF0001FFE0000
FFF0001FFE0000
FFF0001FFE0000
FFF0001FFE0000
FFF0001FFE0000
FFF0001FFE0000
FFF0001FFE0000
FFF0001FFE0000
FFF0001FFE0000
FFF0001FFE0000
FFF0001FFE0000
FFF0001FFE0000
FFF0001FFE0000
FFF0001FFE0000
FFF0001FFE0000
FFF0001FFE0000
FFF0001FFE0000
FFF0001FFE0000
FFF0001FFE0000
FFF0003FFE0000
FFF0007FFE0000
FFFFFFFFFE0000
FFFFFFFFFE0000
FFFFFFFFFE0000
FFFFFFFFFE0000
FFFFFFFFFC0000
FFFFFFFFF80000
FFFFFFFFF80000
FFFFFFFFF00000
FFFFFFFFE00000
FFFFFFFFE00000
FFFFFFFFC00000
FFFFFFFF800000
ENDCHAR
STARTCHAR 0110
ENCODING 272
SWIDTH 578 0
DWIDTH 45 0
BBX 44 54 -2 0
BITMAP
07FFFFFFFC00
07FFFFFFFE00
07FFFFFFFF00
07FFFFFFFF80
07FFFFFFFF80
07FFFFFFFFC0
07FFFFFFFFE0
07FFFFFFFFE0
07FFFFFFFFF0
07FFFFFFFFF0
07FFFFFFFFF0
07FFFFFFFFF0
07FF8001FFF0
07FF8001FFF0
07FF8000FFF0
07FF8000FFF0
07FF8000FFF0
07FF8000FFF0
07FF8000FFF0
07FF8000FFF0
07FF8000FFF0
07FF8000FFF0
07FF8000FFF0
FFFFFF00FFF0
FFFFFF00FFF0
FFFFFF00FFF0
FFFFFF00FFF0
FFFFFF00FFF0
FFFFFF00FFF0
FFFFFF00FFF0
FFFFFF00FFF0
07FF8000FFF0
07FF8000FFF0
07FF8000FFF0
07FF8000FFF0
07FF8000FFF0
07FF8000FFF0
07FF8000FFF0
07FF8000FFF0
07FF8000FFF0
07FF8001FFF0
07FF8003FFF0
07FFFFFFFFF0
07FFFFFFFFF0
07FFFFFFFFF0
07FFFFFFFFF0
07FFFFFFFFE0
07FFFFFFFFC0
07FFFFFFFFC0
07FFFFFFFF80
07FFFFFFFF00
07FFFFFFFF00
07FFFFFFFE00
07FFFFFFFC00
ENDCHAR
STARTCHAR 0111
ENCODING 273
SWIDTH 578 0
DWIDTH 45 0
BBX 44 54 -2 0
BITMAP
07FFFFFFFC00
07FFFFFFFE00
07FFFFFFFF00
07FFFFFFFF80
07FFFFFFFF80
07FFFFFFFFC0
07FFFFFFFFE0
07FFFFFFFFE0
07FFFFFFFFF0
07FFFFFFFFF0
07FFFFFFFFF0
07FFFFFFFFF0
07FF8001FFF0
07FF8001FFF0
07FF8000FFF0
07FF8000FFF0
07FF8000FFF0
07FF8000FFF0
07FF8000FFF0
07FF8000FFF0
07FF8000FFF0
07FF8000FFF0
07FF8000FFF0
FFFFFF00FFF0
FFFFFF00FFF0
FFFFFF00FFF0
FFFFFF00FFF0
FFFFFF00FFF0
FFFFFF00FFF0
FFFFFF00FFF0
FFFFFF00FFF0
07FF8000FFF0
07FF8000FFF0
07FF8000FFF0
07FF8000FFF0
07FF8000FFF0
07FF8000FFF0
07FF8000FFF0
07FF8000FFF0
07FF8000FFF0
07FF8001FFF0
07FF8003FFF0
07FFFFFFFFF0
07FFFFFFFFF0
07FFFFFFFFF0
07FFFFFFFFF0
07FFFFFFFFE0
07FFFFFFFFC0
07FFFFFFFFC0
07FFFFFFFF80
07FFFFFFFF00
07FFFFFFFF00
07FFFFFFFE00
07FFFFFFFC00
ENDCHAR
STARTCHAR 0112
ENCODING 274
SWIDTH 540 0
DWIDTH 42 0
BBX 36 65 3 0
BITMAP
FFFFFFFF00
FFFFFFFF00
FFFFFFFF00
FFFFFFFF00
FFFFFFFF00
FFFFFFFF00
FFFFFFFF00
FFFFFFFF00
0000000000
0000000000
0000000000
FFFFFFFE00
FFFFFFFE00
FFFFFFFF00
FFFFFFFF80
FFFFFFFFC0
FFFFFFFFC0
FFFFFFFFE0
FFFFFFFFF0
FFFFFFFFF0
FFFFFFFFF0
FFFFFFFFF0
FFFFFFFFF0
FFF0007FF0
FFF0003FF0
FFF0000000
FFF0000000
FFF0000000
FFF0000000
FFF0000000
FFF0000000
FFF0000000
FFF0000000
FFFFFFE000
FFFFFFE000
FFFFFFE000
FFFFFFE000
FFFFFFE000
FFFFFFE000
FFFFFFE000
FFFFFFE000
FFFFFFE000
FFF0000000
FFF0000000
FFF0000000
FFF0000000
FFF0000000
FFF0000000
FFF0000000
FFF0000000
FFF0001FF0
FFF0003FF0
FFF0007FF0
FFFFFFFFF0
FFFFFFFFF0
FFFFFFFFF0
FFFFFFFFF0
FFFFFFFFE0
FFFFFFFFE0
FFFFFFFFC0
FFFFFFFF80
FFFFFFFF00
FFFFFFFF00
FFFFFFFE00
FFFFFFFC00
ENDCHAR
STARTCHAR 0113
ENCODING 275
SWIDTH 540 0
DWIDTH 42 0
BBX 36 65 3 0
BITMAP
FFFFFFFF00
FFFFFFFF00
FFFFFFFF00
FFFFFFFF00
FFFFFFFF00
FFFFFFFF00
FFFFFFFF00
FFFFFFFF00
0000000000
0000000000
0000000000
FFFFFFFE00
FFFFFFFE00
FFFFFFFF00
FFFFFFFF80
FFFFFFFFC0
FFFFFFFFC0
FFFFFFFFE0
FFFFFFFFF0
FFFFFFFFF0
FFFFFFFFF0
FFFFFFFFF0
FFFFFFFFF0
FFF0007FF0
FFF0003FF0
FFF0000000
FFF0000000
FFF0000000
FFF0000000
FFF0000000
FFF0000000
FFF0000000
FFF0000000
FFFFFFE000
FFFFFFE000
FFFFFFE000
FFFFFFE000
FFFFFFE000
FFFFFFE000
FFFFFFE000
FFFFFFE000
FFFFFFE000
FFF0000000
FFF0000000
FFF0000000
FFF0000000
FFF0000000
FFF0000000
FFF0000000
FFF0000000
FFF0001FF0
FFF0003FF0
FFF0007FF0
FFFFFFFFF0
FFFFFFFFF0
FFFFFFFFF0
FFFFFFFFF0
FFFFFFFFE0
FFFFFFFFE0
FFFFFFFFC0
FFFFFFFF80
FFFFFFFF00
FFFFFFFF00
FFFFFFFE00
FFFFFFFC00
ENDCHAR
STARTCHAR 0116
ENCODING 278
SWIDTH 540 0
DWIDTH 42 0
BBX 36 67 3 0
BITMAP
0003F00000
0007F80000
000FFC0000
000FFC0000
000FFC0000
000FFC0000
000FFC0000
000FFC0000
0007F80000
0003F00000
0000000000
0000000000
0000000000
FFFFFFFE00
FFFFFFFE00
FFFFFFFF00
FFFFFFFF80
FFFFFFFFC0
FFFFFFFFC0
FFFFFFFFE0
FFFFFFFFF0
FFFFFFFFF0
FFFFFFFFF0
FFFFFFFFF0
FFFFFFFFF0
FFF0007FF0
FFF0003FF0
FFF0000000
FFF0000000
FFF0000000
FFF0000000
FFF0000000
FFF0000000
FFF0000000
FFF0000000
FFFFFFE000
FFFFFFE000
FFFFFFE000
FFFFFFE000
FFFFFFE000
FFFFFFE000
FFFFFFE000
FFFFFFE000
FFFFFFE000
FFF0000000
FFF0000000
FFF0000000
FFF0000000
FFF0000000
FFF0000000
FFF0000000
FFF0000000
FFF0001FF0
FFF0003FF0
FFF0007FF0
FFFFFFFFF0
FFFFFFFFF0
FFFFFFFFF0
FFFFFFFFF0
FFFFFFFFE0
FFFFFFFFE0
FFFFFFFFC0
FFFFFFFF80
FFFFFFFF00
FFFFFFFF00
FFFFFFFE00
FFFFFFFC00
ENDCHAR
STARTCHAR 0117
ENCODING 279
SWIDTH 540 0
DWIDTH 42 0
BBX 36 67 3 0
BITMAP
0003F00000
0007F80000
000FFC0000
000FFC0000
000FFC0000
000FFC0000
000FFC0000
000FFC0000
0007F80000
0003F00000
0000000000
0000000000
0000000000
FFFFFFFE00
FFFFFFFE00
FFFFFFFF00
FFFFFFFF80
FFFFFFFFC0
FFFFFFFFC0
FFFFFFFFE0
FFFFFFFFF0
FFFFFFFFF0
FFFFFFFFF0
FFFFFFFFF0
FFFFFFFFF0
FFF0007FF0
FFF0003FF0
FFF0000000
FFF0000000
FFF0000000
FFF0000000
FFF0000000
FFF0000000
FFF0000000
FFF0000000
FFFFFFE000
FFFFFFE000
FFFFFFE000
FFFFFFE000
FFFFFFE000
FFFFFFE000
FFFFFFE000
FFFFFFE000
FFFFFFE000
FFF0000000
FFF0000000
FFF0000000
FFF0000000
FFF0000000
FFF0000000
FFF0000000
FFF0000000
FFF0001FF0
FFF0003FF0
FFF0007FF0
FFFFFFFFF0
FFFFFFFFF0
FFFFFFFFF0
FFFFFFFFF0
FFFFFFFFE0
FFFFFFFFE0
FFFFFFFFC0
FFFFFFFF80
FFFFFFFF00
FFFFFFFF00
FFFFFFFE00
FFFFFFFC00
ENDCHAR
STARTCHAR 0118
ENCODING 280
SWIDTH 540 0
DWIDTH 42 0
BBX 36 66 3 -12
BITMAP
FFFFFFFE00
FFFFFFFE00
FFFFFFFF00
FFFFFFFF80
FFFFFFFFC0
FFFFFFFFC0
FFFFFFFFE0
FFFFFFFFF0
FFFFFFFFF0
FFFFFFFFF0
FFFFFFFFF0
FFFFFFFFF0
FFF0007FF0
FFF0003FF0
FFF0000000
FFF0000000
FFF0000000
FFF0000000
FFF0000000
FFF0000000
FFF0000000
FFF0000000
FFFFFFE000
FFFFFFE000
FFFFFFE000
FFFFFFE000
FFFFFFE000
FFFFFFE000
FFFFFFE000
FFFFFFE000
FFFFFFE000
FFF0000000
FFF0000000
FFF0000000
FFF0000000
FFF0000000
FFF0000000
FFF0000000
FFF0000000
FFF0001FF0
FFF0003FF0
FFF0007FF0
FFFFFFFFF0
FFFFFFFFF0
FFFFFFFFF0
FFFFFFFFF0
FFFFFFFFE0
FFFFFFFFE0
FFFFFFFFC0
FFFFFFFF80
FFFFFFFF00
FFFFFFFF00
FFFFFFFE00
FFFFFFFC00
0003E00000
0007E00000
0007C00000
000F800000
000F800000
001F000000
001F1F0000
001FFF0000
001FFF0000
001FFE0000
001FFE0000
001FFC0000
ENDCHAR
STARTCHAR 0119
ENCODING 281
SWIDTH 540 0
DWIDTH 42 0
BBX 36 66 3 -12
BITMAP
FFFFFFFE00
FFFFFFFE00
FFFFFFFF00
FFFFFFFF80
FFFFFFFFC0
FFFFFFFFC0
FFFFFFFFE0
FFFFFFFFF0
FFFFFFFFF0
FFFFFFFFF0
FFFFFFFFF0
FFFFFFFFF0
FFF0007FF0
FFF0003FF0
FFF0000000
FFF0000000
FFF0000000
FFF0000000
FFF0000000
FFF0000000
FFF0000000
FFF0000000
FFFFFFE000
FFFFFFE000
FFFFFFE000
FFFFFFE000
FFFFFFE000
FFFFFFE000
FFFFFFE000
FFFFFFE000
FFFFFFE000
FFF0000000
FFF0000000
FFF0000000
FFF0000000
FFF0000000
FFF0000000
FFF0000000
FFF0000000
FFF0001FF0
FFF0003FF0
FFF0007FF0
FFFFFFFFF0
FFFFFFFFF0
FFFFFFFFF0
FFFFFFFFF0
FFFFFFFFE0
FFFFFFFFE0
FFFFFFFFC0
FFFFFFFF80
FFFFFFFF00
FFFFFFFF00
FFFFFFFE00
FFFFFFFC00
0003E00000
0007E00000
0007C00000
000F800000
000F800000
001F000000
001F1F0000
001FFF0000
001FFF0000
001FFE0000
001FFE0000
001FFC0000
ENDCHAR
STARTCHAR 011C
ENCODING 284
SWIDTH 552 0
DWIDTH 43 0
BBX 37 67 3 0
BITMAP
00FFFFF000
01FFFFF800
03FFFFFE00
0FFFFFFF00
1FFFFFFF80
3FFFFFFFC0
3FE0007FC0
3FC0003FC0
3F80001FC0
3F00000FC0
0000000000
0000000000
0000000000
FFFFFFFF00
FFFFFFFF00
FFFFFFFF80
FFFFFFFFC0
FFFFFFFFC0
FFFFFFFFE0
FFFFFFFFF0
FFFFFFFFF8
FFFFFFFFF8
FFFFFFFFF8
FFFFFFFFF8
FFFFFFFFF8
FFF0003FF8
FFF0003FF8
FFF0000000
FFF0000000
FFF0000000
FFF0000000
FFF0000000
FFF0000000
FFF0000000
FFF0000000
FFF0000000
FFF03FFFF8
FFF03FFFF8
FFF03FFFF8
FFF03FFFF8
FFF03FFFF8
FFF03FFFF8
FFF03FFFF8
FFF03FFFF8
FFF03FFFF8
FFF03FFFF8
FFF03FFFF8
FFF03FFFF8
FFF0007FF8
FFF0007FF8
FFF0007FF8
FFF0007FF8
FFF0007FF8
FFF0007FF8
FFF0007FF8
FFFFFFFFF8
FFFFFFFFF8
FFFFFFFFF8
FFFFFFFFF8
FFFFFFFFF8
FFFFFFFFF8
FFFFFFFFF8
FFFFFFFFF8
FFFFFFFFF8
FFFFFFFFF8
FFFFFFF3F8
FFFFFFF1F8
ENDCHAR
STARTCHAR 011D
ENCODING 285
SWIDTH 552 0
DWIDTH 43 0
BBX 37 67 3 0
BITMAP
00FFFFF000
01FFFFF800
03FFFFFE00
0FFFFFFF00
1FFFFFFF80
3FFFFFFFC0
3FE0007FC0
3FC0003FC0
3F80001FC0
3F00000FC0
0000000000
0000000000
0000000000
FFFFFFFF00
FFFFFFFF00
FFFFFFFF80
FFFFFFFFC0
FFFFFFFFC0
FFFFFFFFE0
FFFFFFFFF0
FFFFFFFFF8
FFFFFFFFF8
FFFFFFFFF8
FFFFFFFFF8
FFFFFFFFF8
FFF0003FF8
FFF0003FF8
FFF0000000
FFF0000000
FFF0000000
FFF0000000
FFF0000000
FFF0000000
FFF0000000
FFF0000000
FFF0000000
FFF03FFFF8
FFF03FFFF8
FFF03FFFF8
FFF03FFFF8
FFF03FFFF8
FFF03FFFF8
FFF03FFFF8
FFF03FFFF8
FFF03FFFF8
FFF03FFFF8
FFF03FFFF8
FFF03FFFF8
FFF0007FF8
FFF0007FF8
FFF0007FF8
FFF0007FF8
FFF0007FF8
FFF0007FF8
FFF0007FF8
FFFFFFFFF8
FFFFFFFFF8
FFFFFFFFF8
FFFFFFFFF8
FFFFFFFFF8
FFFFFFFFF8
FFFFFFFFF8
FFFFFFFFF8
FFFFFFFFF8
FFFFFFFFF8
FFFFFFF3F8
FFFFFFF1F8
ENDCHAR
STARTCHAR 011E
ENCODING 286
SWIDTH 552 0
DWIDTH 43 0
BBX 37 67 3 0
BITMAP
3F00000FC0
3FC0003FC0
3FE0007FC0
3FF000FFC0
1FFFFFFF80
0FFFFFFF00
07FFFFFE00
03FFFFFC00
01FFFFF800
00FFFFF000
0000000000
0000000000
0000000000
FFFFFFFF00
FFFFFFFF00
FFFFFFFF80
FFFFFFFFC0
FFFFFFFFC0
FFFFFFFFE0
FFFFFFFFF0
FFFFFFFFF8
FFFFFFFFF8
FFFFFFFFF8
FFFFFFFFF8
FFFFFFFFF8
FFF0003FF8
FFF0003FF8
FFF0000000
FFF0000000
FFF0000000
FFF0000000
FFF0000000
FFF0000000
FFF0000000
FFF0000000
FFF0000000
FFF03FFFF8
FFF03FFFF8
FFF03FFFF8
FFF03FFFF8
FFF03FFFF8
FFF03FFFF8
FFF03FFFF8
FFF03FFFF8
FFF03FFFF8
FFF03FFFF8
FFF03FFFF8
FFF03FFFF8
FFF0007FF8
FFF0007FF8
FFF0007FF8
FFF0007FF8
FFF0007FF8
FFF0007FF8
FFF0007FF8
FFFFFFFFF8
FFFFFFFFF8
FFFFFFFFF8
FFFFFFFFF8
FFFFFFFFF8
FFFFFFFFF8
FFFFFFFFF8
FFFFFFFFF8
FFFFFFFFF8
FFFFFFFFF8
FFFFFFF3F8
FFFFFFF1F8
ENDCHAR
STARTCHAR 011F
ENCODING 287
SWIDTH 552 0
DWIDTH 43 0
BBX 37 67 3 0
BITMAP
3F00000FC0
3FC0003FC0
3FE0007FC0
3FF000FFC0
1FFFFFFF80
0FFFFFFF00
07FFFFFE00
03FFFFFC00
01FFFFF800
00FFFFF000
0000000000
0000000000
0000000000
FFFFFFFF00
FFFFFFFF00
FFFFFFFF80
FFFFFFFFC0
FFFFFFFFC0
FFFFFFFFE0
FFFFFFFFF0
FFFFFFFFF8
FFFFFFFFF8
FFFFFFFFF8
FFFFFFFFF8
FFFFFFFFF8
FFF0003FF8
FFF0003FF8
FFF0000000
FFF0000000
FFF0000000
FFF0000000
FFF0000000
FFF0000000
FFF0000000
FFF0000000
FFF0000000
FFF03FFFF8
FFF03FFFF8
FFF03FFFF8
FFF03FFFF8
FFF03FFFF8
FFF03FFFF8
FFF03FFFF8
FFF03FFFF8
FFF03FFFF8
FFF03FFFF8
FFF03FFFF8
FFF03FFFF8
FFF0007FF8
FFF0007FF8
FFF0007FF8
FFF0007FF8
FFF0007FF8
FFF0007FF8
FFF0007FF8
FFFFFFFFF8
FFFFFFFFF8
FFFFFFFFF8
FFFFFFFFF8
FFFFFFFFF8
FFFFFFFFF8
FFFFFFFFF8
FFFFFFFFF8
FFFFFFFFF8
FFFFFFFFF8
FFFFFFF3F8
FFFFFFF1F8
ENDCHAR
STARTCHAR 0120
ENCODING 288
SWIDTH 552 0
DWIDTH 43 0
BBX 37 67 3 0
BITMAP
0000FC0000
0001FE0000
0003FE0000
0003FE0000
0003FE0000
0003FE0000
0003FE0000
0003FE0000
0001FC0000
0000F80000
0000000000
0000000000
0000000000
FFFFFFFF00
FFFFFFFF00
FFFFFFFF80
FFFFFFFFC0
FFFFFFFFC0
FFFFFFFFE0
FFFFFFFFF0
FFFFFFFFF8
FFFFFFFFF8
FFFFFFFFF8
FFFFFFFFF8
FFFFFFFFF8
FFF0003FF8
FFF0003FF8
FFF0000000
FFF0000000
FFF0000000
FFF0000000
FFF0000000
FFF0000000
FFF0000000
FFF0000000
FFF0000000
FFF03FFFF8
FFF03FFFF8
FFF03FFFF8
FFF03FFFF8
FFF03FFFF8
FFF03FFFF8
FFF03FFFF8
FFF03FFFF8
FFF03FFFF8
FFF03FFFF8
FFF03FFFF8
FFF03FFFF8
FFF0007FF8
FFF0007FF8
FFF0007FF8
FFF0007FF8
FFF0007FF8
FFF0007FF8
FFF0007FF8
FFFFFFFFF8
FFFFFFFFF8
FFFFFFFFF8
FFFFFFFFF8
FFFFFFFFF8
FFFFFFFFF8
FFFFFFFFF8
FFFFFFFFF8
FFFFFFFFF8
FFFFFFFFF8
FFFFFFF3F8
FFFFFFF1F8
ENDCHAR
STARTCHAR 0121
ENCODING 289
SWIDTH 552 0
DWIDTH 43 0
BBX 37 67 3 0
BITMAP
0000FC0000
0001FE0000
0003FE0000
0003FE0000
0003FE0000
0003FE0000
0003FE0000
0003FE0000
0001FC0000
0000F80000
0000000000
0000000000
0000000000
FFFFFFFF00
FFFFFFFF00
FFFFFFFF80
FFFFFFFFC0
FFFFFFFFC0
FFFFFFFFE0
FFFFFFFFF0
FFFFFFFFF8
FFFFFFFFF8
FFFFFFFFF8
FFFFFFFFF8
FFFFFFFFF8
FFF0003FF8
FFF0003FF8
FFF0000000
FFF0000000
FFF0000000
FFF0000000
FFF0000000
FFF0000000
FFF0000000
FFF0000000
FFF0000000
FFF03FFFF8
FFF03FFFF8
FFF03FFFF8
FFF03FFFF8
FFF03FFFF8
FFF03FFFF8
FFF03FFFF8
FFF03FFFF8
FFF03FFFF8
FFF03FFFF8
FFF03FFFF8
FFF03FFFF8
FFF0007FF8
FFF0007FF8
FFF0007FF8
FFF0007FF8
FFF0007FF8
FFF0007FF8
FFF0007FF8
FFFFFFFFF8
FFFFFFFFF8
FFFFFFFFF8
FFFFFFFFF8
FFFFFFFFF8
FFFFFFFFF8
FFFFFFFFF8
FFFFFFFFF8
FFFFFFFFF8
FFFFFFFFF8
FFFFFFF3F8
FFFFFFF1F8
ENDCHAR
STARTCHAR 0122
ENCODING 290
SWIDTH 552 0
DWIDTH 43 0
BBX 37 67 3 -13
BITMAP
FFFFFFFF00
FFFFFFFF00
FFFFFFFF80
FFFFFFFFC0
FFFFFFFFC0
FFFFFFFFE0
FFFFFFFFF0
FFFFFFFFF8
FFFFFFFFF8
FFFFFFFFF8
FFFFFFFFF8
FFFFFFFFF8
FFF0003FF8
FFF0003FF8
FFF0000000
FFF0000000
FFF0000000
FFF0000000
FFF0000000
FFF0000000
FFF0000000
FFF0000000
FFF0000000
FFF03FFFF8
FFF03FFFF8
FFF03FFFF8
FFF03FFFF8
FFF03FFFF8
FFF03FFFF8
FFF03FFFF8
FFF03FFFF8
FFF03FFFF8
FFF03FFFF8
FFF03FFFF8
FFF03FFFF8
FFF0007FF8
FFF0007FF8
FFF0007FF8
FFF0007FF8
FFF0007FF8
FFF0007FF8
FFF0007FF8
FFFFFFFFF8
FFFFFFFFF8
FFFFFFFFF8
FFFFFFFFF8
FFFFFFFFF8
FFFFFFFFF8
FFFFFFFFF8
FFFFFFFFF8
FFFFFFFFF8
FFFFFFFFF8
FFFFFFF3F8
FFFFFFF1F8
0000000000
0000000000
0000F80000
0000F80000
0000F80000
0000F80000
0000F80000
0000F80000
0001F00000
0001F00000
0003E00000
0007C00000
0007C00000
ENDCHAR
STARTCHAR 0123
ENCODING 291
SWIDTH 552 0
DWIDTH 43 0
BBX 37 67 3 -13
BITMAP
FFFFFFFF00
FFFFFFFF00
FFFFFFFF80
FFFFFFFFC0
FFFFFFFFC0
FFFFFFFFE0
FFFFFFFFF0
FFFFFFFFF8
FFFFFFFFF8
FFFFFFFFF8
FFFFFFFFF8
FFFFFFFFF8
FFF0003FF8
FFF0003FF8
FFF0000000
FFF0000000
FFF0000000
FFF0000000
FFF0000000
FFF0000000
FFF0000000
FFF0000000
FFF0000000
FFF03FFFF8
FFF03FFFF8
FFF03FFFF8
FFF03FFFF8
FFF03FFFF8
FFF03FFFF8
FFF03FFFF8
FFF03FFFF8
FFF03FFFF8
FFF03FFFF8
FFF03FFFF8
FFF03FFFF8
FFF0007FF8
FFF0007FF8
FFF0007FF8
FFF0007FF8
FFF0007FF8
FFF0007FF8
FFF0007FF8
FFFFFFFFF8
FFFFFFFFF8
FFFFFFFFF8
FFFFFFFFF8
FFFFFFFFF8
FFFFFFFFF8
FFFFFFFFF8
FFFFFFFFF8
FFFFFFFFF8
FFFFFFFFF8
FFFFFFF3F8
FFFFFFF1F8
0000000000
0000000000
0000F80000
0000F80000
0000F80000
0000F80000
0000F80000
0000F80000
0001F00000
0001F00000
0003E00000
0007C00000
0007C00000
ENDCHAR
STARTCHAR 0124
ENCODING 292
SWIDTH 578 0
DWIDTH 45 0
BBX 39 67 3 0
BITMAP
007FFFFC00
00FFFFFE00
01FFFFFF00
03FFFFFF80
07FFFFFFC0
0FFFFFFFE0
0FF8003FF0
0FF0001FF0
0FE00007F0
0F800003F0
0000000000
0000000000
0000000000
FFF0001FFE
FFF0001FFE
FFF0001FFE
FFF0001FFE
FFF0001FFE
FFF0001FFE
FFF0001FFE
FFF0001FFE
FFF0001FFE
FFF0001FFE
FFF0001FFE
FFF0001FFE
FFF0001FFE
FFF0001FFE
FFF0001FFE
FFF0001FFE
FFF0001FFE
FFF8001FFE
FFF8003FFE
FFFC007FFE
FFFFFFFFFE
FFFFFFFFFE
FFFFFFFFFE
FFFFFFFFFE
FFFFFFFFFE
FFFFFFFFFE
FFFFFFFFFE
FFFFFFFFFE
FFFFFFFFFE
FFFFFFFFFE
FFFFFFFFFE
FFFFFFFFFE
FFFC007FFE
FFF8003FFE
FFF0001FFE
FFF0001FFE
FFF0001FFE
FFF0001FFE
FFF0001FFE
FFF0001FFE
FFF0001FFE
FFF0001FFE
FFF0001FFE
FFF0001FFE
FFF0001FFE
FFF0001FFE
FFF0001FFE
FFF0001FFE
FFF0001FFE
FFF0001FFE
FFF0001FFE
FFF0001FFE
FFF0001FFE
FFF0001FFE
ENDCHAR
STARTCHAR 0125
ENCODING 293
SWIDTH 578 0
DWIDTH 45 0
BBX 39 67 3 0
BITMAP
007FFFFC00
00FFFFFE00
01FFFFFF00
03FFFFFF80
07FFFFFFC0
0FFFFFFFE0
0FF8003FF0
0FF0001FF0
0FE00007F0
0F800003F0
0000000000
0000000000
0000000000
FFF0001FFE
FFF0001FFE
FFF0001FFE
FFF0001FFE
FFF0001FFE
FFF0001FFE
FFF0001FFE
FFF0001FFE
FFF0001FFE
FFF0001FFE
FFF0001FFE
FFF0001FFE
FFF0001FFE
FFF0001FFE
FFF0001FFE
FFF0001FFE
FFF0001FFE
FFF8001FFE
FFF8003FFE
FFFC007FFE
FFFFFFFFFE
FFFFFFFFFE
FFFFFFFFFE
FFFFFFFFFE
FFFFFFFFFE
FFFFFFFFFE
FFFFFFFFFE
FFFFFFFFFE
FFFFFFFFFE
FFFFFFFFFE
FFFFFFFFFE
FFFFFFFFFE
FFFC007FFE
FFF8003FFE
FFF0001FFE
FFF0001FFE
FFF0001FFE
FFF0001FFE
FFF0001FFE
FFF0001FFE
FFF0001FFE
FFF0001FFE
FFF0001FFE
FFF0001FFE
FFF0001FFE
FFF0001FFE
FFF0001FFE
FFF0001FFE
FFF0001FFE
FFF0001FFE
FFF0001FFE
FFF0001FFE
FFF0001FFE
FFF0001FFE
ENDCHAR
STARTCHAR 0126
ENCODING 294
SWIDTH 578 0
DWIDTH 45 0
BBX 51 54 -3 0
BITMAP
03FFC0007FF800
03FFC0007FF800
03FFC0007FF800
03FFC0007FF800
03FFC0007FF800
FFFFFFFFFFFFE0
FFFFFFFFFFFFE0
FFFFFFFFFFFFE0
FFFFFFFFFFFFE0
FFFFFFFFFFFFE0
FFFFFFFFFFFFE0
FFFFFFFFFFFFE0
FFFFFFFFFFFFE0
03FFC0007FF800
03FFC0007FF800
03FFC0007FF800
03FFC0007FF800
03FFE0007FF800
03FFE000FFF800
03FFF001FFF800
03FFFFFFFFF800
03FFFFFFFFF800
03FFFFFFFFF800
03FFFFFFFFF800
03FFFFFFFFF800
03FFFFFFFFF800
03FFFFFFFFF800
03FFFFFFFFF800
03FFFFFFFFF800
03FFFFFFFFF800
03FFFFFFFFF800
03FFFFFFFFF800
03FFF001FFF800
03FFE000FFF800
03FFC0007FF800
03FFC0007FF800
03FFC0007FF800
03FFC0007FF800
03FFC0007FF800
03FFC0007FF800
03FFC0007FF800
03FFC0007FF800
03FFC0007FF800
03FFC0007FF800
03FFC0007FF800
03FFC0007FF800
03FFC0007FF800
03FFC0007FF800
03FFC0007FF800
03FFC0007FF800
03FFC0007FF800
03FFC0007FF800
03FFC0007FF800
03FFC0007FF800
ENDCHAR
STARTCHAR 0127
ENCODING 295
SWIDTH 578 0
DWIDTH 45 0
BBX 51 54 -3 0
BITMAP
03FFC0007FF800
03FFC0007FF800
03FFC0007FF800
03FFC0007FF800
03FFC0007FF800
FFFFFFFFFFFFE0
FFFFFFFFFFFFE0
FFFFFFFFFFFFE0
FFFFFFFFFFFFE0
FFFFFFFFFFFFE0
FFFFFFFFFFFFE0
FFFFFFFFFFFFE0
FFFFFFFFFFFFE0
03FFC0007FF800
03FFC0007FF800
03FFC0007FF800
03FFC0007FF800
03FFE0007FF800
03FFE000FFF800
03FFF001FFF800
03FFFFFFFFF800
03FFFFFFFFF800
03FFFFFFFFF800
03FFFFFFFFF800
03FFFFFFFFF800
03FFFFFFFFF800
03FFFFFFFFF800
03FFFFFFFFF800
03FFFFFFFFF800
03FFFFFFFFF800
03FFFFFFFFF800
03FFFFFFFFF800
03FFF001FFF800
03FFE000FFF800
03FFC0007FF800
03FFC0007FF800
03FFC0007FF800
03FFC0007FF800
03FFC0007FF800
03FFC0007FF800
03FFC0007FF800
03FFC0007FF800
03FFC0007FF800
03FFC0007FF800
03FFC0007FF800
03FFC0007FF800
03FFC0007FF800
03FFC0007FF800
03FFC0007FF800
03FFC0007FF800
03FFC0007FF800
03FFC0007FF800
03FFC0007FF800
03FFC0007FF800
ENDCHAR
STARTCHAR 0128
ENCODING 296
SWIDTH 231 0
DWIDTH 18 0
BBX 32 68 -7 0
BITMAP
00780000
01FF0000
07FFC007
1FFFF81F
7FFFFF7F
FFFFFFFF
FF87FFFF
FF00FFFF
FC001FFC
F80007E0
E0000080
00000000
00000000
00000000
003FFC00
003FFC00
003FFC00
003FFC00
003FFC00
003FFC00
003FFC00
003FFC00
003FFC00
003FFC00
003FFC00
003FFC00
003FFC00
003FFC00
003FFC00
003FFC00
003FFC00
003FFC00
003FFC00
003FFC00
003FFC00
003FFC00
003FFC00
003FFC00
003FFC00
003FFC00
003FFC00
003FFC00
003FFC00
003FFC00
003FFC00
003FFC00
003FFC00
003FFC00
003FFC00
003FFC00
003FFC00
003FFC00
003FFC00
003FFC00
003FFC00
003FFC00
003FFC00
003FFC00
003FFC00
003FFC00
003FFC00
003FFC00
003FFC00
003FFC00
003FFC00
003FFC00
003FFC00
003FFC00
ENDCHAR
STARTCHAR 0129
ENCODING 297
SWIDTH 231 0
DWIDTH 18 0
BBX 32 68 -7 0
BITMAP
00780000
01FF0000
07FFE007
1FFFF81F
7FFFFF7F
FFFFFFFF
FF87FFFF
FF00FFFF
FC001FFC
F80003E0
E0000000
00000000
00000000
00000000
003FFC00
003FFC00
003FFC00
003FFC00
003FFC00
003FFC00
003FFC00
003FFC00
003FFC00
003FFC00
003FFC00
003FFC00
003FFC00
003FFC00
003FFC00
003FFC00
003FFC00
003FFC00
003FFC00
003FFC00
003FFC00
003FFC00
003FFC00
003FFC00
003FFC00
003FFC00
003FFC00
003FFC00
003FFC00
003FFC00
003FFC00
003FFC00
003FFC00
003FFC00
003FFC00
003FFC00
003FFC00
003FFC00
003FFC00
003FFC00
003FFC00
003FFC00
003FFC00
003FFC00
003FFC00
003FFC00
003FFC00
003FFC00
003FFC00
003FFC00
003FFC00
003FFC00
003FFC00
003FFC00
ENDCHAR
STARTCHAR 012A
ENCODING 298
SWIDTH 231 0
DWIDTH 18 0
BBX 31 65 -6 0
BITMAP
FFFFFFFE
FFFFFFFE
FFFFFFFE
FFFFFFFE
FFFFFFFE
FFFFFFFE
FFFFFFFE
FFFFFFFE
00000000
00000000
00000000
007FF800
007FF800
007FF800
007FF800
007FF800
007FF800
007FF800
007FF800
007FF800
007FF800
007FF800
007FF800
007FF800
007FF800
007FF800
007FF800
007FF800
007FF800
007FF800
007FF800
007FF800
007FF800
007FF800
007FF800
007FF800
007FF800
007FF800
007FF800
007FF800
007FF800
007FF800
007FF800
007FF800
007FF800
007FF800
007FF800
007FF800
007FF800
007FF800
007FF800
007FF800
007FF800
007FF800
007FF800
007FF800
007FF800
007FF800
007FF800
007FF800
007FF800
007FF800
007FF800
007FF800
007FF800
ENDCHAR
STARTCHAR 012B
ENCODING 299
SWIDTH 231 0
DWIDTH 18 0
BBX 31 65 -6 0
BITMAP
FFFFFFFE
FFFFFFFE
FFFFFFFE
FFFFFFFE
FFFFFFFE
FFFFFFFE
FFFFFFFE
FFFFFFFE
00000000
00000000
00000000
007FF800
007FF800
007FF800
007FF800
007FF800
007FF800
007FF800
007FF800
007FF800
007FF800
007FF800
007FF800
007FF800
007FF800
007FF800
007FF800
007FF800
007FF800
007FF800
007FF800
007FF800
007FF800
007FF800
007FF800
007FF800
007FF800
007FF800
007FF800
007FF800
007FF800
007FF800
007FF800
007FF800
007FF800
007FF800
007FF800
007FF800
007FF800
007FF800
007FF800
007FF800
007FF800
007FF800
007FF800
007FF800
007FF800
007FF800
007FF800
007FF800
007FF800
007FF800
007FF800
007FF800
007FF800
ENDCHAR
STARTCHAR 012E
ENCODING 302
SWIDTH 231 0
DWIDTH 18 0
BBX 14 66 2 -12
BITMAP
7FF8
7FF8
7FF8
7FF8
7FF8
7FF8
7FF8
7FF8
7FF8
7FF8
7FF8
7FF8
7FF8
7FF8
7FF8
7FF8
7FF8
7FF8
7FF8
7FF8
7FF8
7FF8
7FF8
7FF8
7FF8
7FF8
7FF8
7FF8
7FF8
7FF8
7FF8
7FF8
7FF8
7FF8
7FF8
7FF8
7FF8
7FF8
7FF8
7FF8
7FF8
7FF8
7FF8
7FF8
7FF8
7FF8
7FF8
7FF8
7FF8
7FF8
7FF8
7FF8
7FF8
7FF8
0F80
1F00
1F00
3E00
7E00
7C00
FC7C
FFFC
FFFC
FFF8
FFF8
7FF0
ENDCHAR
STARTCHAR 012F
ENCODING 303
SWIDTH 231 0
DWIDTH 18 0
BBX 14 66 2 -12
BITMAP
7FF8
7FF8
7FF8
7FF8
7FF8
7FF8
7FF8
7FF8
7FF8
7FF8
7FF8
7FF8
7FF8
7FF8
7FF8
7FF8
7FF8
7FF8
7FF8
7FF8
7FF8
7FF8
7FF8
7FF8
7FF8
7FF8
7FF8
7FF8
7FF8
7FF8
7FF8
7FF8
7FF8
7FF8
7FF8
7FF8
7FF8
7FF8
7FF8
7FF8
7FF8
7FF8
7FF8
7FF8
7FF8
7FF8
7FF8
7FF8
7FF8
7FF8
7FF8
7FF8
7FF8
7FF8
0F80
1F00
1F00
3E00
7E00
7C00
FC7C
FFFC
FFFC
FFF8
FFF8
7FF0
ENDCHAR
STARTCHAR 0134
ENCODING 308
SWIDTH 501 0
DWIDTH 39 0
BBX 34 67 3 0
BITMAP
000FFFF000
001FFFF800
003FFFFC00
007FFFFE00
01FFFFFF00
03FFFFFF80
03FF00FFC0
03FC007FC0
03F8001FC0
03F0000FC0
0000000000
0000000000
0000000000
03FFFFFFC0
03FFFFFFC0
03FFFFFFC0
03FFFFFFC0
03FFFFFFC0
03FFFFFFC0
03FFFFFFC0
03FFFFFFC0
03FFFFFFC0
03FFFFFFC0
03FFFFFFC0
03FFFFFFC0
000007FFC0
000007FFC0
000007FFC0
000007FFC0
000007FFC0
000007FFC0
000007FFC0
000007FFC0
000007FFC0
000007FFC0
000007FFC0
000007FFC0
000007FFC0
000007FFC0
000007FFC0
000007FFC0
000007FFC0
000007FFC0
000007FFC0
000007FFC0
000007FFC0
000007FFC0
000007FFC0
000007FFC0
000007FFC0
000007FFC0
000007FFC0
FFF007FFC0
FFF807FFC0
FFFC07FFC0
FFFFFFFFC0
FFFFFFFFC0
FFFFFFFFC0
FFFFFFFFC0
7FFFFFFFC0
3FFFFFFFC0
3FFFFFFFC0
1FFFFFFFC0
0FFFFFFFC0
07FFFFFFC0
07FFFFFFC0
03FFFFFFC0
ENDCHAR
STARTCHAR 0135
ENCODING 309
SWIDTH 501 0
DWIDTH 39 0
BBX 34 67 3 0
BITMAP
000FFFF000
001FFFF800
003FFFFC00
007FFFFE00
01FFFFFF00
03FFFFFF80
03FF00FFC0
03FC007FC0
03F8001FC0
03F0000FC0
0000000000
0000000000
0000000000
03FFFFFFC0
03FFFFFFC0
03FFFFFFC0
03FFFFFFC0
03FFFFFFC0
03FFFFFFC0
03FFFFFFC0
03FFFFFFC0
03FFFFFFC0
03FFFFFFC0
03FFFFFFC0
03FFFFFFC0
000007FFC0
000007FFC0
000007FFC0
000007FFC0
000007FFC0
000007FFC0
000007FFC0
000007FFC0
000007FFC0
000007FFC0
000007FFC0
000007FFC0
000007FFC0
000007FFC0
000007FFC0
000007FFC0
000007FFC0
000007FFC0
000007FFC0
000007FFC0
000007FFC0
000007FFC0
000007FFC0
000007FFC0
000007FFC0
000007FFC0
000007FFC0
FFF007FFC0
FFF807FFC0
FFFC07FFC0
FFFFFFFFC0
FFFFFFFFC0
FFFFFFFFC0
FFFFFFFFC0
7FFFFFFFC0
3FFFFFFFC0
3FFFFFFFC0
1FFFFFFFC0
0FFFFFFFC0
07FFFFFFC0
07FFFFFFC0
03FFFFFFC0
ENDCHAR
STARTCHAR 0136
ENCODING 310
SWIDTH 565 0
DWIDTH 44 0
BBX 39 67 3 -13
BITMAP
FFF0003FFE
FFF0007FFE
FFF0007FFE
FFF000FFFE
FFF001FFFE
FFF001FFFE
FFF003FFFC
FFF007FFF8
FFF007FFF8
FFF00FFFF0
FFF01FFFE0
FFF01FFFC0
FFF03FFFC0
FFF07FFF80
FFF0FFFF00
FFF0FFFE00
FFF1FFFE00
FFF3FFFC00
FFF3FFF800
FFF7FFF800
FFFFFFF000
FFFFFFE000
FFFFFFC000
FFFFFFC000
FFFFFF8000
FFFFFF0000
FFFFFE0000
FFFFFE0000
FFFFFF0000
FFFFFF8000
FFFFFFC000
FFFFFFC000
FFFFFFE000
FFF7FFF000
FFF7FFF800
FFF3FFF800
FFF1FFFC00
FFF0FFFE00
FFF0FFFF00
FFF07FFF00
FFF03FFF80
FFF03FFFC0
FFF01FFFE0
FFF00FFFE0
FFF00FFFF0
FFF007FFF8
FFF003FFFC
FFF001FFFC
FFF001FFFE
FFF000FFFE
FFF0007FFE
FFF0007FFE
FFF0003FFE
FFF0001FFE
0000000000
0000000000
00007C0000
00007C0000
00007C0000
00007C0000
00007C0000
00007C0000
0000780000
0000F80000
0001F00000
0003E00000
0003E00000
ENDCHAR
STARTCHAR 0137
ENCODING 311
SWIDTH 565 0
DWIDTH 44 0
BBX 39 67 3 -13
BITMAP
FFF0003FFE
FFF0007FFE
FFF0007FFE
FFF000FFFE
FFF001FFFE
FFF001FFFE
FFF003FFFC
FFF007FFF8
FFF007FFF8
FFF00FFFF0
FFF01FFFE0
FFF01FFFC0
FFF03FFFC0
FFF07FFF80
FFF0FFFF00
FFF0FFFE00
FFF1FFFE00
FFF3FFFC00
FFF3FFF800
FFF7FFF800
FFFFFFF000
FFFFFFE000
FFFFFFC000
FFFFFFC000
FFFFFF8000
FFFFFF0000
FFFFFE0000
FFFFFE0000
FFFFFF0000
FFFFFF8000
FFFFFFC000
FFFFFFC000
FFFFFFE000
FFF7FFF000
FFF7FFF800
FFF3FFF800
FFF1FFFC00
FFF0FFFE00
FFF0FFFF00
FFF07FFF00
FFF03FFF80
FFF03FFFC0
FFF01FFFE0
FFF00FFFE0
FFF00FFFF0
FFF007FFF8
FFF003FFFC
FFF001FFFC
FFF001FFFE
FFF000FFFE
FFF0007FFE
FFF0007FFE
FFF0003FFE
FFF0001FFE
0000000000
0000000000
00007C0000
00007C0000
00007C0000
00007C0000
00007C0000
00007C0000
0000780000
0000F80000
0001F00000
0003E00000
0003E00000
ENDCHAR
STARTCHAR 0139
ENCODING 313
SWIDTH 411 0
DWIDTH 32 0
BBX 36 66 -4 0
BITMAP
0000003000
0007FFF000
0FFFFFF000
7FFFFFF000
FFFFFF8000
FFFFF00000
FFFE000000
FFE0000000
FC00000000
0000000000
0000000000
0000000000
01FFE00000
01FFE00000
01FFE00000
01FFE00000
01FFE00000
01FFE00000
01FFE00000
01FFE00000
01FFE00000
01FFE00000
01FFE00000
01FFE00000
01FFE00000
01FFE00000
01FFE00000
01FFE00000
01FFE00000
01FFE00000
01FFE00000
01FFE00000
01FFE00000
01FFE00000
01FFE00000
01FFE00000
01FFE00000
01FFE00000
01FFE00000
01FFE00000
01FFE00000
01FFE00000
01FFE00000
01FFE00000
01FFE00000
01FFE00000
01FFE00000
01FFE00000
01FFE00000
01FFE00000
01FFE00000
01FFE00000
01FFF00000
01FFF80000
01FFFFFFF0
01FFFFFFF0
01FFFFFFF0
01FFFFFFF0
01FFFFFFE0
01FFFFFFE0
01FFFFFFC0
01FFFFFF80
01FFFFFF80
01FFFFFF00
01FFFFFE00
01FFFFFC00
ENDCHAR
STARTCHAR 013A
ENCODING 314
SWIDTH 411 0
DWIDTH 32 0
BBX 36 66 -4 0
BITMAP
0000003000
0007FFF000
0FFFFFF000
7FFFFFF000
FFFFFF8000
FFFFF00000
FFFE000000
FFE0000000
FC00000000
0000000000
0000000000
0000000000
01FFE00000
01FFE00000
01FFE00000
01FFE00000
01FFE00000
01FFE00000
01FFE00000
01FFE00000
01FFE00000
01FFE00000
01FFE00000
01FFE00000
01FFE00000
01FFE00000
01FFE00000
01FFE00000
01FFE00000
01FFE00000
01FFE00000
01FFE00000
01FFE00000
01FFE00000
01FFE00000
01FFE00000
01FFE00000
01FFE00000
01FFE00000
01FFE00000
01FFE00000
01FFE00000
01FFE00000
01FFE00000
01FFE00000
01FFE00000
01FFE00000
01FFE00000
01FFE00000
01FFE00000
01FFE00000
01FFE00000
01FFF00000
01FFF80000
01FFFFFFF0
01FFFFFFF0
01FFFFFFF0
01FFFFFFF0
01FFFFFFE0
01FFFFFFE0
01FFFFFFC0
01FFFFFF80
01FFFFFF80
01FFFFFF00
01FFFFFE00
01FFFFFC00
ENDCHAR
STARTCHAR 013C
ENCODING 316
SWIDTH 411 0
DWIDTH 32 0
BBX 29 67 3 -13
BITMAP
FFF00000
FFF00000
FFF00000
FFF00000
FFF00000
FFF00000
FFF00000
FFF00000
FFF00000
FFF00000
FFF00000
FFF00000
FFF00000
FFF00000
FFF00000
FFF00000
FFF00000
FFF00000
FFF00000
FFF00000
FFF00000
FFF00000
FFF00000
FFF00000
FFF00000
FFF00000
FFF00000
FFF00000
FFF00000
FFF00000
FFF00000
FFF00000
FFF00000
FFF00000
FFF00000
FFF00000
FFF00000
FFF00000
FFF00000
FFF00000
FFF80000
FFFC0000
FFFFFFF8
FFFFFFF8
FFFFFFF8
FFFFFFF8
FFFFFFF0
FFFFFFF0
FFFFFFE0
FFFFFFC0
FFFFFFC0
FFFFFF80
FFFFFF00
FFFFFE00
00000000
00000000
000F8000
000F8000
000F8000
000F8000
000F8000
000F8000
000F0000
001F0000
003E0000
007C0000
007C0000
ENDCHAR
STARTCHAR 013D
ENCODING 317
SWIDTH 411 0
DWIDTH 32 0
BBX 33 68 -1 0
BITMAP
E000380000
F000780000
F800F80000
FC01F80000
FE03F80000
FF07F00000
7FFFE00000
3FFFC00000
1FFF800000
0FFF000000
03FE000000
0000000000
0000000000
0000000000
0FFF000000
0FFF000000
0FFF000000
0FFF000000
0FFF000000
0FFF000000
0FFF000000
0FFF000000
0FFF000000
0FFF000000
0FFF000000
0FFF000000
0FFF000000
0FFF000000
0FFF000000
0FFF000000
0FFF000000
0FFF000000
0FFF000000
0FFF000000
0FFF000000
0FFF000000
0FFF000000
0FFF000000
0FFF000000
0FFF000000
0FFF000000
0FFF000000
0FFF000000
0FFF000000
0FFF000000
0FFF000000
0FFF000000
0FFF000000
0FFF000000
0FFF000000
0FFF000000
0FFF000000
0FFF000000
0FFF000000
0FFF800000
0FFFC00000
0FFFFFFF80
0FFFFFFF80
0FFFFFFF80
0FFFFFFF80
0FFFFFFF00
0FFFFFFF00
0FFFFFFE00
0FFFFFFC00
0FFFFFFC00
0FFFFFF800
0FFFFFF000
0FFFFFE000
ENDCHAR
STARTCHAR 013E
ENCODING 318
SWIDTH 411 0
DWIDTH 32 0
BBX 33 68 -1 0
BITMAP
E000380000
F000780000
F800F80000
FC01F80000
FE03F80000
FF07F00000
7FFFE00000
3FFFC00000
1FFF800000
0FFF000000
03FE000000
0000000000
0000000000
0000000000
0FFF000000
0FFF000000
0FFF000000
0FFF000000
0FFF000000
0FFF000000
0FFF000000
0FFF000000
0FFF000000
0FFF000000
0FFF000000
0FFF000000
0FFF000000
0FFF000000
0FFF000000
0FFF000000
0FFF000000
0FFF000000
0FFF000000
0FFF000000
0FFF000000
0FFF000000
0FFF000000
0FFF000000
0FFF000000
0FFF000000
0FFF000000
0FFF000000
0FFF000000
0FFF000000
0FFF000000
0FFF000000
0FFF000000
0FFF000000
0FFF000000
0FFF000000
0FFF000000
0FFF000000
0FFF000000
0FFF000000
0FFF800000
0FFFC00000
0FFFFFFF80
0FFFFFFF80
0FFFFFFF80
0FFFFFFF80
0FFFFFFF00
0FFFFFFF00
0FFFFFFE00
0FFFFFFC00
0FFFFFFC00
0FFFFFF800
0FFFFFF000
0FFFFFE000
ENDCHAR
STARTCHAR 0141
ENCODING 321
SWIDTH 501 0
DWIDTH 39 0
BBX 36 54 3 0
BITMAP
01FFE00000
01FFE00000
01FFE00000
01FFE00000
01FFE00000
01FFE00000
01FFE00000
01FFE00000
01FFE00000
01FFE00000
01FFE00000
01FFE00000
01FFE03800
01FFE0F800
01FFE3F800
01FFE7F800
01FFFFF800
01FFFFF800
01FFFFF800
01FFFFF800
01FFFFF000
01FFFFC000
01FFFF0000
01FFFC0000
07FFF80000
1FFFE00000
3FFFE00000
FFFFE00000
FFFFE00000
FFFFE00000
FFFFE00000
FFFFE00000
FFFFE00000
F9FFE00000
E1FFE00000
01FFE00000
01FFE00000
01FFE00000
01FFE00000
01FFE00000
01FFF00000
01FFF80000
01FFFFFFF0
01FFFFFFF0
01FFFFFFF0
01FFFFFFF0
01FFFFFFF0
01FFFFFFE0
01FFFFFFC0
01FFFFFF80
01FFFFFF80
01FFFFFF00
01FFFFFE00
01FFFFFE00
ENDCHAR
STARTCHAR 0142
ENCODING 322
SWIDTH 501 0
DWIDTH 39 0
BBX 36 54 3 0
BITMAP
01FFE00000
01FFE00000
01FFE00000
01FFE00000
01FFE00000
01FFE00000
01FFE00000
01FFE00000
01FFE00000
01FFE00000
01FFE00000
01FFE00000
01FFE03800
01FFE0F800
01FFE3F800
01FFE7F800
01FFFFF800
01FFFFF800
01FFFFF800
01FFFFF800
01FFFFF000
01FFFFC000
01FFFF0000
01FFFC0000
07FFF80000
1FFFE00000
3FFFE00000
FFFFE00000
FFFFE00000
FFFFE00000
FFFFE00000
FFFFE00000
FFFFE00000
F9FFE00000
E1FFE00000
01FFE00000
01FFE00000
01FFE00000
01FFE00000
01FFE00000
01FFF00000
01FFF80000
01FFFFFFF0
01FFFFFFF0
01FFFFFFF0
01FFFFFFF0
01FFFFFFF0
01FFFFFFE0
01FFFFFFC0
01FFFFFF80
01FFFFFF80
01FFFFFF00
01FFFFFE00
01FFFFFE00
ENDCHAR
STARTCHAR 0143
ENCODING 323
SWIDTH 565 0
DWIDTH 44 0
BBX 38 66 3 0
BITMAP
0000000180
00003FFF80
007FFFFF80
07FFFFFF80
07FFFFFC00
07FFFF8000
07FFF00000
07FE000000
07C0000000
0000000000
0000000000
0000000000
03F8003FFC
07F8003FFC
0FFC003FFC
1FFC003FFC
1FFC003FFC
3FFE003FFC
7FFE003FFC
7FFF003FFC
FFFF003FFC
FFFF803FFC
FFFF803FFC
FFFFC03FFC
FFFFC03FFC
FFFFC03FFC
FFFFE03FFC
FFFFE03FFC
FFFFF03FFC
FFFFF03FFC
FFFFF83FFC
FFFFF83FFC
FFFFFC3FFC
FFFFFC3FFC
FFFFFC3FFC
FFFFFE3FFC
FFFFFE3FFC
FFFFFF3FFC
FFFFFF3FFC
FFF3FFFFFC
FFF1FFFFFC
FFF1FFFFFC
FFF0FFFFFC
FFF0FFFFFC
FFF07FFFFC
FFF07FFFFC
FFF03FFFFC
FFF03FFFFC
FFF03FFFFC
FFF01FFFFC
FFF01FFFFC
FFF00FFFFC
FFF00FFFFC
FFF007FFFC
FFF007FFFC
FFF003FFFC
FFF003FFFC
FFF001FFFC
FFF001FFFC
FFF001FFF8
FFF000FFF0
FFF000FFE0
FFF0007FE0
FFF0007FC0
FFF0003F80
FFF0003F80
ENDCHAR
STARTCHAR 0144
ENCODING 324
SWIDTH 565 0
DWIDTH 44 0
BBX 38 66 3 0
BITMAP
0000000180
00003FFF80
007FFFFF80
07FFFFFF80
07FFFFFC00
07FFFF8000
07FFF00000
07FE000000
07C0000000
0000000000
0000000000
0000000000
03F8003FFC
07F8003FFC
0FFC003FFC
1FFC003FFC
1FFC003FFC
3FFE003FFC
7FFE003FFC
7FFF003FFC
FFFF003FFC
FFFF803FFC
FFFF803FFC
FFFFC03FFC
FFFFC03FFC
FFFFC03FFC
FFFFE03FFC
FFFFE03FFC
FFFFF03FFC
FFFFF03FFC
FFFFF83FFC
FFFFF83FFC
FFFFFC3FFC
FFFFFC3FFC
FFFFFC3FFC
FFFFFE3FFC
FFFFFE3FFC
FFFFFF3FFC
FFFFFF3FFC
FFF3FFFFFC
FFF1FFFFFC
FFF1FFFFFC
FFF0FFFFFC
FFF0FFFFFC
FFF07FFFFC
FFF07FFFFC
FFF03FFFFC
FFF03FFFFC
FFF03FFFFC
FFF01FFFFC
FFF01FFFFC
FFF00FFFFC
FFF00FFFFC
FFF007FFFC
FFF007FFFC
FFF003FFFC
FFF003FFFC
FFF001FFFC
FFF001FFFC
FFF001FFF8
FFF000FFF0
FFF000FFE0
FFF0007FE0
FFF0007FC0
FFF0003F80
FFF0003F80
ENDCHAR
STARTCHAR 0145
ENCODING 325
SWIDTH 565 0
DWIDTH 44 0
BBX 38 67 3 -13
BITMAP
03F8003FFC
07F8003FFC
0FFC003FFC
1FFC003FFC
1FFC003FFC
3FFE003FFC
7FFE003FFC
7FFF003FFC
FFFF003FFC
FFFF803FFC
FFFF803FFC
FFFFC03FFC
FFFFC03FFC
FFFFC03FFC
FFFFE03FFC
FFFFE03FFC
FFFFF03FFC
FFFFF03FFC
FFFFF83FFC
FFFFF83FFC
FFFFFC3FFC
FFFFFC3FFC
FFFFFC3FFC
FFFFFE3FFC
FFFFFE3FFC
FFFFFF3FFC
FFFFFF3FFC
FFF3FFFFFC
FFF1FFFFFC
FFF1FFFFFC
FFF0FFFFFC
FFF0FFFFFC
FFF07FFFFC
FFF07FFFFC
FFF03FFFFC
FFF03FFFFC
FFF03FFFFC
FFF01FFFFC
FFF01FFFFC
FFF00FFFFC
FFF00FFFFC
FFF007FFFC
FFF007FFFC
FFF003FFFC
FFF003FFFC
FFF001FFFC
FFF001FFFC
FFF001FFF8
FFF000FFF0
FFF000FFE0
FFF0007FE0
FFF0007FC0
FFF0003F80
FFF0003F80
0000000000
0000000000
00003E0000
00003E0000
00003E0000
00003E0000
00003E0000
00003E0000
00003E0000
00007C0000
0000F80000
0000F80000
0001F00000
ENDCHAR
STARTCHAR 0146
ENCODING 326
SWIDTH 565 0
DWIDTH 44 0
BBX 38 67 3 -13
BITMAP
03F8003FFC
07F8003FFC
0FFC003FFC
1FFC003FFC
1FFC003FFC
3FFE003FFC
7FFE003FFC
7FFF003FFC
FFFF003FFC
FFFF803FFC
FFFF803FFC
FFFFC03FFC
FFFFC03FFC
FFFFC03FFC
FFFFE03FFC
FFFFE03FFC
FFFFF03FFC
FFFFF03FFC
FFFFF83FFC
FFFFF83FFC
FFFFFC3FFC
FFFFFC3FFC
FFFFFC3FFC
FFFFFE3FFC
FFFFFE3FFC
FFFFFF3FFC
FFFFFF3FFC
FFF3FFFFFC
FFF1FFFFFC
FFF1FFFFFC
FFF0FFFFFC
FFF0FFFFFC
FFF07FFFFC
FFF07FFFFC
FFF03FFFFC
FFF03FFFFC
FFF03FFFFC
FFF01FFFFC
FFF01FFFFC
FFF00FFFFC
FFF00FFFFC
FFF007FFFC
FFF007FFFC
FFF003FFFC
FFF003FFFC
FFF001FFFC
FFF001FFFC
FFF001FFF8
FFF000FFF0
FFF000FFE0
FFF0007FE0
FFF0007FC0
FFF0003F80
FFF0003F80
0000000000
0000000000
00003E0000
00003E0000
00003E0000
00003E0000
00003E0000
00003E0000
00003E0000
00007C0000
0000F80000
0000F80000
0001F00000
ENDCHAR
STARTCHAR 0147
ENCODING 327
SWIDTH 565 0
DWIDTH 44 0
BBX 38 68 3 0
BITMAP
0070001C00
0078003C00
007C007C00
007E00FC00
007F01FC00
007F83F800
003FFFF000
001FFFE000
000FFFC000
0003FF8000
0001FF0000
0000000000
0000000000
0000000000
03F8003FFC
07F8003FFC
0FFC003FFC
1FFC003FFC
1FFC003FFC
3FFE003FFC
7FFE003FFC
7FFF003FFC
FFFF003FFC
FFFF803FFC
FFFF803FFC
FFFFC03FFC
FFFFC03FFC
FFFFC03FFC
FFFFE03FFC
FFFFE03FFC
FFFFF03FFC
FFFFF03FFC
FFFFF83FFC
FFFFF83FFC
FFFFFC3FFC
FFFFFC3FFC
FFFFFC3FFC
FFFFFE3FFC
FFFFFE3FFC
FFFFFF3FFC
FFFFFF3FFC
FFF3FFFFFC
FFF1FFFFFC
FFF1FFFFFC
FFF0FFFFFC
FFF0FFFFFC
FFF07FFFFC
FFF07FFFFC
FFF03FFFFC
FFF03FFFFC
FFF03FFFFC
FFF01FFFFC
FFF01FFFFC
FFF00FFFFC
FFF00FFFFC
FFF007FFFC
FFF007FFFC
FFF003FFFC
FFF003FFFC
FFF001FFFC
FFF001FFFC
FFF001FFF8
FFF000FFF0
FFF000FFE0
FFF0007FE0
FFF0007FC0
FFF0003F80
FFF0003F80
ENDCHAR
STARTCHAR 0148
ENCODING 328
SWIDTH 565 0
DWIDTH 44 0
BBX 38 68 3 0
BITMAP
0070001C00
0078003C00
007C007C00
007E00FC00
007F01FC00
007F83F800
003FFFF000
001FFFE000
000FFFC000
0007FF8000
0001FF0000
0000000000
0000000000
0000000000
03F8003FFC
07F8003FFC
0FFC003FFC
1FFC003FFC
1FFC003FFC
3FFE003FFC
7FFE003FFC
7FFF003FFC
FFFF003FFC
FFFF803FFC
FFFF803FFC
FFFFC03FFC
FFFFC03FFC
FFFFC03FFC
FFFFE03FFC
FFFFE03FFC
FFFFF03FFC
FFFFF03FFC
FFFFF83FFC
FFFFF83FFC
FFFFFC3FFC
FFFFFC3FFC
FFFFFC3FFC
FFFFFE3FFC
FFFFFE3FFC
FFFFFF3FFC
FFFFFF3FFC
FFF3FFFFFC
FFF1FFFFFC
FFF1FFFFFC
FFF0FFFFFC
FFF0FFFFFC
FFF07FFFFC
FFF07FFFFC
FFF03FFFFC
FFF03FFFFC
FFF03FFFFC
FFF01FFFFC
FFF01FFFFC
FFF00FFFFC
FFF00FFFFC
FFF007FFFC
FFF007FFFC
FFF003FFFC
FFF003FFFC
FFF001FFFC
FFF001FFFC
FFF001FFF8
FFF000FFF0
FFF000FFE0
FFF0007FE0
FFF0007FC0
FFF0003F80
FFF0003F80
ENDCHAR
STARTCHAR 014C
ENCODING 332
SWIDTH 617 0
DWIDTH 48 0
BBX 42 65 3 0
BITMAP
03FFFFFFF000
03FFFFFFF000
03FFFFFFF000
03FFFFFFF000
03FFFFFFF000
03FFFFFFF000
03FFFFFFF000
03FFFFFFF000
000000000000
000000000000
000000000000
03FFFFFFF800
07FFFFFFF800
0FFFFFFFFC00
1FFFFFFFFE00
1FFFFFFFFE00
3FFFFFFFFF00
7FFFFFFFFF80
7FFFFFFFFFC0
FFFFFFFFFFC0
FFFFFFFFFFC0
FFFFFFFFFFC0
FFFFFFFFFFC0
FFF80007FFC0
FFF80007FFC0
FFF00003FFC0
FFF00003FFC0
FFF00003FFC0
FFF00003FFC0
FFF00003FFC0
FFF00003FFC0
FFF00003FFC0
FFF00003FFC0
FFF00003FFC0
FFF00003FFC0
FFF00003FFC0
FFF00003FFC0
FFF00003FFC0
FFF00003FFC0
FFF00003FFC0
FFF00003FFC0
FFF00003FFC0
FFF00003FFC0
FFF00003FFC0
FFF00003FFC0
FFF00003FFC0
FFF00003FFC0
FFF00003FFC0
FFF00003FFC0
FFF00003FFC0
FFF00003FFC0
FFF80007FFC0
FFFC000FFFC0
FFFFFFFFFFC0
FFFFFFFFFFC0
FFFFFFFFFFC0
FFFFFFFFFFC0
7FFFFFFFFF80
3FFFFFFFFF80
3FFFFFFFFF00
1FFFFFFFFE00
0FFFFFFFFC00
07FFFFFFFC00
07FFFFFFF800
03FFFFFFF000
ENDCHAR
STARTCHAR 014D
ENCODING 333
SWIDTH 617 0
DWIDTH 48 0
BBX 42 65 3 0
BITMAP
03FFFFFFF000
03FFFFFFF000
03FFFFFFF000
03FFFFFFF000
03FFFFFFF000
03FFFFFFF000
03FFFFFFF000
03FFFFFFF000
000000000000
000000000000
000000000000
03FFFFFFF800
07FFFFFFF800
0FFFFFFFFC00
1FFFFFFFFE00
1FFFFFFFFE00
3FFFFFFFFF00
7FFFFFFFFF80
7FFFFFFFFFC0
FFFFFFFFFFC0
FFFFFFFFFFC0
FFFFFFFFFFC0
FFFFFFFFFFC0
FFF80007FFC0
FFF80007FFC0
FFF00003FFC0
FFF00003FFC0
FFF00003FFC0
FFF00003FFC0
FFF00003FFC0
FFF00003FFC0
FFF00003FFC0
FFF00003FFC0
FFF00003FFC0
FFF00003FFC0
FFF00003FFC0
FFF00003FFC0
FFF00003FFC0
FFF00003FFC0
FFF00003FFC0
FFF00003FFC0
FFF00003FFC0
FFF00003FFC0
FFF00003FFC0
FFF00003FFC0
FFF00003FFC0
FFF00003FFC0
FFF00003FFC0
FFF00003FFC0
FFF00003FFC0
FFF00003FFC0
FFF80007FFC0
FFFC000FFFC0
FFFFFFFFFFC0
FFFFFFFFFFC0
FFFFFFFFFFC0
FFFFFFFFFFC0
7FFFFFFFFF80
3FFFFFFFFF80
3FFFFFFFFF00
1FFFFFFFFE00
0FFFFFFFFC00
07FFFFFFFC00
07FFFFFFF800
03FFFFFFF000
ENDCHAR
STARTCHAR 0150
ENCODING 336
SWIDTH 617 0
DWIDTH 48 0
BBX 42 70 3 0
BITMAP
00003E3E0000
00003E3E0000
00003E3E0000
00003E3E0000
00003E3E0000
00007E7E0000
00007C7C0000
0000FCFC0000
0000F8F80000
0001F9F80000
0001F1F00000
0003F3F00000
0003E3E00000
000000000000
000000000000
000000000000
03FFFFFFF800
07FFFFFFF800
0FFFFFFFFC00
1FFFFFFFFE00
1FFFFFFFFE00
3FFFFFFFFF00
7FFFFFFFFF80
7FFFFFFFFFC0
FFFFFFFFFFC0
FFFFFFFFFFC0
FFFFFFFFFFC0
FFFFFFFFFFC0
FFF80007FFC0
FFF80007FFC0
FFF00003FFC0
FFF00003FFC0
FFF00003FFC0
FFF00003FFC0
FFF00003FFC0
FFF00003FFC0
FFF00003FFC0
FFF00003FFC0
FFF00003FFC0
FFF00003FFC0
FFF00003FFC0
FFF00003FFC0
FFF00003FFC0
FFF00003FFC0
FFF00003FFC0
FFF00003FFC0
FFF00003FFC0
FFF00003FFC0
FFF00003FFC0
FFF00003FFC0
FFF00003FFC0
FFF00003FFC0
FFF00003FFC0
FFF00003FFC0
FFF00003FFC0
FFF00003FFC0
FFF80007FFC0
FFFC000FFFC0
FFFFFFFFFFC0
FFFFFFFFFFC0
FFFFFFFFFFC0
FFFFFFFFFFC0
7FFFFFFFFF80
3FFFFFFFFF80
3FFFFFFFFF00
1FFFFFFFFE00
0FFFFFFFFC00
07FFFFFFFC00
07FFFFFFF800
03FFFFFFF000
ENDCHAR
STARTCHAR 0151
ENCODING 337
SWIDTH 617 0
DWIDTH 48 0
BBX 42 70 3 0
BITMAP
00003E3E0000
00003E3E0000
00003E3E0000
00003E3E0000
00003E3E0000
00007E7E0000
00007C7C0000
0000FCFC0000
0000F8F80000
0001F9F80000
0001F1F00000
0003F3F00000
0003E3E00000
000000000000
000000000000
000000000000
03FFFFFFF800
07FFFFFFF800
0FFFFFFFFC00
1FFFFFFFFE00
1FFFFFFFFE00
3FFFFFFFFF00
7FFFFFFFFF80
7FFFFFFFFFC0
FFFFFFFFFFC0
FFFFFFFFFFC0
FFFFFFFFFFC0
FFFFFFFFFFC0
FFF80007FFC0
FFF80007FFC0
FFF00003FFC0
FFF00003FFC0
FFF00003FFC0
FFF00003FFC0
FFF00003FFC0
FFF00003FFC0
FFF00003FFC0
FFF00003FFC0
FFF00003FFC0
FFF00003FFC0
FFF00003FFC0
FFF00003FFC0
FFF00003FFC0
FFF00003FFC0
FFF00003FFC0
FFF00003FFC0
FFF00003FFC0
FFF00003FFC0
FFF00003FFC0
FFF00003FFC0
FFF00003FFC0
FFF00003FFC0
FFF00003FFC0
FFF00003FFC0
FFF00003FFC0
FFF00003FFC0
FFF80007FFC0
FFFC000FFFC0
FFFFFFFFFFC0
FFFFFFFFFFC0
FFFFFFFFFFC0
FFFFFFFFFFC0
7FFFFFFFFF80
3FFFFFFFFF80
3FFFFFFFFF00
1FFFFFFFFE00
0FFFFFFFFC00
07FFFFFFFC00
07FFFFFFF800
03FFFFFFF000
ENDCHAR
STARTCHAR 0152
ENCODING 338
SWIDTH 848 0
DWIDTH 66 0
BBX 61 54 3 0
BITMAP
03FFFFFFFFFFFE00
07FFFFFFFFFFFF00
0FFFFFFFFFFFFF80
1FFFFFFFFFFFFF80
1FFFFFFFFFFFFFC0
3FFFFFFFFFFFFFE0
7FFFFFFFFFFFFFF0
7FFFFFFFFFFFFFF0
FFFFFFFFFFFFFFF8
FFFFFFFFFFFFFFF8
FFFFFFFFFFFFFFF8
FFFFFFFFFFFFFFF8
FFF8007FF8003FF8
FFF8007FF8001FF8
FFF0007FF8000000
FFF0007FF8000000
FFF0007FF8000000
FFF0007FF8000000
FFF0007FF8000000
FFF0007FF8000000
FFF0007FF8000000
FFF0007FF8000000
FFF0007FFFFFE000
FFF0007FFFFFE000
FFF0007FFFFFE000
FFF0007FFFFFE000
FFF0007FFFFFE000
FFF0007FFFFFE000
FFF0007FFFFFE000
FFF0007FFFFFE000
FFF0007FFFFFE000
FFF0007FF8000000
FFF0007FF8000000
FFF0007FF8000000
FFF0007FF8000000
FFF0007FF8000000
FFF0007FF8000000
FFF0007FF8000000
FFF0007FF8000000
FFF0007FF8001FF8
FFF8007FF8003FF8
FFFC007FF8003FF8
FFFFFFFFFFFFFFF8
FFFFFFFFFFFFFFF8
FFFFFFFFFFFFFFF8
FFFFFFFFFFFFFFF8
7FFFFFFFFFFFFFF0
3FFFFFFFFFFFFFE0
3FFFFFFFFFFFFFC0
1FFFFFFFFFFFFFC0
0FFFFFFFFFFFFF80
07FFFFFFFFFFFF00
07FFFFFFFFFFFF00
03FFFFFFFFFFFE00
ENDCHAR
STARTCHAR 0153
ENCODING 339
SWIDTH 848 0
DWIDTH 66 0
BBX 61 54 3 0
BITMAP
03FFFFFFFFFFFE00
07FFFFFFFFFFFF00
0FFFFFFFFFFFFF80
1FFFFFFFFFFFFF80
1FFFFFFFFFFFFFC0
3FFFFFFFFFFFFFE0
7FFFFFFFFFFFFFF0
7FFFFFFFFFFFFFF0
FFFFFFFFFFFFFFF8
FFFFFFFFFFFFFFF8
FFFFFFFFFFFFFFF8
FFFFFFFFFFFFFFF8
FFF8007FF8003FF8
FFF8007FF8001FF8
FFF0007FF8000000
FFF0007FF8000000
FFF0007FF8000000
FFF0007FF8000000
FFF0007FF8000000
FFF0007FF8000000
FFF0007FF8000000
FFF0007FF8000000
FFF0007FFFFFE000
FFF0007FFFFFE000
FFF0007FFFFFE000
FFF0007FFFFFE000
FFF0007FFFFFE000
FFF0007FFFFFE000
FFF0007FFFFFE000
FFF0007FFFFFE000
FFF0007FFFFFE000
FFF0007FF8000000
FFF0007FF8000000
FFF0007FF8000000
FFF0007FF8000000
FFF0007FF8000000
FFF0007FF8000000
FFF0007FF8000000
FFF0007FF8000000
FFF0007FF8001FF8
FFF8007FF8003FF8
FFFC007FF8003FF8
FFFFFFFFFFFFFFF8
FFFFFFFFFFFFFFF8
FFFFFFFFFFFFFFF8
FFFFFFFFFFFFFFF8
7FFFFFFFFFFFFFF0
3FFFFFFFFFFFFFE0
3FFFFFFFFFFFFFC0
1FFFFFFFFFFFFFC0
0FFFFFFFFFFFFF80
07FFFFFFFFFFFF00
07FFFFFFFFFFFF00
03FFFFFFFFFFFE00
ENDCHAR
STARTCHAR 0154
ENCODING 340
SWIDTH 540 0
DWIDTH 42 0
BBX 38 66 3 0
BITMAP
0000000300
0000FFFF00
01FFFFFF00
0FFFFFFF00
0FFFFFF800
0FFFFF0000
0FFFE00000
0FFC000000
0F80000000
0000000000
0000000000
0000000000
FFFFFFFC00
FFFFFFFE00
FFFFFFFF00
FFFFFFFF80
FFFFFFFF80
FFFFFFFFC0
FFFFFFFFE0
FFFFFFFFE0
FFFFFFFFF0
FFFFFFFFF0
FFFFFFFFF0
FFFFFFFFF0
FFF001FFF0
FFF001FFF0
FFF000FFF0
FFF000FFF0
FFF000FFF0
FFF000FFF0
FFF000FFF0
FFF001FFF0
FFF001FFF0
FFFFFFFFF0
FFFFFFFFE0
FFFFFFFFE0
FFFFFFFFC0
FFFFFFFF80
FFFFFFFF00
FFFFFFFF00
FFFFFFFE00
FFFFFFFC00
FFFFFFFC00
FFFFFFFC00
FFFFFFFE00
FFF03FFE00
FFF01FFF00
FFF01FFF00
FFF01FFF80
FFF00FFF80
FFF00FFF80
FFF00FFFC0
FFF007FFC0
FFF007FFE0
FFF007FFE0
FFF003FFF0
FFF003FFF0
FFF003FFF0
FFF001FFF8
FFF001FFF8
FFF000FFFC
FFF000FFFC
FFF000FFFC
FFF0007FFC
FFF0007FFC
FFF0007FFC
ENDCHAR
STARTCHAR 0155
ENCODING 341
SWIDTH 540 0
DWIDTH 42 0
BBX 38 66 3 0
BITMAP
0000000300
0000FFFF00
01FFFFFF00
0FFFFFFF00
0FFFFFF800
0FFFFF0000
0FFFE00000
0FFC000000
0F80000000
0000000000
0000000000
0000000000
FFFFFFFC00
FFFFFFFE00
FFFFFFFF00
FFFFFFFF80
FFFFFFFF80
FFFFFFFFC0
FFFFFFFFE0
FFFFFFFFE0
FFFFFFFFF0
FFFFFFFFF0
FFFFFFFFF0
FFFFFFFFF0
FFF001FFF0
FFF001FFF0
FFF000FFF0
FFF000FFF0
FFF000FFF0
FFF000FFF0
FFF000FFF0
FFF001FFF0
FFF001FFF0
FFFFFFFFF0
FFFFFFFFE0
FFFFFFFFE0
FFFFFFFFC0
FFFFFFFF80
FFFFFFFF00
FFFFFFFF00
FFFFFFFE00
FFFFFFFC00
FFFFFFFC00
FFFFFFFC00
FFFFFFFE00
FFF03FFE00
FFF01FFF00
FFF01FFF00
FFF01FFF80
FFF00FFF80
FFF00FFF80
FFF00FFFC0
FFF007FFC0
FFF007FFE0
FFF007FFE0
FFF003FFF0
FFF003FFF0
FFF003FFF0
FFF001FFF8
FFF001FFF8
FFF000FFFC
FFF000FFFC
FFF000FFFC
FFF0007FFC
FFF0007FFC
FFF0007FFC
ENDCHAR
STARTCHAR 0156
ENCODING 342
SWIDTH 540 0
DWIDTH 42 0
BBX 38 67 3 -13
BITMAP
FFFFFFFC00
FFFFFFFE00
FFFFFFFF00
FFFFFFFF80
FFFFFFFF80
FFFFFFFFC0
FFFFFFFFE0
FFFFFFFFE0
FFFFFFFFF0
FFFFFFFFF0
FFFFFFFFF0
FFFFFFFFF0
FFF001FFF0
FFF001FFF0
FFF000FFF0
FFF000FFF0
FFF000FFF0
FFF000FFF0
FFF000FFF0
FFF001FFF0
FFF001FFF0
FFFFFFFFF0
FFFFFFFFE0
FFFFFFFFE0
FFFFFFFFC0
FFFFFFFF80
FFFFFFFF00
FFFFFFFF00
FFFFFFFE00
FFFFFFFC00
FFFFFFFC00
FFFFFFFC00
FFFFFFFE00
FFF03FFE00
FFF01FFF00
FFF01FFF00
FFF01FFF80
FFF00FFF80
FFF00FFF80
FFF00FFFC0
FFF007FFC0
FFF007FFE0
FFF007FFE0
FFF003FFF0
FFF003FFF0
FFF003FFF0
FFF001FFF8
FFF001FFF8
FFF000FFFC
FFF000FFFC
FFF000FFFC
FFF0007FFC
FFF0007FFC
FFF0007FFC
0000000000
0000000000
00007C0000
00007C0000
00007C0000
00007C0000
00007C0000
00007C0000
0000F80000
0000F80000
0001F00000
0003E00000
0003E00000
ENDCHAR
STARTCHAR 0157
ENCODING 343
SWIDTH 540 0
DWIDTH 42 0
BBX 38 67 3 -13
BITMAP
FFFFFFFC00
FFFFFFFE00
FFFFFFFF00
FFFFFFFF80
FFFFFFFF80
FFFFFFFFC0
FFFFFFFFE0
FFFFFFFFE0
FFFFFFFFF0
FFFFFFFFF0
FFFFFFFFF0
FFFFFFFFF0
FFF001FFF0
FFF001FFF0
FFF000FFF0
FFF000FFF0
FFF000FFF0
FFF000FFF0
FFF000FFF0
FFF001FFF0
FFF001FFF0
FFFFFFFFF0
FFFFFFFFE0
FFFFFFFFE0
FFFFFFFFC0
FFFFFFFF80
FFFFFFFF00
FFFFFFFF00
FFFFFFFE00
FFFFFFFC00
FFFFFFFC00
FFFFFFFC00
FFFFFFFE00
FFF03FFE00
FFF01FFF00
FFF01FFF00
FFF01FFF80
FFF00FFF80
FFF00FFF80
FFF00FFFC0
FFF007FFC0
FFF007FFE0
FFF007FFE0
FFF003FFF0
FFF003FFF0
FFF003FFF0
FFF001FFF8
FFF001FFF8
FFF000FFFC
FFF000FFFC
FFF000FFFC
FFF0007FFC
FFF0007FFC
FFF0007FFC
0000000000
0000000000
00007C0000
00007C0000
00007C0000
00007C0000
00007C0000
00007C0000
0000F80000
0000F80000
0001F00000
0003E00000
0003E00000
ENDCHAR
STARTCHAR 0158
ENCODING 344
SWIDTH 540 0
DWIDTH 42 0
BBX 38 68 3 0
BITMAP
038000E000
03C001E000
03E003E000
03F007E000
03F80FE000
01FC1FE000
00FFFFC000
007FFF8000
003FFF0000
001FFC0000
000FF80000
0000000000
0000000000
0000000000
FFFFFFFC00
FFFFFFFE00
FFFFFFFF00
FFFFFFFF80
FFFFFFFF80
FFFFFFFFC0
FFFFFFFFE0
FFFFFFFFE0
FFFFFFFFF0
FFFFFFFFF0
FFFFFFFFF0
FFFFFFFFF0
FFF001FFF0
FFF001FFF0
FFF000FFF0
FFF000FFF0
FFF000FFF0
FFF000FFF0
FFF000FFF0
FFF001FFF0
FFF001FFF0
FFFFFFFFF0
FFFFFFFFE0
FFFFFFFFE0
FFFFFFFFC0
FFFFFFFF80
FFFFFFFF00
FFFFFFFF00
FFFFFFFE00
FFFFFFFC00
FFFFFFFC00
FFFFFFFC00
FFFFFFFE00
FFF03FFE00
FFF01FFF00
FFF01FFF00
FFF01FFF80
FFF00FFF80
FFF00FFF80
FFF00FFFC0
FFF007FFC0
FFF007FFE0
FFF007FFE0
FFF003FFF0
FFF003FFF0
FFF003FFF0
FFF001FFF8
FFF001FFF8
FFF000FFFC
FFF000FFFC
FFF000FFFC
FFF0007FFC
FFF0007FFC
FFF0007FFC
ENDCHAR
STARTCHAR 0159
ENCODING 345
SWIDTH 540 0
DWIDTH 42 0
BBX 38 68 3 0
BITMAP
038000E000
03C001E000
03E003E000
03F007E000
03F80FE000
01FC1FE000
00FFFFC000
007FFF8000
003FFF0000
001FFC0000
000FF80000
0000000000
0000000000
0000000000
FFFFFFFC00
FFFFFFFE00
FFFFFFFF00
FFFFFFFF80
FFFFFFFF80
FFFFFFFFC0
FFFFFFFFE0
FFFFFFFFE0
FFFFFFFFF0
FFFFFFFFF0
FFFFFFFFF0
FFFFFFFFF0
FFF001FFF0
FFF001FFF0
FFF000FFF0
FFF000FFF0
FFF000FFF0
FFF000FFF0
FFF000FFF0
FFF001FFF0
FFF001FFF0
FFFFFFFFF0
FFFFFFFFE0
FFFFFFFFE0
FFFFFFFFC0
FFFFFFFF80
FFFFFFFF00
FFFFFFFF00
FFFFFFFE00
FFFFFFFC00
FFFFFFFC00
FFFFFFFC00
FFFFFFFE00
FFF03FFE00
FFF01FFF00
FFF01FFF00
FFF01FFF80
FFF00FFF80
FFF00FFF80
FFF00FFFC0
FFF007FFC0
FFF007FFE0
FFF007FFE0
FFF003FFF0
FFF003FFF0
FFF003FFF0
FFF001FFF8
FFF001FFF8
FFF000FFFC
FFF000FFFC
FFF000FFFC
FFF0007FFC
FFF0007FFC
FFF0007FFC
ENDCHAR
STARTCHAR 015C
ENCODING 348
SWIDTH 540 0
DWIDTH 42 0
BBX 36 67 3 0
BITMAP
03FFFFC000
07FFFFF000
0FFFFFF800
1FFFFFFC00
7FFFFFFE00
FFFFFFFF00
FFC001FF00
FF0000FF00
FE00007F00
FC00003F00
0000000000
0000000000
0000000000
7FFFFFFE00
7FFFFFFE00
FFFFFFFF00
FFFFFFFF80
FFFFFFFF80
FFFFFFFFC0
FFFFFFFFE0
FFFFFFFFF0
FFFFFFFFF0
FFFFFFFFF0
FFFFFFFFF0
FFFFFFFFF0
FFF0007FF0
FFF8003FF0
FFFC000000
FFFE000000
FFFF000000
7FFF800000
3FFFC00000
1FFFE00000
0FFFF00000
07FFF80000
03FFFC0000
01FFFE0000
00FFFF0000
007FFF8000
003FFFC000
001FFFE000
000FFFF000
0007FFF800
0003FFFC00
0001FFFE00
0000FFFF00
00007FFF80
00003FFFC0
00001FFFE0
00000FFFF0
00000FFFF0
000007FFF0
FFC003FFF0
FFE001FFF0
FFF000FFF0
FFFFFFFFF0
FFFFFFFFF0
FFFFFFFFF0
FFFFFFFFF0
7FFFFFFFF0
3FFFFFFFF0
3FFFFFFFF0
1FFFFFFFF0
0FFFFFFFF0
07FFFFFFF0
07FFFFFFE0
03FFFFFFC0
ENDCHAR
STARTCHAR 015D
ENCODING 349
SWIDTH 540 0
DWIDTH 42 0
BBX 36 67 3 0
BITMAP
03FFFFC000
07FFFFF000
0FFFFFF800
1FFFFFFC00
7FFFFFFE00
FFFFFFFF00
FFC001FF00
FF0000FF00
FE00007F00
FC00003F00
0000000000
0000000000
0000000000
7FFFFFFE00
7FFFFFFE00
FFFFFFFF00
FFFFFFFF80
FFFFFFFF80
FFFFFFFFC0
FFFFFFFFE0
FFFFFFFFF0
FFFFFFFFF0
FFFFFFFFF0
FFFFFFFFF0
FFFFFFFFF0
FFF0007FF0
FFF8003FF0
FFFC000000
FFFE000000
FFFF000000
7FFF800000
3FFFC00000
1FFFE00000
0FFFF00000
07FFF80000
03FFFC0000
01FFFE0000
00FFFF0000
007FFF8000
003FFFC000
001FFFE000
000FFFF000
0007FFF800
0003FFFC00
0001FFFE00
0000FFFF00
00007FFF80
00003FFFC0
00001FFFE0
00000FFFF0
00000FFFF0
000007FFF0
FFC003FFF0
FFE001FFF0
FFF000FFF0
FFFFFFFFF0
FFFFFFFFF0
FFFFFFFFF0
FFFFFFFFF0
7FFFFFFFF0
3FFFFFFFF0
3FFFFFFFF0
1FFFFFFFF0
0FFFFFFFF0
07FFFFFFF0
07FFFFFFE0
03FFFFFFC0
ENDCHAR
STARTCHAR 015E
ENCODING 350
SWIDTH 540 0
DWIDTH 42 0
BBX 36 65 3 -11
BITMAP
7FFFFFFE00
7FFFFFFE00
FFFFFFFF00
FFFFFFFF80
FFFFFFFF80
FFFFFFFFC0
FFFFFFFFE0
FFFFFFFFF0
FFFFFFFFF0
FFFFFFFFF0
FFFFFFFFF0
FFFFFFFFF0
FFF0007FF0
FFF8003FF0
FFFC000000
FFFE000000
FFFF000000
7FFF800000
3FFFC00000
1FFFE00000
0FFFF00000
07FFF80000
03FFFC0000
01FFFE0000
00FFFF0000
007FFF8000
003FFFC000
001FFFE000
000FFFF000
0007FFF800
0003FFFC00
0001FFFE00
0000FFFF00
00007FFF80
00003FFFC0
00001FFFE0
00000FFFF0
00000FFFF0
000007FFF0
FFC003FFF0
FFE001FFF0
FFF000FFF0
FFFFFFFFF0
FFFFFFFFF0
FFFFFFFFF0
FFFFFFFFF0
7FFFFFFFF0
3FFFFFFFF0
3FFFFFFFF0
1FFFFFFFF0
0FFFFFFFF0
07FFFFFFF0
07FFFFFFE0
03FFFFFFC0
00000F0000
00001F0000
00003E0000
0000FE0000
0000FE0000
0000FE0000
00003E0000
00003E0000
0007FE0000
000FFC0000
000FF80000
ENDCHAR
STARTCHAR 015F
ENCODING 351
SWIDTH 540 0
DWIDTH 42 0
BBX 36 65 3 -11
BITMAP
7FFFFFFE00
7FFFFFFE00
FFFFFFFF00
FFFFFFFF80
FFFFFFFF80
FFFFFFFFC0
FFFFFFFFE0
FFFFFFFFF0
FFFFFFFFF0
FFFFFFFFF0
FFFFFFFFF0
FFFFFFFFF0
FFF0007FF0
FFF8003FF0
FFFC000000
FFFE000000
FFFF000000
7FFF800000
3FFFC00000
1FFFE00000
0FFFF00000
07FFF80000
03FFFC0000
01FFFE0000
00FFFF0000
007FFF8000
003FFFC000
001FFFE000
000FFFF000
0007FFF800
0003FFFC00
0001FFFE00
0000FFFF00
00007FFF80
00003FFFC0
00001FFFE0
00000FFFF0
00000FFFF0
000007FFF0
FFC003FFF0
FFE001FFF0
FFF000FFF0
FFFFFFFFF0
FFFFFFFFF0
FFFFFFFFF0
FFFFFFFFF0
7FFFFFFFF0
3FFFFFFFF0
3FFFFFFFF0
1FFFFFFFF0
0FFFFFFFF0
07FFFFFFF0
07FFFFFFE0
03FFFFFFC0
00000F0000
00001F0000
00003E0000
0000FE0000
0000FE0000
0000FE0000
00003E0000
00003E0000
0007FE0000
000FFC0000
000FF80000
ENDCHAR
STARTCHAR 0160
ENCODING 352
SWIDTH 540 0
DWIDTH 42 0
BBX 36 68 3 0
BITMAP
01C0007000
01E000F000
01F001F000
01F803F000
01FC07F000
01FE0FE000
00FFFFC000
007FFF8000
001FFF0000
000FFE0000
0007FC0000
0000000000
0000000000
0000000000
7FFFFFFE00
7FFFFFFE00
FFFFFFFF00
FFFFFFFF80
FFFFFFFF80
FFFFFFFFC0
FFFFFFFFE0
FFFFFFFFF0
FFFFFFFFF0
FFFFFFFFF0
FFFFFFFFF0
FFFFFFFFF0
FFF0007FF0
FFF8003FF0
FFFC000000
FFFE000000
FFFF000000
7FFF800000
3FFFC00000
1FFFE00000
0FFFF00000
07FFF80000
03FFFC0000
01FFFE0000
00FFFF0000
007FFF8000
003FFFC000
001FFFE000
000FFFF000
0007FFF800
0003FFFC00
0001FFFE00
0000FFFF00
00007FFF80
00003FFFC0
00001FFFE0
00000FFFF0
00000FFFF0
000007FFF0
FFC003FFF0
FFE001FFF0
FFF000FFF0
FFFFFFFFF0
FFFFFFFFF0
FFFFFFFFF0
FFFFFFFFF0
7FFFFFFFF0
3FFFFFFFF0
3FFFFFFFF0
1FFFFFFFF0
0FFFFFFFF0
07FFFFFFF0
07FFFFFFE0
03FFFFFFC0
ENDCHAR
STARTCHAR 0161
ENCODING 353
SWIDTH 540 0
DWIDTH 42 0
BBX 36 68 3 0
BITMAP
01C0006000
01E000E000
01F001E000
01F803E000
01FC07E000
01FE0FE000
00FFFFC000
007FFF8000
003FFF0000
001FFE0000
000FFC0000
0000000000
0000000000
0000000000
7FFFFFFE00
7FFFFFFE00
FFFFFFFF00
FFFFFFFF80
FFFFFFFF80
FFFFFFFFC0
FFFFFFFFE0
FFFFFFFFF0
FFFFFFFFF0
FFFFFFFFF0
FFFFFFFFF0
FFFFFFFFF0
FFF0007FF0
FFF8003FF0
FFFC000000
FFFE000000
FFFF000000
7FFF800000
3FFFC00000
1FFFE00000
0FFFF00000
07FFF80000
03FFFC0000
01FFFE0000
00FFFF0000
007FFF8000
003FFFC000
001FFFE000
000FFFF000
0007FFF800
0003FFFC00
0001FFFE00
0000FFFF00
00007FFF80
00003FFFC0
00001FFFE0
00000FFFF0
00000FFFF0
000007FFF0
FFC003FFF0
FFE001FFF0
FFF000FFF0
FFFFFFFFF0
FFFFFFFFF0
FFFFFFFFF0
FFFFFFFFF0
7FFFFFFFF0
3FFFFFFFF0
3FFFFFFFF0
1FFFFFFFF0
0FFFFFFFF0
07FFFFFFF0
07FFFFFFE0
03FFFFFFC0
ENDCHAR
STARTCHAR 0162
ENCODING 354
SWIDTH 527 0
DWIDTH 41 0
BBX 41 65 0 -11
BITMAP
03FFFFFFF000
07FFFFFFF000
0FFFFFFFF800
1FFFFFFFFC00
1FFFFFFFFE00
3FFFFFFFFE00
7FFFFFFFFF00
7FFFFFFFFF80
FFFFFFFFFF80
FFFDFFFFFF80
FFF9FFEFFF80
FFF1FFE3FF80
FFC1FFE1FF80
FF81FFE0FF80
FF01FFE03F80
0001FFE00000
0001FFE00000
0001FFE00000
0001FFE00000
0001FFE00000
0001FFE00000
0001FFE00000
0001FFE00000
0001FFE00000
0001FFE00000
0001FFE00000
0001FFE00000
0001FFE00000
0001FFE00000
0001FFE00000
0001FFE00000
0001FFE00000
0001FFE00000
0001FFE00000
0001FFE00000
0001FFE00000
0001FFE00000
0001FFE00000
0001FFE00000
0001FFE00000
0001FFE00000
0001FFE00000
0001FFE00000
0001FFE00000
0001FFE00000
0001FFE00000
0001FFE00000
0001FFE00000
0001FFE00000
0001FFE00000
0001FFE00000
0001FFE00000
0001FFE00000
0001FFE00000
000003E00000
000007C00000
000007800000
00003F800000
00003F800000
00003F800000
000007800000
000007800000
0001FF800000
0001FF000000
0003FE000000
ENDCHAR
STARTCHAR 0163
ENCODING 355
SWIDTH 527 0
DWIDTH 41 0
BBX 41 65 0 -11
BITMAP
03FFFFFFF000
07FFFFFFF000
0FFFFFFFF800
1FFFFFFFFC00
1FFFFFFFFE00
3FFFFFFFFE00
7FFFFFFFFF00
7FFFFFFFFF80
FFFFFFFFFF80
FFFDFFFFFF80
FFF9FFEFFF80
FFF1FFE3FF80
FFC1FFE1FF80
FF81FFE0FF80
FF01FFE03F80
0001FFE00000
0001FFE00000
0001FFE00000
0001FFE00000
0001FFE00000
0001FFE00000
0001FFE00000
0001FFE00000
0001FFE00000
0001FFE00000
0001FFE00000
0001FFE00000
0001FFE00000
0001FFE00000
0001FFE00000
0001FFE00000
0001FFE00000
0001FFE00000
0001FFE00000
0001FFE00000
0001FFE00000
0001FFE00000
0001FFE00000
0001FFE00000
0001FFE00000
0001FFE00000
0001FFE00000
0001FFE00000
0001FFE00000
0001FFE00000
0001FFE00000
0001FFE00000
0001FFE00000
0001FFE00000
0001FFE00000
0001FFE00000
0001FFE00000
0001FFE00000
0001FFE00000
000003E00000
000007C00000
000007800000
00003F800000
00003F800000
00003F800000
000007800000
000007800000
0001FF800000
0001FF000000
0003FE000000
ENDCHAR
STARTCHAR 0164
ENCODING 356
SWIDTH 527 0
DWIDTH 41 0
BBX 41 68 0 0
BITMAP
0038000E0000
003C001E0000
003E003E0000
003F007E0000
003F80FE0000
001FC1FE0000
000FFFFC0000
0007FFF80000
0003FFE00000
0001FFC00000
0000FF800000
000000000000
000000000000
000000000000
03FFFFFFF000
07FFFFFFF000
0FFFFFFFF800
1FFFFFFFFC00
1FFFFFFFFE00
3FFFFFFFFE00
7FFFFFFFFF00
7FFFFFFFFF80
FFFFFFFFFF80
FFFDFFFFFF80
FFF9FFEFFF80
FFF1FFE3FF80
FFC1FFE1FF80
FF81FFE0FF80
FF01FFE03F80
0001FFE00000
0001FFE00000
0001FFE00000
0001FFE00000
0001FFE00000
0001FFE00000
0001FFE00000
0001FFE00000
0001FFE00000
0001FFE00000
0001FFE00000
0001FFE00000
0001FFE00000
0001FFE00000
0001FFE00000
0001FFE00000
0001FFE00000
0001FFE00000
0001FFE00000
0001FFE00000
0001FFE00000
0001FFE00000
0001FFE00000
0001FFE00000
0001FFE00000
0001FFE00000
0001FFE00000
0001FFE00000
0001FFE00000
0001FFE00000
0001FFE00000
0001FFE00000
0001FFE00000
0001FFE00000
0001FFE00000
0001FFE00000
0001FFE00000
0001FFE00000
0001FFE00000
ENDCHAR
STARTCHAR 0165
ENCODING 357
SWIDTH 527 0
DWIDTH 41 0
BBX 41 68 0 0
BITMAP
0038000E0000
003C001E0000
003E003E0000
003F007E0000
003F80FE0000
001FC1FE0000
000FFFFC0000
0007FFF80000
0003FFE00000
0001FFC00000
0000FF800000
000000000000
000000000000
000000000000
03FFFFFFF000
07FFFFFFF000
0FFFFFFFF800
1FFFFFFFFC00
1FFFFFFFFE00
3FFFFFFFFE00
7FFFFFFFFF00
7FFFFFFFFF80
FFFFFFFFFF80
FFFDFFFFFF80
FFF9FFEFFF80
FFF1FFE3FF80
FFC1FFE1FF80
FF81FFE0FF80
FF01FFE03F80
0001FFE00000
0001FFE00000
0001FFE00000
0001FFE00000
0001FFE00000
0001FFE00000
0001FFE00000
0001FFE00000
0001FFE00000
0001FFE00000
0001FFE00000
0001FFE00000
0001FFE00000
0001FFE00000
0001FFE00000
0001FFE00000
0001FFE00000
0001FFE00000
0001FFE00000
0001FFE00000
0001FFE00000
0001FFE00000
0001FFE00000
0001FFE00000
0001FFE00000
0001FFE00000
0001FFE00000
0001FFE00000
0001FFE00000
0001FFE00000
0001FFE00000
0001FFE00000
0001FFE00000
0001FFE00000
0001FFE00000
0001FFE00000
0001FFE00000
0001FFE00000
0001FFE00000
ENDCHAR
STARTCHAR 0166
ENCODING 358
SWIDTH 527 0
DWIDTH 41 0
BBX 41 54 0 0
BITMAP
03FFFFFFF000
07FFFFFFF000
0FFFFFFFF800
1FFFFFFFFC00
1FFFFFFFFE00
3FFFFFFFFE00
7FFFFFFFFF00
7FFFFFFFFF80
FFFFFFFFFF80
FFFDFFFFFF80
FFF9FFEFFF80
FFF1FFE3FF80
FFC1FFE1FF80
FF81FFE0FF80
FF01FFE03F80
0001FFE00000
0001FFE00000
0001FFE00000
0001FFE00000
0001FFE00000
0001FFE00000
0001FFE00000
0001FFE00000
03FFFFFFF000
03FFFFFFF000
03FFFFFFF000
03FFFFFFF000
03FFFFFFF000
03FFFFFFF000
03FFFFFFF000
03FFFFFFF000
0001FFE00000
0001FFE00000
0001FFE00000
0001FFE00000
0001FFE00000
0001FFE00000
0001FFE00000
0001FFE00000
0001FFE00000
0001FFE00000
0001FFE00000
0001FFE00000
0001FFE00000
0001FFE00000
0001FFE00000
0001FFE00000
0001FFE00000
0001FFE00000
0001FFE00000
0001FFE00000
0001FFE00000
0001FFE00000
0001FFE00000
ENDCHAR
STARTCHAR 0167
ENCODING 359
SWIDTH 527 0
DWIDTH 41 0
BBX 41 54 0 0
BITMAP
03FFFFFFF000
07FFFFFFF000
0FFFFFFFF800
1FFFFFFFFC00
1FFFFFFFFE00
3FFFFFFFFE00
7FFFFFFFFF00
7FFFFFFFFF80
FFFFFFFFFF80
FFFDFFFFFF80
FFF9FFEFFF80
FFF1FFE3FF80
FFC1FFE1FF80
FF81FFE0FF80
FF01FFE03F80
0001FFE00000
0001FFE00000
0001FFE00000
0001FFE00000
0001FFE00000
0001FFE00000
0001FFE00000
0001FFE00000
03FFFFFFF000
03FFFFFFF000
03FFFFFFF000
03FFFFFFF000
03FFFFFFF000
03FFFFFFF000
03FFFFFFF000
03FFFFFFF000
0001FFE00000
0001FFE00000
0001FFE00000
0001FFE00000
0001FFE00000
0001FFE00000
0001FFE00000
0001FFE00000
0001FFE00000
0001FFE00000
0001FFE00000
0001FFE00000
0001FFE00000
0001FFE00000
0001FFE00000
0001FFE00000
0001FFE00000
0001FFE00000
0001FFE00000
0001FFE00000
0001FFE00000
0001FFE00000
0001FFE00000
ENDCHAR
STARTCHAR 0168
ENCODING 360
SWIDTH 604 0
DWIDTH 47 0
BBX 42 68 3 0
BITMAP
0003C0000000
000FF8000000
003FFE003800
00FFFFC0F800
03FFFFFBF800
07FFFFFFF800
07FC3FFFF800
07F807FFF800
07E000FFE000
07C0001F0000
070000040000
000000000000
000000000000
000000000000
FFF00003FFC0
FFF00003FFC0
FFF00003FFC0
FFF00003FFC0
FFF00003FFC0
FFF00003FFC0
FFF00003FFC0
FFF00003FFC0
FFF00003FFC0
FFF00003FFC0
FFF00003FFC0
FFF00003FFC0
FFF00003FFC0
FFF00003FFC0
FFF00003FFC0
FFF00003FFC0
FFF00003FFC0
FFF00003FFC0
FFF00003FFC0
FFF00003FFC0
FFF00003FFC0
FFF00003FFC0
FFF00003FFC0
FFF00003FFC0
FFF00003FFC0
FFF00003FFC0
FFF00003FFC0
FFF00003FFC0
FFF00003FFC0
FFF00003FFC0
FFF00003FFC0
FFF00003FFC0
FFF00003FFC0
FFF00003FFC0
FFF00003FFC0
FFF00003FFC0
FFF00003FFC0
FFF00003FFC0
FFF00003FFC0
FFF00007FFC0
FFF80007FFC0
FFFC000FFFC0
FFFFFFFFFFC0
FFFFFFFFFFC0
FFFFFFFFFFC0
FFFFFFFFFF80
7FFFFFFFFF80
3FFFFFFFFF00
3FFFFFFFFE00
1FFFFFFFFE00
0FFFFFFFFC00
07FFFFFFF800
07FFFFFFF000
03FFFFFFF000
ENDCHAR
STARTCHAR 0169
ENCODING 361
SWIDTH 604 0
DWIDTH 47 0
BBX 42 68 3 0
BITMAP
0003C0000000
000FF8000000
003FFE003800
00FFFFC0F800
03FFFFFBF800
07FFFFFFF800
07FC3FFFF800
07F807FFF800
07E000FFE000
07C0001F0000
070000040000
000000000000
000000000000
000000000000
FFF00003FFC0
FFF00003FFC0
FFF00003FFC0
FFF00003FFC0
FFF00003FFC0
FFF00003FFC0
FFF00003FFC0
FFF00003FFC0
FFF00003FFC0
FFF00003FFC0
FFF00003FFC0
FFF00003FFC0
FFF00003FFC0
FFF00003FFC0
FFF00003FFC0
FFF00003FFC0
FFF00003FFC0
FFF00003FFC0
FFF00003FFC0
FFF00003FFC0
FFF00003FFC0
FFF00003FFC0
FFF00003FFC0
FFF00003FFC0
FFF00003FFC0
FFF00003FFC0
FFF00003FFC0
FFF00003FFC0
FFF00003FFC0
FFF00003FFC0
FFF00003FFC0
FFF00003FFC0
FFF00003FFC0
FFF00003FFC0
FFF00003FFC0
FFF00003FFC0
FFF00003FFC0
FFF00003FFC0
FFF00003FFC0
FFF00007FFC0
FFF80007FFC0
FFFC000FFFC0
FFFFFFFFFFC0
FFFFFFFFFFC0
FFFFFFFFFFC0
FFFFFFFFFF80
7FFFFFFFFF80
3FFFFFFFFF00
3FFFFFFFFE00
1FFFFFFFFE00
0FFFFFFFFC00
07FFFFFFF800
07FFFFFFF000
03FFFFFFF000
ENDCHAR
STARTCHAR 016A
ENCODING 362
SWIDTH 604 0
DWIDTH 47 0
BBX 42 65 3 0
BITMAP
03FFFFFFF000
03FFFFFFF000
03FFFFFFF000
03FFFFFFF000
03FFFFFFF000
03FFFFFFF000
03FFFFFFF000
03FFFFFFF000
000000000000
000000000000
000000000000
FFF00003FFC0
FFF00003FFC0
FFF00003FFC0
FFF00003FFC0
FFF00003FFC0
FFF00003FFC0
FFF00003FFC0
FFF00003FFC0
FFF00003FFC0
FFF00003FFC0
FFF00003FFC0
FFF00003FFC0
FFF00003FFC0
FFF00003FFC0
FFF00003FFC0
FFF00003FFC0
FFF00003FFC0
FFF00003FFC0
FFF00003FFC0
FFF00003FFC0
FFF00003FFC0
FFF00003FFC0
FFF00003FFC0
FFF00003FFC0
FFF00003FFC0
FFF00003FFC0
FFF00003FFC0
FFF00003FFC0
FFF00003FFC0
FFF00003FFC0
FFF00003FFC0
FFF00003FFC0
FFF00003FFC0
FFF00003FFC0
FFF00003FFC0
FFF00003FFC0
FFF00003FFC0
FFF00003FFC0
FFF00003FFC0
FFF00007FFC0
FFF80007FFC0
FFFC000FFFC0
FFFFFFFFFFC0
FFFFFFFFFFC0
FFFFFFFFFFC0
FFFFFFFFFF80
7FFFFFFFFF80
3FFFFFFFFF00
3FFFFFFFFE00
1FFFFFFFFE00
0FFFFFFFFC00
07FFFFFFF800
07FFFFFFF000
03FFFFFFF000
ENDCHAR
STARTCHAR 016B
ENCODING 363
SWIDTH 604 0
DWIDTH 47 0
BBX 42 65 3 0
BITMAP
03FFFFFFF000
03FFFFFFF000
03FFFFFFF000
03FFFFFFF000
03FFFFFFF000
03FFFFFFF000
03FFFFFFF000
03FFFFFFF000
000000000000
000000000000
000000000000
FFF00003FFC0
FFF00003FFC0
FFF00003FFC0
FFF00003FFC0
FFF00003FFC0
FFF00003FFC0
FFF00003FFC0
FFF00003FFC0
FFF00003FFC0
FFF00003FFC0
FFF00003FFC0
FFF00003FFC0
FFF00003FFC0
FFF00003FFC0
FFF00003FFC0
FFF00003FFC0
FFF00003FFC0
FFF00003FFC0
FFF00003FFC0
FFF00003FFC0
FFF00003FFC0
FFF00003FFC0
FFF00003FFC0
FFF00003FFC0
FFF00003FFC0
FFF00003FFC0
FFF00003FFC0
FFF00003FFC0
FFF00003FFC0
FFF00003FFC0
FFF00003FFC0
FFF00003FFC0
FFF00003FFC0
FFF00003FFC0
FFF00003FFC0
FFF00003FFC0
FFF00003FFC0
FFF00003FFC0
FFF00003FFC0
FFF00007FFC0
FFF80007FFC0
FFFC000FFFC0
FFFFFFFFFFC0
FFFFFFFFFFC0
FFFFFFFFFFC0
FFFFFFFFFF80
7FFFFFFFFF80
3FFFFFFFFF00
3FFFFFFFFE00
1FFFFFFFFE00
0FFFFFFFFC00
07FFFFFFF800
07FFFFFFF000
03FFFFFFF000
ENDCHAR
STARTCHAR 016E
ENCODING 366
SWIDTH 604 0
DWIDTH 47 0
BBX 42 69 3 0
BITMAP
00007F800000
0000FFC00000
0001FFC00000
0001FFC00000
0001E1C00000
0001E1C00000
0001E1C00000
0001E1C00000
0001FFC00000
0000FFC00000
0000FF800000
00007F800000
000000000000
000000000000
000000000000
FFF00003FFC0
FFF00003FFC0
FFF00003FFC0
FFF00003FFC0
FFF00003FFC0
FFF00003FFC0
FFF00003FFC0
FFF00003FFC0
FFF00003FFC0
FFF00003FFC0
FFF00003FFC0
FFF00003FFC0
FFF00003FFC0
FFF00003FFC0
FFF00003FFC0
FFF00003FFC0
FFF00003FFC0
FFF00003FFC0
FFF00003FFC0
FFF00003FFC0
FFF00003FFC0
FFF00003FFC0
FFF00003FFC0
FFF00003FFC0
FFF00003FFC0
FFF00003FFC0
FFF00003FFC0
FFF00003FFC0
FFF00003FFC0
FFF00003FFC0
FFF00003FFC0
FFF00003FFC0
FFF00003FFC0
FFF00003FFC0
FFF00003FFC0
FFF00003FFC0
FFF00003FFC0
FFF00003FFC0
FFF00003FFC0
FFF00007FFC0
FFF80007FFC0
FFFC000FFFC0
FFFFFFFFFFC0
FFFFFFFFFFC0
FFFFFFFFFFC0
FFFFFFFFFF80
7FFFFFFFFF80
3FFFFFFFFF00
3FFFFFFFFE00
1FFFFFFFFE00
0FFFFFFFFC00
07FFFFFFF800
07FFFFFFF000
03FFFFFFF000
ENDCHAR
STARTCHAR 016F
ENCODING 367
SWIDTH 604 0
DWIDTH 47 0
BBX 42 69 3 0
BITMAP
00007F800000
0000FFC00000
0001FFC00000
0001FFC00000
0001E1C00000
0001E1C00000
0001E1C00000
0001E1C00000
0001FFC00000
0000FFC00000
0000FF800000
00007F800000
000000000000
000000000000
000000000000
FFF00003FFC0
FFF00003FFC0
FFF00003FFC0
FFF00003FFC0
FFF00003FFC0
FFF00003FFC0
FFF00003FFC0
FFF00003FFC0
FFF00003FFC0
FFF00003FFC0
FFF00003FFC0
FFF00003FFC0
FFF00003FFC0
FFF00003FFC0
FFF00003FFC0
FFF00003FFC0
FFF00003FFC0
FFF00003FFC0
FFF00003FFC0
FFF00003FFC0
FFF00003FFC0
FFF00003FFC0
FFF00003FFC0
FFF00003FFC0
FFF00003FFC0
FFF00003FFC0
FFF00003FFC0
FFF00003FFC0
FFF00003FFC0
FFF00003FFC0
FFF00003FFC0
FFF00003FFC0
FFF00003FFC0
FFF00003FFC0
FFF00003FFC0
FFF00003FFC0
FFF00003FFC0
FFF00003FFC0
FFF00003FFC0
FFF00007FFC0
FFF80007FFC0
FFFC000FFFC0
FFFFFFFFFFC0
FFFFFFFFFFC0
FFFFFFFFFFC0
FFFFFFFFFF80
7FFFFFFFFF80
3FFFFFFFFF00
3FFFFFFFFE00
1FFFFFFFFE00
0FFFFFFFFC00
07FFFFFFF800
07FFFFFFF000
03FFFFFFF000
ENDCHAR
STARTCHAR 0170
ENCODING 368
SWIDTH 604 0
DWIDTH 47 0
BBX 42 70 3 0
BITMAP
00003E3E0000
00003E3E0000
00003E3E0000
00003E3E0000
00003E3E0000
00007E7C0000
00007C7C0000
0000FCF80000
0000F8F80000
0001F9F00000
0001F1F00000
0003F3E00000
0003E3E00000
000000000000
000000000000
000000000000
FFF00003FFC0
FFF00003FFC0
FFF00003FFC0
FFF00003FFC0
FFF00003FFC0
FFF00003FFC0
FFF00003FFC0
FFF00003FFC0
FFF00003FFC0
FFF00003FFC0
FFF00003FFC0
FFF00003FFC0
FFF00003FFC0
FFF00003FFC0
FFF00003FFC0
FFF00003FFC0
FFF00003FFC0
FFF00003FFC0
FFF00003FFC0
FFF00003FFC0
FFF00003FFC0
FFF00003FFC0
FFF00003FFC0
FFF00003FFC0
FFF00003FFC0
FFF00003FFC0
FFF00003FFC0
FFF00003FFC0
FFF00003FFC0
FFF00003FFC0
FFF00003FFC0
FFF00003FFC0
FFF00003FFC0
FFF00003FFC0
FFF00003FFC0
FFF00003FFC0
FFF00003FFC0
FFF00003FFC0
FFF00003FFC0
FFF00007FFC0
FFF80007FFC0
FFFC000FFFC0
FFFFFFFFFFC0
FFFFFFFFFFC0
FFFFFFFFFFC0
FFFFFFFFFF80
7FFFFFFFFF80
3FFFFFFFFF00
3FFFFFFFFE00
1FFFFFFFFE00
0FFFFFFFFC00
07FFFFFFF800
07FFFFFFF000
03FFFFFFF000
ENDCHAR
STARTCHAR 0171
ENCODING 369
SWIDTH 604 0
DWIDTH 47 0
BBX 42 70 3 0
BITMAP
00003E3E0000
00003E3E0000
00003E3E0000
00003E3E0000
00003E3E0000
00007E7C0000
00007C7C0000
0000FCF80000
0000F8F80000
0001F9F00000
0001F1F00000
0003F3E00000
0003E3E00000
000000000000
000000000000
000000000000
FFF00003FFC0
FFF00003FFC0
FFF00003FFC0
FFF00003FFC0
FFF00003FFC0
FFF00003FFC0
FFF00003FFC0
FFF00003FFC0
FFF00003FFC0
FFF00003FFC0
FFF00003FFC0
FFF00003FFC0
FFF00003FFC0
FFF00003FFC0
FFF00003FFC0
FFF00003FFC0
FFF00003FFC0
FFF00003FFC0
FFF00003FFC0
FFF00003FFC0
FFF00003FFC0
FFF00003FFC0
FFF00003FFC0
FFF00003FFC0
FFF00003FFC0
FFF00003FFC0
FFF00003FFC0
FFF00003FFC0
FFF00003FFC0
FFF00003FFC0
FFF00003FFC0
FFF00003FFC0
FFF00003FFC0
FFF00003FFC0
FFF00003FFC0
FFF00003FFC0
FFF00003FFC0
FFF00003FFC0
FFF00003FFC0
FFF00007FFC0
FFF80007FFC0
FFFC000FFFC0
FFFFFFFFFFC0
FFFFFFFFFFC0
FFFFFFFFFFC0
FFFFFFFFFF80
7FFFFFFFFF80
3FFFFFFFFF00
3FFFFFFFFE00
1FFFFFFFFE00
0FFFFFFFFC00
07FFFFFFF800
07FFFFFFF000
03FFFFFFF000
ENDCHAR
STARTCHAR 0172
ENCODING 370
SWIDTH 604 0
DWIDTH 47 0
BBX 42 66 3 -12
BITMAP
FFF00003FFC0
FFF00003FFC0
FFF00003FFC0
FFF00003FFC0
FFF00003FFC0
FFF00003FFC0
FFF00003FFC0
FFF00003FFC0
FFF00003FFC0
FFF00003FFC0
FFF00003FFC0
FFF00003FFC0
FFF00003FFC0
FFF00003FFC0
FFF00003FFC0
FFF00003FFC0
FFF00003FFC0
FFF00003FFC0
FFF00003FFC0
FFF00003FFC0
FFF00003FFC0
FFF00003FFC0
FFF00003FFC0
FFF00003FFC0
FFF00003FFC0
FFF00003FFC0
FFF00003FFC0
FFF00003FFC0
FFF00003FFC0
FFF00003FFC0
FFF00003FFC0
FFF00003FFC0
FFF00003FFC0
FFF00003FFC0
FFF00003FFC0
FFF00003FFC0
FFF00003FFC0
FFF00003FFC0
FFF00003FFC0
FFF00007FFC0
FFF80007FFC0
FFFC000FFFC0
FFFFFFFFFFC0
FFFFFFFFFFC0
FFFFFFFFFFC0
FFFFFFFFFF80
7FFFFFFFFF80
3FFFFFFFFF00
3FFFFFFFFE00
1FFFFFFFFE00
0FFFFFFFFC00
07FFFFFFF800
07FFFFFFF000
03FFFFFFF000
00003E000000
00007C000000
0000FC000000
0000F8000000
0001F0000000
0001F0000000
0003F1F00000
0003FFF00000
0003FFF00000
0003FFE00000
0003FFE00000
0001FFC00000
ENDCHAR
ENDFONT
